<?xml version="1.0" encoding="utf-8"?>
<!-- Generator: Adobe Illustrator 16.0.0, SVG Export Plug-In . SVG Version: 6.00 Build 0)  -->
<!DOCTYPE svg PUBLIC "-//W3C//DTD SVG 1.1//EN" "http://www.w3.org/Graphics/SVG/1.1/DTD/svg11.dtd">
<svg version="1.1" id="Layer_1" xmlns:sketch="http://www.bohemiancoding.com/sketch/ns"
	 xmlns="http://www.w3.org/2000/svg" xmlns:xlink="http://www.w3.org/1999/xlink" x="0px" y="0px" width="752px" height="471px"
	 viewBox="0 0 752 471" enable-background="new 0 0 752 471" xml:space="preserve">
<title>Slice 1</title>
<desc>Created with Sketch.</desc>
<g id="Page-1" sketch:type="MSPage">
	<g id="amex" sketch:type="MSLayerGroup">
		<path id="Rectangle-1" sketch:type="MSShapeGroup" fill="#3473DB" d="M41,0h670c22.092,0,40,17.909,40,40v391
			c0,22.092-17.908,40-40,40H41c-22.091,0-40-17.908-40-40V40C1,17.909,18.909,0,41,0z"/>
		<path id="Path" sketch:type="MSShapeGroup" fill="#FFFFFF" d="M1.003,221.185h36.024l8.123-19.51h18.185l8.102,19.51h70.88
			v-14.916l6.327,14.979h36.796l6.327-15.202v15.139h176.151l-0.082-32.026h3.408c2.386,0.083,3.083,0.302,3.083,4.226v27.8h91.106
			v-7.456c7.349,3.921,18.778,7.456,33.818,7.456h38.328l8.202-19.51h18.186l8.021,19.51h73.86v-18.532l11.185,18.532h59.188V98.678
			h-58.575v14.468l-8.202-14.468h-60.105v14.468l-7.532-14.468h-81.188c-13.59,0-25.536,1.889-35.186,7.153v-7.153h-56.026v7.153
			c-6.141-5.426-14.509-7.153-23.813-7.153H180.908l-13.734,31.642L153.07,98.678H88.6v14.468l-7.083-14.468H26.534L1,156.924
			v64.261H1.003L1.003,221.185z M228.399,203.514h-21.615l-0.08-68.793l-30.573,68.793H157.62l-30.652-68.854v68.854H84.084
			l-8.102-19.592H32.083l-8.184,19.592H1l37.756-87.837h31.326l35.859,83.164v-83.164h34.412l27.593,59.587l25.347-59.587h35.104
			v87.837H228.399L228.399,203.514z M68.777,165.693l-14.431-35.017l-14.349,35.017H68.777L68.777,165.693z M314.42,203.514h-70.434
			v-87.837h70.434v18.292h-49.349v15.833h48.164v18.005h-48.164v17.542h49.349V203.514L314.42,203.514z M413.676,139.333
			c0,14.005-9.387,21.24-14.857,23.413c4.613,1.749,8.554,4.838,10.43,7.397c2.978,4.369,3.49,8.271,3.49,16.116v17.255h-21.266
			l-0.08-11.077c0-5.286,0.509-12.887-3.328-17.112c-3.081-3.089-7.776-3.76-15.367-3.76h-22.634v31.949h-21.082v-87.837h48.494
			c10.775,0,18.715,0.284,25.531,4.208C409.677,123.808,413.676,129.536,413.676,139.333L413.676,139.333z M387.022,152.376
			c-2.897,1.751-6.324,1.81-10.429,1.81H350.98v-19.51h25.961c3.675,0,7.509,0.164,9.999,1.584c2.735,1.28,4.427,4.003,4.427,7.765
			C391.367,147.864,389.758,150.954,387.022,152.376L387.022,152.376z M447.489,203.514h-21.514v-87.837h21.514V203.514
			L447.489,203.514z M697.229,203.514h-29.878l-39.965-65.927v65.927h-42.938l-8.206-19.592h-43.798l-7.961,19.592h-24.671
			c-10.249,0-23.225-2.257-30.573-9.715c-7.409-7.458-11.265-17.56-11.265-33.533c0-13.027,2.305-24.936,11.366-34.347
			c6.816-7.01,17.49-10.243,32.02-10.243h20.412v18.821h-19.983c-7.694,0-12.039,1.139-16.224,5.204
			c-3.595,3.698-6.062,10.69-6.062,19.896c0,9.411,1.879,16.196,5.798,20.628c3.246,3.476,9.145,4.53,14.694,4.53h9.469
			l29.716-69.077h31.592l35.697,83.082V115.68h32.103l37.062,61.174V115.68h21.596V203.514L697.229,203.514z M569.07,165.693
			l-14.591-35.017l-14.511,35.017H569.07L569.07,165.693z"/>
		<path id="path13" sketch:type="MSShapeGroup" fill="#FFFFFF" d="M750.956,343.768c-5.121,7.457-15.101,11.238-28.611,11.238
			h-40.718v-18.84h40.553c4.022,0,6.838-0.527,8.532-2.175c1.469-1.359,2.493-3.333,2.493-5.731c0-2.559-1.024-4.591-2.575-5.81
			c-1.53-1.341-3.757-1.95-7.429-1.95c-19.797-0.67-44.495,0.609-44.495-27.193c0-12.743,8.125-26.156,30.251-26.156h41.997v-17.48
			h-39.021c-11.775,0-20.329,2.808-26.388,7.174v-7.174H627.83c-9.229,0-20.063,2.277-25.188,7.174v-7.174H499.577v7.174
			c-8.202-5.893-22.042-7.174-28.431-7.174h-67.982v7.174c-6.489-6.258-20.921-7.174-29.717-7.174h-76.084l-17.411,18.762
			l-16.307-18.762H149.992v122.592h111.515l17.94-19.061l16.9,19.061l68.739,0.061v-28.839h6.758
			c9.12,0.141,19.877-0.226,29.367-4.311v33.085h56.696v-31.951h2.735c3.491,0,3.834,0.144,3.834,3.617v28.332h172.234
			c10.936,0,22.365-2.787,28.694-7.845v7.845h54.633c11.368,0,22.471-1.587,30.918-5.651V343.768L750.956,343.768z M409.453,296.613
			c0,24.405-18.286,29.444-36.716,29.444H346.43v29.47h-40.981l-25.962-29.086l-26.981,29.086H168.99v-87.859h84.801l25.94,28.799
			l26.818-28.799h67.371C390.653,267.668,409.453,272.281,409.453,296.613L409.453,296.613z M241.828,337.047h-51.838v-17.48h46.289
			v-17.926h-46.289v-15.974h52.86l23.062,25.604L241.828,337.047L241.828,337.047z M325.354,347.106l-32.371-35.788l32.371-34.65
			V347.106L325.354,347.106z M373.228,308.041H345.98v-22.374h27.491c7.612,0,12.896,3.089,12.896,10.772
			C386.368,304.038,381.329,308.041,373.228,308.041L373.228,308.041z M515.971,267.668h70.369v18.17h-49.372v15.973h48.167v17.926
			h-48.167v17.48l49.372,0.08v18.23h-70.369V267.668L515.971,267.668z M488.917,314.697c4.693,1.725,8.53,4.816,10.328,7.376
			c2.978,4.289,3.408,8.292,3.494,16.036v17.418h-21.168v-10.992c0-5.286,0.511-13.112-3.408-17.197
			c-3.081-3.148-7.776-3.9-15.469-3.9h-22.532v32.09h-21.186v-87.859h48.678c10.674,0,18.448,0.469,25.368,4.146
			c6.654,4.004,10.839,9.487,10.839,19.51C503.858,305.348,494.467,312.504,488.917,314.697L488.917,314.697z M476.999,303.59
			c-2.82,1.667-6.309,1.811-10.411,1.811h-25.613v-19.733h25.962c3.754,0,7.511,0.079,10.063,1.587
			c2.732,1.423,4.366,4.145,4.366,7.903S479.731,301.945,476.999,303.59L476.999,303.59z M667.335,309.187
			c4.105,4.231,6.306,9.572,6.306,18.614c0,18.9-11.857,27.724-33.121,27.724h-41.066v-18.84h40.901
			c3.999,0,6.835-0.527,8.612-2.175c1.45-1.359,2.49-3.334,2.49-5.73c0-2.561-1.125-4.592-2.572-5.811
			c-1.612-1.341-3.837-1.95-7.509-1.95c-19.718-0.67-44.41,0.609-44.41-27.192c0-12.744,8.04-26.158,30.145-26.158h42.269v18.699
			h-38.677c-3.834,0-6.327,0.144-8.447,1.588c-2.31,1.422-3.166,3.533-3.166,6.32c0,3.314,1.961,5.569,4.613,6.545
			c2.224,0.771,4.613,0.996,8.205,0.996l11.35,0.305C654.703,302.398,662.56,304.37,667.335,309.187L667.335,309.187z M751,285.667
			h-38.427c-3.837,0-6.386,0.144-8.532,1.587c-2.225,1.423-3.081,3.535-3.081,6.322c0,3.314,1.878,5.568,4.61,6.543
			c2.225,0.771,4.614,0.996,8.126,0.996l11.427,0.305c11.531,0.284,19.229,2.258,23.922,7.072c0.854,0.67,1.367,1.422,1.955,2.174
			V285.667L751,285.667z"/>
	</g>
</g>
</svg>
