<?xml version="1.0" encoding="utf-8"?>
<!-- Generator: Adobe Illustrator 16.0.0, SVG Export Plug-In . SVG Version: 6.00 Build 0)  -->
<!DOCTYPE svg PUBLIC "-//W3C//DTD SVG 1.1//EN" "http://www.w3.org/Graphics/SVG/1.1/DTD/svg11.dtd">
<svg version="1.1" xmlns="http://www.w3.org/2000/svg" xmlns:xlink="http://www.w3.org/1999/xlink" x="0px" y="0px" width="100px"
	 height="100px" viewBox="0 0 100 100" enable-background="new 0 0 100 100" xml:space="preserve">
<g id="Layer_5">
	
		<rect x="35.864" y="26.95" transform="matrix(0.7157 -0.6984 0.6984 0.7157 -9.9086 35.3247)" opacity="0.2" fill="#273238" width="5.141" height="5.766"/>
	
		<rect x="62.53" y="27.05" transform="matrix(0.7157 -0.6984 0.6984 0.7157 -2.3975 53.9767)" opacity="0.2" fill="#273238" width="5.141" height="5.766"/>
	<polygon opacity="0.2" fill="#273238" points="121.7,79.409 76.533,123.003 27.7,73.498 72.867,29.903 	"/>
</g>
<g id="Layer_3">
	<path fill="#FFFFFF" d="M27,72.7c0,0.829,0.671,1.5,1.5,1.5h43c0.829,0,1.5-0.671,1.5-1.5v-42c0-0.829-0.671-1.5-1.5-1.5h-43
		c-0.829,0-1.5,0.671-1.5,1.5V72.7z"/>
	<path fill="#F16060" d="M73,43.406V30.7c0-0.829-0.671-1.5-1.5-1.5h-43c-0.829,0-1.5,0.671-1.5,1.5v12.706H73z"/>
	<path fill="#EDEEF2" d="M50,43.406V74.2h21.5c0.829,0,1.5-0.671,1.5-1.5V43.406H50z"/>
	<path fill="#EE5450" d="M71.5,29.2H50v14.206h23V30.7C73,29.872,72.329,29.2,71.5,29.2z"/>
	<rect x="27" y="41.227" opacity="0.1" fill="#273238" width="46" height="2.167"/>
	<path fill="#273238" d="M61.5,35.35c0,0.414,0.336,0.75,0.75,0.75h1.969c0.414,0,0.75-0.336,0.75-0.75v-9
		c0-0.414-0.336-0.75-0.75-0.75H62.25c-0.414,0-0.75,0.336-0.75,0.75V35.35z"/>
	<path fill="#3C484E" d="M34.966,35.35c0,0.414,0.336,0.75,0.75,0.75h1.969c0.414,0,0.75-0.336,0.75-0.75v-9
		c0-0.414-0.336-0.75-0.75-0.75h-1.969c-0.414,0-0.75,0.336-0.75,0.75V35.35z"/>
</g>
<g id="Layer_4">
	<rect x="32.813" y="56.719" fill="#D0D9DB" width="4.406" height="4.375"/>
	<rect x="32.813" y="66.719" fill="#D0D9DB" width="4.406" height="4.375"/>
	<rect x="42.813" y="46.719" fill="#D0D9DB" width="4.406" height="4.375"/>
	<rect x="42.813" y="56.719" fill="#D0D9DB" width="4.406" height="4.375"/>
	<rect x="42.813" y="66.719" fill="#D0D9DB" width="4.406" height="4.375"/>
	<rect x="52.813" y="46.719" fill="#D0D9DB" width="4.406" height="4.375"/>
	<rect x="52.813" y="56.719" fill="#F1A534" width="4.406" height="4.375"/>
	<rect x="52.813" y="66.719" fill="#D0D9DB" width="4.406" height="4.375"/>
	<rect x="62.813" y="46.719" fill="#D0D9DB" width="4.406" height="4.375"/>
	<rect x="62.813" y="56.719" fill="#D0D9DB" width="4.406" height="4.375"/>
	<rect x="62.813" y="66.719" fill="#D0D9DB" width="4.406" height="4.375"/>
</g>
</svg>
