<?xml version="1.0" encoding="utf-8"?>
<!-- Generator: Adobe Illustrator 16.0.0, SVG Export Plug-In . SVG Version: 6.00 Build 0)  -->
<!DOCTYPE svg PUBLIC "-//W3C//DTD SVG 1.1//EN" "http://www.w3.org/Graphics/SVG/1.1/DTD/svg11.dtd">
<svg version="1.1" id="Layer_3" xmlns="http://www.w3.org/2000/svg" xmlns:xlink="http://www.w3.org/1999/xlink" x="0px" y="0px"
	 width="47px" height="42px" viewBox="0 0 47 42" enable-background="new 0 0 47 42" xml:space="preserve">
<g id="Layer_5">
	
		<rect x="14.797" y="6.661" transform="matrix(-0.7156 0.6985 -0.6985 -0.7156 33.3977 2.7396)" opacity="0.3" fill="#283339" enable-background="new    " width="2.689" height="3.016"/>
	
		<rect x="28.744" y="6.714" transform="matrix(-0.7155 0.6986 -0.6986 -0.7155 57.3604 -6.9158)" opacity="0.3" fill="#283339" enable-background="new    " width="2.689" height="3.016"/>
	<polygon opacity="0.3" fill="#283339" enable-background="new    " points="47.5,42 47.5,21.738 34.151,8.205 10.526,31.007 
		21.37,42 	"/>
</g>
<g id="Layer_3_2_">
	<path fill="#FFFFFF" d="M10.16,30.59c0,0.434,0.351,0.784,0.784,0.784h22.492c0.433,0,0.784-0.351,0.784-0.784V8.622
		c0-0.434-0.352-0.784-0.784-0.784H10.944c-0.433,0-0.784,0.35-0.784,0.784V30.59z"/>
	<path fill="#F16161" d="M34.221,15.268V8.622c0-0.434-0.352-0.784-0.784-0.784H10.944c-0.433,0-0.784,0.35-0.784,0.784v6.646
		H34.221z"/>
	<path fill="#EDEEF2" d="M22.19,15.268v16.106h11.246c0.433,0,0.784-0.351,0.784-0.784V15.268H22.19z"/>
	<path fill="#EE5651" d="M33.437,7.838H22.19v7.43h12.03V8.622C34.221,8.189,33.869,7.838,33.437,7.838z"/>
	<rect x="10.16" y="14.128" opacity="0.1" fill="#283339" enable-background="new    " width="24.061" height="1.133"/>
	<path fill="#283339" d="M28.206,11.054c0,0.216,0.176,0.393,0.393,0.393h1.028c0.217,0,0.394-0.176,0.394-0.393V6.346
		c0-0.216-0.177-0.393-0.394-0.393h-1.028c-0.217,0-0.393,0.176-0.393,0.393V11.054z"/>
	<path fill="#3D494F" d="M14.327,11.054c0,0.216,0.176,0.393,0.393,0.393h1.03c0.217,0,0.392-0.176,0.392-0.393V6.346
		c0-0.216-0.175-0.393-0.392-0.393h-1.03c-0.217,0-0.393,0.176-0.393,0.393V11.054z"/>
</g>
<g id="Layer_4">
	<rect x="13.201" y="22.23" fill="#D1DADB" width="2.304" height="2.288"/>
	<rect x="13.201" y="27.461" fill="#D1DADB" width="2.304" height="2.288"/>
	<rect x="18.43" y="17" fill="#D1DADB" width="2.306" height="2.29"/>
	<rect x="18.43" y="22.23" fill="#D1DADB" width="2.306" height="2.288"/>
	<rect x="18.43" y="27.461" fill="#D1DADB" width="2.306" height="2.288"/>
	<rect x="23.661" y="17" fill="#D1DADB" width="2.306" height="2.29"/>
	<rect x="23.661" y="22.23" fill="#F1A535" width="2.306" height="2.288"/>
	<rect x="23.661" y="27.461" fill="#D1DADB" width="2.306" height="2.288"/>
	<rect x="28.892" y="17" fill="#D1DADB" width="2.306" height="2.29"/>
	<rect x="28.892" y="22.23" fill="#D1DADB" width="2.306" height="2.288"/>
	<rect x="28.892" y="27.461" fill="#D1DADB" width="2.306" height="2.288"/>
</g>
</svg>
