<?xml version="1.0" encoding="utf-8"?>
<!-- Generator: Adobe Illustrator 16.0.0, SVG Export Plug-In . SVG Version: 6.00 Build 0)  -->
<!DOCTYPE svg PUBLIC "-//W3C//DTD SVG 1.1//EN" "http://www.w3.org/Graphics/SVG/1.1/DTD/svg11.dtd">
<svg version="1.1" id="Layer_1" xmlns="http://www.w3.org/2000/svg" xmlns:xlink="http://www.w3.org/1999/xlink" x="0px" y="0px"
	 width="70px" height="50px" viewBox="0 0 70 50" enable-background="new 0 0 70 50" xml:space="preserve">
<g id="Layer_2">
	<path fill="#353C42" d="M13.031,46c0,1.1-0.9,2-2,2h-5.36c-1.1,0-2-0.9-2-2v-5.836c0-1.1,0.9-2,2-2h5.36c1.1,0,2,0.9,2,2V46z"/>
	<path fill="#353C42" d="M67.031,46c0,1.1-0.9,2-2,2h-5.36c-1.101,0-2-0.9-2-2v-5.836c0-1.1,0.899-2,2-2h5.36c1.1,0,2,0.9,2,2V46z"
		/>
	<path fill="#DD4B38" d="M68.823,27.336c0-4.44-3.4-8.479-8.954-11.498l0.722-0.981l-0.1-0.073c0.646,0.342,1.467,0.547,2.362,0.547
		c2.067,0,3.742-1.088,3.742-2.432c0-1.344-1.675-2.433-3.742-2.433c-2.065,0-3.742,1.089-3.742,2.433
		c0,0.523,0.259,1.008,0.691,1.405l-0.498,0.679c-1.668-3.484-3.601-6.618-5.752-9.307c0.002,0,0.002,0,0.002,0
		c-0.014-0.017-0.027-0.033-0.041-0.05c-0.098-0.122-0.195-0.239-0.295-0.359C53.109,5.133,53.001,5,52.891,4.868
		c-0.104-0.124-0.209-0.246-0.314-0.368c-0.109-0.125-0.219-0.25-0.329-0.373c-0.104-0.118-0.21-0.236-0.315-0.352
		c-0.117-0.129-0.236-0.256-0.354-0.382c-0.078-0.083-0.154-0.169-0.231-0.25H51.34c-0.031-0.032-0.063-0.066-0.093-0.099
		c-4.188-0.262-9.563-0.418-15.433-0.418c-6.567,0-12.519,0.197-16.875,0.517h-0.678c-0.017,0.019-0.033,0.037-0.049,0.056h-0.001
		c-0.033,0.035-0.064,0.075-0.096,0.111c-0.243,0.271-0.482,0.551-0.719,0.834c-0.104,0.124-0.206,0.249-0.309,0.375
		c-0.184,0.227-0.365,0.457-0.545,0.691c-0.079,0.103-0.162,0.199-0.24,0.304c0.001,0.001,0.002,0.001,0.003,0.001
		c-2.084,2.764-3.906,6.006-5.423,9.61l-0.604-0.822c0.434-0.397,0.691-0.882,0.691-1.405c0-1.344-1.676-2.433-3.743-2.433
		s-3.743,1.089-3.743,2.433c0,1.344,1.676,2.432,3.743,2.432c0.897,0,1.719-0.205,2.364-0.547l-0.099,0.073l0.812,1.105
		c-5.418,3.007-8.728,6.994-8.728,11.374c0,0.201,0.009,0.399,0.022,0.601c-0.013,0.147-0.022,0.297-0.022,0.446v7.638
		c0,2.845,2.328,5.172,5.173,5.172h56.899c2.846,0,5.174-2.327,5.174-5.172v-7.638c0-0.149-0.01-0.299-0.023-0.446
		C68.813,27.736,68.823,27.537,68.823,27.336z"/>
	<path fill="#414042" d="M57.102,14.406c-2.131-3.668-4.328-6.837-6.543-9.422H37.314h-9.416H19.04
		c-1.787,2.567-3.559,5.715-5.276,9.358h10.978c-0.005,0.021-0.011,0.042-0.015,0.063h32.375V14.406z"/>
	<path fill="#414042" d="M19.054,25.549v0.555c0,3.049,2.494,5.541,5.542,5.541h21.245c3.05,0,5.542-2.492,5.542-5.541v-0.555
		H19.054z"/>
	<circle fill="#F29C1F" cx="9.102" cy="26.719" r="3.633"/>
	<circle fill="#F29C1F" cx="61.199" cy="26.719" r="3.634"/>
	<path fill="#BD3F39" d="M68.811,27.064c-2.994,4.43-8.063,7.354-13.781,7.354H15.494c-5.793,0-10.917-3.005-13.896-7.532
		c-0.008,0.15-0.021,0.299-0.021,0.449c0,0.201,0.009,0.4,0.022,0.6c-0.013,0.148-0.022,0.297-0.022,0.447v7.637
		c0,2.846,2.328,5.172,5.173,5.172h56.9c2.845,0,5.173-2.326,5.173-5.172v-7.637c0-0.15-0.011-0.299-0.023-0.447
		c0.015-0.199,0.023-0.397,0.023-0.6C68.823,27.246,68.813,27.156,68.811,27.064z"/>
	<path opacity="0.1" fill="#D1D3D4" enable-background="new    " d="M68.823,27.336c0-4.44-3.4-8.479-8.954-11.498l0.722-0.981
		l-0.1-0.073c0.646,0.342,1.467,0.547,2.362,0.547c2.067,0,3.742-1.088,3.742-2.432c0-1.344-1.675-2.433-3.742-2.433
		c-2.065,0-3.742,1.089-3.742,2.433c0,0.523,0.259,1.008,0.691,1.405l-0.498,0.679c-1.668-3.484-3.601-6.618-5.752-9.307
		c0.002,0,0.002,0,0.002,0c-0.014-0.017-0.027-0.033-0.041-0.05c-0.098-0.122-0.195-0.239-0.295-0.359
		C53.109,5.133,53.001,5,52.891,4.868c-0.104-0.124-0.209-0.246-0.314-0.368c-0.109-0.125-0.219-0.25-0.329-0.373
		c-0.104-0.118-0.21-0.236-0.315-0.352c-0.117-0.129-0.236-0.256-0.354-0.382c-0.078-0.083-0.154-0.169-0.231-0.25H51.34
		c-0.031-0.032-0.063-0.066-0.093-0.099c-4.188-0.262-9.563-0.418-15.433-0.418c-0.789,0-1.568,0.002-2.339,0.008l12.082,38.558
		H63.65c2.845,0,5.173-2.327,5.173-5.172v-7.638c0-0.149-0.011-0.299-0.023-0.446C68.813,27.736,68.823,27.537,68.823,27.336z"/>
</g>
</svg>
