<?xml version="1.0" encoding="utf-8"?>
<!-- Generator: Adobe Illustrator 16.0.0, SVG Export Plug-In . SVG Version: 6.00 Build 0)  -->
<!DOCTYPE svg PUBLIC "-//W3C//DTD SVG 1.1//EN" "http://www.w3.org/Graphics/SVG/1.1/DTD/svg11.dtd">
<svg version="1.1" id="Layer_1" xmlns="http://www.w3.org/2000/svg" xmlns:xlink="http://www.w3.org/1999/xlink" x="0px" y="0px"
	 width="70px" height="50px" viewBox="0 0 70 50" enable-background="new 0 0 70 50" xml:space="preserve">
<g id="Layer_1_1_">
	<g>
		<path fill="#353C42" d="M13.131,45.688c0,1.101-0.9,2-2,2h-5.36c-1.1,0-2-0.899-2-2v-5.836c0-1.1,0.9-2,2-2h5.36c1.1,0,2,0.9,2,2
			V45.688z"/>
	</g>
	<g>
		<path fill="#353C42" d="M67.13,45.688c0,1.101-0.899,2-2,2h-5.358c-1.101,0-2-0.899-2-2v-5.836c0-1.1,0.899-2,2-2h5.358
			c1.101,0,2,0.9,2,2V45.688z"/>
	</g>
	<path fill="#F29C1F" d="M68.923,27.023c0-4.441-3.401-8.479-8.955-11.5l0.722-0.981l-0.1-0.073
		c0.645,0.342,1.467,0.547,2.364,0.547c2.065,0,3.741-1.089,3.741-2.433c0-1.343-1.676-2.432-3.741-2.432
		c-2.067,0-3.743,1.089-3.743,2.432c0,0.524,0.258,1.009,0.691,1.406l-0.5,0.679c-1.666-3.484-3.6-6.618-5.75-9.306h0.002
		c-0.014-0.017-0.026-0.034-0.041-0.05c-0.098-0.122-0.195-0.24-0.295-0.359C53.21,4.82,53.1,4.687,52.988,4.556
		c-0.104-0.124-0.209-0.246-0.314-0.368c-0.107-0.125-0.218-0.25-0.328-0.374c-0.104-0.118-0.21-0.236-0.316-0.352
		c-0.117-0.129-0.235-0.255-0.354-0.382c-0.078-0.083-0.154-0.168-0.232-0.25h-0.004c-0.03-0.033-0.062-0.066-0.092-0.099
		C47.16,2.47,41.784,2.313,35.917,2.313c-6.568,0-12.519,0.198-16.875,0.517h-0.678c-0.017,0.018-0.033,0.037-0.049,0.055h-0.001
		c-0.033,0.036-0.064,0.076-0.096,0.111c-0.243,0.272-0.482,0.551-0.719,0.835c-0.104,0.124-0.206,0.249-0.309,0.375
		c-0.184,0.227-0.365,0.458-0.545,0.691c-0.079,0.103-0.162,0.2-0.24,0.304c0.001,0,0.002,0,0.003,0
		c-2.084,2.764-3.906,6.006-5.423,9.611l-0.604-0.822c0.434-0.397,0.691-0.881,0.691-1.406c0-1.343-1.676-2.432-3.743-2.432
		s-3.743,1.089-3.743,2.432c0,1.344,1.676,2.433,3.743,2.433c0.897,0,1.719-0.206,2.364-0.547l-0.099,0.073l0.812,1.105
		c-5.418,3.006-8.728,6.994-8.728,11.375c0,0.201,0.009,0.399,0.022,0.6C1.687,27.77,1.677,27.92,1.677,28.07v7.637
		c0,2.844,2.328,5.172,5.173,5.172h56.899c2.847,0,5.174-2.328,5.174-5.172V28.07c0-0.15-0.011-0.301-0.022-0.447
		C68.913,27.424,68.923,27.225,68.923,27.023z"/>
	<path fill="#414042" d="M57.2,14.093c-2.132-3.668-4.328-6.837-6.543-9.422H37.414h-9.415H19.14
		c-1.787,2.567-3.559,5.715-5.276,9.358h10.978c-0.004,0.021-0.01,0.042-0.015,0.063L57.2,14.093L57.2,14.093z"/>
	<path fill="#414042" d="M19.153,25.236v0.554c0,3.048,2.494,5.542,5.542,5.542h21.245c3.049,0,5.541-2.494,5.541-5.542v-0.554
		H19.153z"/>
	<circle fill="#E6E7E8" cx="9.202" cy="26.406" r="3.633"/>
	<circle fill="#E6E7E8" cx="61.299" cy="26.406" r="3.634"/>
	<path fill="#CD852A" d="M68.909,26.752c-2.995,4.428-8.063,7.354-13.781,7.354H15.594c-5.793,0-10.917-3.006-13.896-7.53
		c-0.008,0.149-0.021,0.299-0.021,0.448c0,0.201,0.009,0.4,0.022,0.601C1.687,27.77,1.677,27.92,1.677,28.07v7.637
		c0,2.844,2.328,5.172,5.173,5.172h56.899c2.847,0,5.174-2.328,5.174-5.172V28.07c0-0.15-0.011-0.301-0.022-0.447
		c0.014-0.199,0.022-0.398,0.022-0.6C68.923,26.932,68.912,26.844,68.909,26.752z"/>
	<path opacity="0.1" fill="#D1D3D4" enable-background="new    " d="M68.923,27.023c0-4.441-3.401-8.479-8.955-11.5l0.722-0.981
		l-0.1-0.073c0.645,0.342,1.467,0.547,2.364,0.547c2.065,0,3.741-1.089,3.741-2.433c0-1.343-1.676-2.432-3.741-2.432
		c-2.067,0-3.743,1.089-3.743,2.432c0,0.524,0.258,1.009,0.691,1.406l-0.5,0.679c-1.666-3.484-3.6-6.618-5.75-9.306h0.002
		c-0.014-0.017-0.026-0.034-0.041-0.05c-0.098-0.122-0.195-0.24-0.295-0.359C53.21,4.82,53.1,4.687,52.988,4.556
		c-0.104-0.124-0.209-0.246-0.314-0.368c-0.107-0.125-0.218-0.25-0.328-0.374c-0.104-0.118-0.21-0.236-0.316-0.352
		c-0.117-0.129-0.235-0.255-0.354-0.382c-0.078-0.083-0.154-0.168-0.232-0.25h-0.004c-0.03-0.033-0.062-0.066-0.092-0.099
		C47.16,2.47,41.784,2.313,35.917,2.313c-0.789,0-1.57,0.003-2.34,0.009l12.082,38.557h18.092c2.847,0,5.174-2.328,5.174-5.172
		V28.07c0-0.15-0.011-0.301-0.022-0.447C68.913,27.424,68.923,27.225,68.923,27.023z"/>
</g>
</svg>
