<?xml version="1.0" encoding="utf-8"?>
<!-- Generator: Adobe Illustrator 16.0.0, SVG Export Plug-In . SVG Version: 6.00 Build 0)  -->
<!DOCTYPE svg PUBLIC "-//W3C//DTD SVG 1.1//EN" "http://www.w3.org/Graphics/SVG/1.1/DTD/svg11.dtd">
<svg version="1.1" id="Layer_1" xmlns:sketch="http://www.bohemiancoding.com/sketch/ns"
	 xmlns="http://www.w3.org/2000/svg" xmlns:xlink="http://www.w3.org/1999/xlink" x="0px" y="0px" width="780px" height="501px"
	 viewBox="0 0 780 501" enable-background="new 0 0 780 501" xml:space="preserve">
<title>amex-outline</title>
<desc>Created with Sketch.</desc>
<path fill="#27AE60" d="M725,0H55C24.673,0,0,24.673,0,55v391c0,30.327,24.673,55,55,55h670c30.325,0,55-24.673,55-55V55
	C780,24.673,755.325,0,725,0z"/>
<path fill="#2ECC71" d="M698.229,27.005H84.952c-27.76,0-50.344,22.148-50.344,49.373v350.984c0,27.225,22.583,49.372,50.344,49.372
	h613.276c27.759,0,50.344-22.147,50.344-49.372V76.378C748.572,49.153,725.987,27.005,698.229,27.005z"/>
<path fill="#27AE60" d="M591.673,13.533l-388.351,0.003c-34.913,63.643-55.835,144.784-55.835,233.159
	c0,91.338,22.371,174.917,59.418,239.465c19.263-2.016,38.525-5.005,57.788-5.005c68.457-1.912,136.914,0,205.372,3.825
	c37.961,2.838,76.937,0.068,114.919,6.486c38.901-65.242,62.528-150.908,62.528-244.772
	C647.513,158.317,626.588,77.175,591.673,13.533z"/>
<g enable-background="new    ">
	<path fill="#219452" d="M501.068,299.518c0,45.219-35.359,69.019-80.92,73.778v53.38H368.81v-55.419
		c-29.92-5.44-58.819-17.681-80.579-34.68l26.52-53.72c24.48,20.739,64.259,36.38,88.739,36.38c14.96,0,24.479-5.101,24.479-15.98
		c0-36.039-124.438-13.26-124.438-97.238c0-36.72,24.82-62.56,65.279-71.739V80.56h51.339v51.34c30.26,2.72,60.18,12.579,81.6,26.52
		l-26.18,54.399c-24.48-13.94-59.159-26.52-79.219-26.52c-11.9,0-19.72,4.079-19.72,12.919
		C376.629,234.238,501.068,213.498,501.068,299.518z"/>
</g>
<g enable-background="new    ">
	<path fill="#FFFFFF" d="M501.068,290.518c0,45.219-35.359,69.019-80.92,73.778v53.38H368.81v-55.419
		c-29.92-5.44-58.819-17.681-80.579-34.68l26.52-53.72c24.48,20.739,64.259,36.38,88.739,36.38c14.96,0,24.479-5.101,24.479-15.98
		c0-36.039-124.438-13.26-124.438-97.238c0-36.72,24.82-62.56,65.279-71.739V71.56h51.339v51.34c30.26,2.72,60.18,12.579,81.6,26.52
		l-26.18,54.399c-24.48-13.94-59.159-26.52-79.219-26.52c-11.9,0-19.72,4.079-19.72,12.919
		C376.629,225.238,501.068,204.498,501.068,290.518z"/>
</g>
</svg>
