<?xml version="1.0" encoding="utf-8"?>
<!-- Generator: Adobe Illustrator 16.0.0, SVG Export Plug-In . SVG Version: 6.00 Build 0)  -->
<!DOCTYPE svg PUBLIC "-//W3C//DTD SVG 1.1//EN" "http://www.w3.org/Graphics/SVG/1.1/DTD/svg11.dtd">
<svg version="1.1" id="Layer_1" xmlns:sketch="http://www.bohemiancoding.com/sketch/ns"
	 xmlns="http://www.w3.org/2000/svg" xmlns:xlink="http://www.w3.org/1999/xlink" x="0px" y="0px" width="780px" height="501px"
	 viewBox="0 0 780 501" enable-background="new 0 0 780 501" xml:space="preserve">
<title>amex-outline</title>
<desc>Created with Sketch.</desc>
<path fill="#F6A543" d="M725,0H55C24.673,0,0,24.673,0,55v391c0,30.327,24.673,55,55,55h670c30.325,0,55-24.673,55-55V55
	C780,24.673,755.325,0,725,0z"/>
<rect y="48.087" fill="#55595A" width="780" height="94.008"/>
<path fill="#E8F3F7" d="M539.583,250.09c0,6.627-5.373,12-12,12H62.607c-6.627,0-12-5.373-12-12v-61.496c0-6.627,5.373-12,12-12
	h464.976c6.627,0,12,5.373,12,12V250.09z"/>
<path fill="#E2EEF2" d="M728.573,250.09c0,6.627-5.372,12-12,12H589.081c-6.627,0-12-5.373-12-12v-61.496c0-6.627,5.373-12,12-12
	h127.492c6.628,0,12,5.373,12,12V250.09z"/>
<path fill="#535252" d="M728.573,443.58c0,6.627-5.372,12-12,12H395.591c-6.627,0-12-5.373-12-12v-7.498c0-6.627,5.373-12,12-12
	h320.982c6.628,0,12,5.373,12,12V443.58z"/>
<image display="none" overflow="visible" width="1920" height="2160" xlink:href="6E42C29C.jpg"  transform="matrix(0.9237 0 0 0.9237 -363.0127 -1244.9785)">
</image>
<image display="none" overflow="visible" width="1920" height="2160" xlink:href="6E42C29D.jpg"  transform="matrix(1 0 0 1 -607 -831)">
</image>
</svg>
