<?xml version="1.0" encoding="utf-8"?>
<!-- Generator: Adobe Illustrator 16.0.0, SVG Export Plug-In . SVG Version: 6.00 Build 0)  -->
<!DOCTYPE svg PUBLIC "-//W3C//DTD SVG 1.1//EN" "http://www.w3.org/Graphics/SVG/1.1/DTD/svg11.dtd">
<svg version="1.1" xmlns="http://www.w3.org/2000/svg" xmlns:xlink="http://www.w3.org/1999/xlink" x="0px" y="0px" width="65px"
	 height="55px" viewBox="17.5 22.5 65 55" enable-background="new 17.5 22.5 65 55" xml:space="preserve">
<g id="Layer_1">
	<g id="Layer_3">
		<path fill="#FFFFFF" stroke="#BABABA" stroke-miterlimit="10" d="M32,72.7c0,0.829,0.671,1.5,1.5,1.5h43
			c0.829,0,1.5-0.671,1.5-1.5v-42c0-0.829-0.671-1.5-1.5-1.5h-43c-0.829,0-1.5,0.671-1.5,1.5V72.7z"/>
		<path fill="#FFFFFF" d="M32,72.7c0,0.829,0.671,1.5,1.5,1.5h43c0.829,0,1.5-0.671,1.5-1.5v-42c0-0.829-0.671-1.5-1.5-1.5h-43
			c-0.829,0-1.5,0.671-1.5,1.5V72.7z"/>
		<path fill="#F16060" d="M78,43.406V30.7c0-0.829-0.671-1.5-1.5-1.5h-43c-0.829,0-1.5,0.671-1.5,1.5v12.706H78z"/>
		<path fill="#EDEEF2" d="M55,43.406V74.2h21.5c0.829,0,1.5-0.671,1.5-1.5V43.406H55z"/>
		<path fill="#EE5450" d="M76.5,29.2H55v14.206h23V30.7C78,29.872,77.329,29.2,76.5,29.2z"/>
		<rect x="32" y="41.227" opacity="0.1" fill="#273238" enable-background="new    " width="46" height="2.167"/>
		<path fill="#273238" d="M66.5,35.35c0,0.414,0.336,0.75,0.75,0.75h1.969c0.414,0,0.75-0.336,0.75-0.75v-9
			c0-0.414-0.336-0.75-0.75-0.75H67.25c-0.414,0-0.75,0.336-0.75,0.75V35.35z"/>
		<path fill="#3C484E" d="M39.966,35.35c0,0.414,0.336,0.75,0.75,0.75h1.969c0.414,0,0.75-0.336,0.75-0.75v-9
			c0-0.414-0.336-0.75-0.75-0.75h-1.969c-0.414,0-0.75,0.336-0.75,0.75V35.35z"/>
	</g>
	<g id="Layer_4">
		<rect x="37.813" y="56.719" fill="#D0D9DB" width="4.406" height="4.375"/>
		<rect x="37.813" y="66.719" fill="#D0D9DB" width="4.406" height="4.375"/>
		<rect x="47.813" y="46.719" fill="#D0D9DB" width="4.406" height="4.375"/>
		<rect x="47.813" y="56.719" fill="#D0D9DB" width="4.406" height="4.375"/>
		<rect x="47.813" y="66.719" fill="#D0D9DB" width="4.406" height="4.375"/>
		<rect x="57.813" y="46.719" fill="#D0D9DB" width="4.406" height="4.375"/>
		<rect x="57.813" y="56.719" fill="#F1A534" width="4.406" height="4.375"/>
		<rect x="57.813" y="66.719" fill="#D0D9DB" width="4.406" height="4.375"/>
		<rect x="67.813" y="46.719" fill="#D0D9DB" width="4.406" height="4.375"/>
		<rect x="67.813" y="56.719" fill="#D0D9DB" width="4.406" height="4.375"/>
		<rect x="67.813" y="66.719" fill="#D0D9DB" width="4.406" height="4.375"/>
	</g>
</g>
<g id="Layer_2">
	<path fill="#00A65A" stroke="#C6C6C6" stroke-width="5" stroke-miterlimit="10" d="M60.911,40.839l-12.22-11.25
		c-0.772-0.71-2.003-0.627-2.751,0.185L22.833,54.871v13.961h14.886l23.232-25.236C61.701,42.783,61.681,41.549,60.911,40.839z"/>
	<path fill="#00A65A" stroke="#FFFFFF" stroke-width="4" stroke-miterlimit="10" d="M60.911,40.839l-12.22-11.25
		c-0.772-0.71-2.003-0.627-2.751,0.185L22.833,54.871v13.961h14.886l23.232-25.236C61.701,42.783,61.681,41.549,60.911,40.839z"/>
	<path fill="#00A65A" d="M60.911,40.839l-12.22-11.25c-0.772-0.71-2.003-0.627-2.751,0.185L22.833,54.871v13.961h14.886
		l23.232-25.236C61.701,42.783,61.681,41.549,60.911,40.839z"/>
	<circle fill="#FAFAFA" cx="30.122" cy="62.129" r="2.997"/>
	<circle fill="#00A65A" cx="30.121" cy="62.129" r="1.893"/>
	<g>
		<path fill="#FAFAFA" d="M36.333,51.436l0.404,1.063c-0.867,0.286-1.539,0.748-1.912,1.157c-0.485,0.533-0.615,1.052-0.277,1.361
			c1.103,1.003,3.174-2.458,4.983-0.795c0.901,0.82,0.681,2.176-0.403,3.368c-0.774,0.849-1.831,1.356-2.813,1.481l-0.376-1.063
			c0.982-0.124,1.877-0.583,2.403-1.163c0.577-0.634,0.7-1.216,0.311-1.571c-1.125-1.021-3.159,2.471-4.954,0.837
			c-0.865-0.787-0.68-2.077,0.391-3.251C34.73,52.156,35.566,51.656,36.333,51.436z"/>
		<path fill="#FAFAFA" d="M41.449,52.695l0.667,1.554l-0.866,0.952l-2.87-6.982l0.853-0.936l7.199,2.229l-0.886,0.975l-1.611-0.52
			L41.449,52.695z M39.691,48.606l1.311,3.06l1.858-2.039L39.691,48.606z"/>
		<path fill="#FAFAFA" d="M49.283,44.833l0.771,0.701l-2.963,3.254l-5.045-4.594l0.83-0.912l4.274,3.894L49.283,44.833z"/>
		<path fill="#FAFAFA" d="M47.402,39.848l1.362,1.239l2.408-2.645l0.765,0.696l-2.408,2.645l1.391,1.268l2.774-3.047l0.765,0.695
			l-3.606,3.961l-5.044-4.595l3.521-3.868l0.764,0.695L47.402,39.848z"/>
	</g>
</g>
</svg>
