<?xml version="1.0" encoding="utf-8"?>
<!-- Generator: Adobe Illustrator 16.0.0, SVG Export Plug-In . SVG Version: 6.00 Build 0)  -->
<!DOCTYPE svg PUBLIC "-//W3C//DTD SVG 1.1//EN" "http://www.w3.org/Graphics/SVG/1.1/DTD/svg11.dtd">
<svg version="1.1" id="Layer_1" xmlns:sketch="http://www.bohemiancoding.com/sketch/ns"
	 xmlns="http://www.w3.org/2000/svg" xmlns:xlink="http://www.w3.org/1999/xlink" x="0px" y="0px" width="780px" height="501px"
	 viewBox="0 0 780 501" enable-background="new 0 0 780 501" xml:space="preserve">
<title>discover</title>
<desc>Created with Sketch.</desc>
<g id="Page-1" sketch:type="MSPage">
	<g id="discover" sketch:type="MSLayerGroup">
		<path id="rectangle" sketch:type="MSShapeGroup" fill="#EBEDEE" d="M54.992,0C24.626,0,0,24.629,0,55.004v390.992
			C0,476.376,24.619,501,54.992,501h670.016C755.373,501,780,476.371,780,445.996V268.557V55.004C780,24.624,755.381,0,725.008,0
			H54.992L54.992,0z"/>
		<path d="M234.314,202.205c-12.326-4.294-15.945-7.128-15.945-12.482c0-6.243,6.448-10.988,15.301-10.988
			c6.153,0,11.214,2.382,16.564,8.027l10.748-13.248c-8.833-7.273-19.397-10.994-30.943-10.994
			c-18.632,0-32.846,12.185-32.846,28.41c0,13.659,6.619,20.647,25.91,27.186c8.041,2.67,12.133,4.451,14.199,5.646
			c4.104,2.524,6.158,6.094,6.158,10.258c0,8.032-6.784,13.984-15.947,13.984c-9.797,0-17.689-4.612-22.42-13.223l-13.268,12.031
			c9.464,13.076,20.827,18.871,36.457,18.871c21.345,0,36.32-13.359,36.32-32.553C264.604,217.381,257.679,210.249,234.314,202.205z
			"/>
		<path d="M97.564,164.4h-30.15v99.143h29.992c15.948,0,27.465-3.543,37.574-11.445c12.013-9.361,19.117-23.467,19.117-38.057
			C154.098,184.782,130.876,164.4,97.564,164.4z M121.561,238.879c-6.454,5.485-14.836,7.879-28.109,7.879h-5.512v-65.559h5.512
			c13.273,0,21.325,2.238,28.109,8.018c7.104,5.956,11.377,15.183,11.377,24.682C132.938,223.413,128.665,232.923,121.561,238.879z"
			/>
		<rect x="163.549" y="164.4" width="20.541" height="99.143"/>
		<path d="M271.082,213.771c0,29.141,24.304,51.736,55.582,51.736c8.845,0,16.415-1.635,25.756-5.775v-22.764
			c-8.214,7.737-15.488,10.857-24.801,10.857c-20.688,0-35.369-14.121-35.369-34.195c0-19.036,15.15-34.051,34.414-34.051
			c9.801,0,17.212,3.291,25.756,11.154v-22.752c-9.02-4.305-16.431-6.09-25.268-6.09
			C296.033,161.893,271.082,184.945,271.082,213.771z"/>
		<polygon points="575.283,263.543 633.535,263.543 633.535,246.758 595.809,246.758 595.809,219.996 632.145,219.996 
			632.145,203.205 595.809,203.205 595.809,181.199 633.535,181.199 633.535,164.4 575.283,164.4 		"/>
		<path d="M690.875,221.777c15.472-2.965,23.986-12.926,23.986-28.105c0-18.562-13.575-29.271-37.266-29.271h-30.455v99.143h20.516
			v-39.828h2.678l28.43,39.828h25.26L690.875,221.777z M673.658,210.041h-6.002v-30.025h6.326c12.791,0,19.744,5.049,19.744,14.697
			C693.727,204.679,686.774,210.041,673.658,210.041z"/>
		<polygon points="515.283,230.84 487.199,164.248 464.762,164.248 509.449,265.934 520.502,265.934 565.996,164.248 
			543.729,164.248 		"/>
		<path fill="#E67E22" d="M415.131,161.213c-30.94,0-56.021,23.58-56.021,52.709v0.033c0,29.129,25.081,52.742,56.021,52.742
			s56.021-23.613,56.021-52.742v-0.033C471.152,184.793,446.071,161.213,415.131,161.213z"/>
		<path id="Shape-9" sketch:type="MSShapeGroup" fill="#E67E22" d="M779.982,288.361c-26.051,18.33-221.077,149.339-558.754,212.623
			H724.99c30.365,0,54.992-24.63,54.992-55.004V288.361L779.982,288.361z"/>
	</g>
</g>
</svg>
