<?xml version="1.0" encoding="utf-8"?>
<!-- Generator: Adobe Illustrator 16.0.0, SVG Export Plug-In . SVG Version: 6.00 Build 0)  -->
<!DOCTYPE svg PUBLIC "-//W3C//DTD SVG 1.1//EN" "http://www.w3.org/Graphics/SVG/1.1/DTD/svg11.dtd">
<svg version="1.1" id="Layer_1" xmlns="http://www.w3.org/2000/svg" xmlns:xlink="http://www.w3.org/1999/xlink" x="0px" y="0px"
	 width="25px" height="25px" viewBox="0 0 25 25" enable-background="new 0 0 25 25" xml:space="preserve">
<path fill="#0293B8" d="M1.152,22.845c0,0.564,0.459,1.024,1.025,1.024h20.498c0.564,0,1.025-0.46,1.025-1.024V2.425
	c0-0.566-0.461-1.024-1.025-1.024H2.178c-0.566,0-1.025,0.458-1.025,1.024v14.913V22.845z"/>
<path fill="#026A83" d="M16.902,3.312h-6.124c-0.169,0-0.306,0.087-0.306,0.197v3.937c0,0.11,0.137,0.198,0.306,0.198h2.204
	l0.859,0.845l0.902-0.845h2.158c0.17,0,0.307-0.088,0.307-0.198V3.509C17.209,3.398,17.072,3.312,16.902,3.312z"/>
<rect x="7.408" y="1.4" opacity="0.4" fill="#026A83" width="0.405" height="22.469"/>
<rect x="17.4" y="1.4" opacity="0.4" fill="#026A83" width="0.406" height="22.469"/>
<path opacity="0.2" fill="#FFFFFF" d="M18.148,16.057l-4.307-4.187l-6.156,6.236L5.124,15.63l-3.972,3.928v3.287
	c0,0.564,0.459,1.024,1.025,1.024h20.498c0.564,0,1.025-0.46,1.025-1.024v-10.85h-1.746L18.148,16.057z"/>
<polygon opacity="0.7" fill="#026A83" points="21.309,11.743 18.105,14.903 13.842,10.676 7.558,16.826 5.124,14.434 1.152,18.363 
	1.152,20.328 5.124,16.398 7.686,18.875 13.842,12.641 18.148,16.826 21.955,12.765 23.701,12.765 23.701,11.739 "/>
<polygon fill="#FFFFFF" points="21.309,10.976 18.105,14.136 13.842,9.907 7.558,16.057 5.124,13.664 1.152,17.595 1.152,19.558 
	5.124,15.63 7.686,18.106 13.842,11.87 18.148,16.057 21.955,11.995 23.701,11.995 23.701,10.971 "/>
<circle opacity="0.2" cx="13.601" cy="11.614" r="1.794"/>
<circle fill="#F1A534" cx="13.857" cy="11.358" r="1.793"/>
<g>
	<rect x="12.191" y="4.441" fill="none" width="11.657" height="6.726"/>
	<path fill="#F1F2F2" d="M13.078,6.343h-0.564l0.615-1.382H12.74v0.251h-0.469V4.546h1.446v0.361L13.078,6.343z"/>
	<path fill="#F1F2F2" d="M14.661,5.584V5.223h0.495v0.361h0.236v0.393h-0.236v0.366h-0.495V5.977h-0.849V5.622l0.543-1.076h0.511
		l-0.511,1.038H14.661z"/>
</g>
<g>
</g>
<g>
</g>
<g>
</g>
<g>
</g>
<g>
</g>
<g>
</g>
</svg>
