<?xml version="1.0" encoding="utf-8"?>
<!-- Generator: Adobe Illustrator 16.0.0, SVG Export Plug-In . SVG Version: 6.00 Build 0)  -->
<!DOCTYPE svg PUBLIC "-//W3C//DTD SVG 1.1//EN" "http://www.w3.org/Graphics/SVG/1.1/DTD/svg11.dtd">
<svg version="1.1" id="Layer_1" xmlns="http://www.w3.org/2000/svg" xmlns:xlink="http://www.w3.org/1999/xlink" x="0px" y="0px"
	 width="17px" height="47px" viewBox="74 59 17 47" enable-background="new 74 59 17 47" xml:space="preserve">
<path display="none" fill="#4C4B4A" d="M84.647,65.092c0.02,0.098,0.029,0.199,0.029,0.303c0-0.865-0.701-1.566-1.566-1.566
	c-0.864,0-1.564,0.701-1.564,1.566c0-0.087,0.012-0.17,0.023-0.254l-6.79,32.35c0,4.602,3.731,8.334,8.334,8.334
	c4.603,0,8.334-3.732,8.334-8.334L84.647,65.092z"/>
<path display="none" fill="#4C4B4A" d="M85.181,64.479c0-0.019,0.006-0.036,0.006-0.055c0-1.519-1.23-2.749-2.749-2.749
	s-2.749,1.23-2.749,2.749c0-0.062,0.014-0.12,0.018-0.18L74.32,97.589c0,4.511,3.656,8.166,8.167,8.166
	c4.512,0,8.167-3.655,8.167-8.166L85.181,64.479z M82.438,67.173c0.188,0,0.372-0.02,0.55-0.056
	C82.81,67.153,82.626,67.173,82.438,67.173z M84.351,66.394c0.004-0.003,0.007-0.005,0.011-0.008
	C84.357,66.387,84.354,66.391,84.351,66.394z M83.239,67.041c0.087-0.027,0.178-0.046,0.26-0.081
	C83.417,66.995,83.326,67.014,83.239,67.041z M83.847,66.772c0.037-0.021,0.076-0.037,0.111-0.061
	C83.925,66.735,83.884,66.751,83.847,66.772z"/>
<path display="none" fill="#4C4B4A" d="M84.021,60.755c0.02,0.108,0.029,0.22,0.029,0.334c0-0.957-0.701-1.732-1.566-1.732
	c-0.864,0-1.564,0.776-1.564,1.732c0-0.096,0.012-0.188,0.023-0.281l-6.79,35.794c0,5.092,3.731,9.222,8.334,9.222
	c4.603,0,8.334-4.13,8.334-9.222L84.021,60.755z"/>
<path display="none" fill="#4C4B4A" d="M84.021,58.25c0.02,0.114,0.029,0.232,0.029,0.353c0-1.01-0.701-1.829-1.566-1.829
	c-0.864,0-1.564,0.819-1.564,1.829c0-0.101,0.012-0.199,0.023-0.296l-6.79,37.783c0,5.375,3.731,9.734,8.334,9.734
	c4.603,0,8.334-4.359,8.334-9.734L84.021,58.25z"/>
<path fill="#4C4B4A" d="M84.021,60.755c0.02,0.108,0.029,0.22,0.029,0.334c0-0.957-0.701-1.732-1.566-1.732
	c-0.864,0-1.564,0.776-1.564,1.732c0-0.096,0.012-0.188,0.023-0.281l-6.79,35.794c0,5.092,3.731,9.222,8.334,9.222
	c4.603,0,8.334-4.13,8.334-9.222L84.021,60.755z"/>
</svg>
