<?xml version="1.0" encoding="utf-8"?>
<!-- Generator: Adobe Illustrator 16.0.0, SVG Export Plug-In . SVG Version: 6.00 Build 0)  -->
<!DOCTYPE svg PUBLIC "-//W3C//DTD SVG 1.1//EN" "http://www.w3.org/Graphics/SVG/1.1/DTD/svg11.dtd">
<svg version="1.1" id="Layer_2" xmlns="http://www.w3.org/2000/svg" xmlns:xlink="http://www.w3.org/1999/xlink" x="0px" y="0px"
	 width="25px" height="25px" viewBox="0 0 25 25" enable-background="new 0 0 25 25" xml:space="preserve">
<path fill="#009147" d="M24.734,18.453c0,0.504-0.41,0.912-0.914,0.912H1.414c-0.504,0-0.913-0.408-0.913-0.912V10.92
	c0-0.504,0.409-0.913,0.913-0.913H23.82c0.504,0,0.914,0.409,0.914,0.913V18.453z"/>
<path fill="#00A659" d="M24.734,17.158c0,0.506-0.41,0.914-0.914,0.914H1.414c-0.504,0-0.913-0.408-0.913-0.914V9.627
	c0-0.505,0.409-0.913,0.913-0.913H23.82c0.504,0,0.914,0.408,0.914,0.913V17.158z"/>
<path fill="#009147" d="M24.734,16.018c0,0.504-0.41,0.912-0.914,0.912H1.414c-0.504,0-0.913-0.408-0.913-0.912V8.485
	c0-0.504,0.409-0.912,0.913-0.912H23.82c0.504,0,0.914,0.408,0.914,0.912V16.018z"/>
<path fill="#00A659" d="M24.734,14.725c0,0.505-0.41,0.913-0.914,0.913H1.414c-0.504,0-0.913-0.408-0.913-0.913V7.192
	c0-0.504,0.409-0.913,0.913-0.913H23.82c0.504,0,0.914,0.409,0.914,0.913V14.725z"/>
<path fill="#009147" d="M24.734,13.508c0,0.504-0.41,0.913-0.914,0.913H1.414c-0.504,0-0.913-0.409-0.913-0.913V5.975
	c0-0.504,0.409-0.913,0.913-0.913H23.82c0.504,0,0.914,0.409,0.914,0.913V13.508z"/>
<path fill="#00A659" d="M24.734,12.214c0,0.504-0.41,0.913-0.914,0.913H1.414c-0.504,0-0.913-0.409-0.913-0.913V4.682
	c0-0.505,0.409-0.913,0.913-0.913H23.82c0.504,0,0.914,0.408,0.914,0.913V12.214z"/>
<path fill="#009147" d="M24.734,10.996c0,0.505-0.41,0.913-0.914,0.913H1.414c-0.504,0-0.913-0.408-0.913-0.913V3.464
	c0-0.504,0.409-0.913,0.913-0.913H23.82c0.504,0,0.914,0.409,0.914,0.913V10.996z"/>
<path opacity="0.3" fill="#206D58" d="M23.82,1.258h-0.342v18.107h0.342c0.504,0,0.914-0.406,0.914-0.906V2.164
	C24.734,1.663,24.324,1.258,23.82,1.258z"/>
<path fill="#00A659" d="M24.734,9.703c0,0.504-0.41,0.913-0.914,0.913H1.414c-0.504,0-0.913-0.409-0.913-0.913V2.171
	c0-0.505,0.409-0.913,0.913-0.913H23.82c0.504,0,0.914,0.408,0.914,0.913V9.703z"/>
<g>
	<path fill="#009147" d="M8.794,5.962c0-1.448,0.73-2.727,1.841-3.486H2.821c-0.504,0-0.913,0.408-0.913,0.912v5.021
		c0,0.505,0.409,0.913,0.913,0.913h7.639C9.448,8.552,8.794,7.333,8.794,5.962z"/>
	<path fill="#009147" d="M22.338,2.476h-6.939c1.111,0.76,1.84,2.038,1.84,3.486c0,1.371-0.652,2.59-1.666,3.36h6.766
		c0.504,0,0.912-0.408,0.912-0.913V3.388C23.25,2.884,22.842,2.476,22.338,2.476z"/>
</g>
<ellipse fill="#E2AC25" cx="7.906" cy="22.529" rx="4.21" ry="2.213"/>
<rect x="3.696" y="15.283" fill="#E2AC25" width="8.42" height="7.246"/>
<ellipse fill="#FFD33F" cx="7.906" cy="15.454" rx="4.21" ry="2.212"/>
<path fill="#FFD33F" d="M7.906,18.732c-2.216,0-4.03-0.9-4.196-2.043v1.33c0.598,0.99,2.24,1.701,4.175,1.701
	c1.981,0,3.658-0.746,4.218-1.773v-1.258C11.936,17.832,10.122,18.732,7.906,18.732z"/>
<path fill="#FFD33F" d="M7.906,20.785c-2.216,0-4.03-0.898-4.196-2.041v1.33c0.598,0.99,2.24,1.701,4.175,1.701
	c1.981,0,3.658-0.746,4.218-1.773v-1.258C11.936,19.887,10.122,20.785,7.906,20.785z"/>
<path fill="#FFD33F" d="M7.906,22.764c-2.216,0-4.03-0.898-4.196-2.041v1.33c0.598,0.988,2.24,1.701,4.175,1.701
	c1.981,0,3.658-0.746,4.218-1.775v-1.256C11.936,21.865,10.122,22.764,7.906,22.764z"/>
<ellipse fill="#E0AC26" cx="7.884" cy="15.417" rx="3.123" ry="1.642"/>
<ellipse fill="#FED13B" cx="7.875" cy="15.396" rx="2.872" ry="1.434"/>
<path fill="#E2AC25" d="M12.827,20.582v0.883c0,1.221,1.884,2.213,4.21,2.213c2.324,0,4.209-0.992,4.209-2.213v-0.883H12.827z"/>
<ellipse fill="#FFD33F" cx="17.036" cy="20.475" rx="4.21" ry="2.213"/>
<ellipse fill="#E0AC26" cx="17.014" cy="20.438" rx="3.123" ry="1.643"/>
<ellipse fill="#FED13B" cx="17.004" cy="20.418" rx="2.873" ry="1.434"/>
</svg>
