<?xml version="1.0" encoding="utf-8"?>
<!-- Generator: Adobe Illustrator 16.0.0, SVG Export Plug-In . SVG Version: 6.00 Build 0)  -->
<!DOCTYPE svg PUBLIC "-//W3C//DTD SVG 1.1//EN" "http://www.w3.org/Graphics/SVG/1.1/DTD/svg11.dtd">
<svg version="1.1" id="Layer_1" xmlns="http://www.w3.org/2000/svg" xmlns:xlink="http://www.w3.org/1999/xlink" x="0px" y="0px"
	 width="47px" height="55px" viewBox="26.5 22.5 47 55" enable-background="new 26.5 22.5 47 55" xml:space="preserve">
<g id="Layer_5">
	<g id="XMLID_309_">
		<g id="XMLID_311_">
			<g id="XMLID_312_">
				<polygon id="XMLID_333_" fill="none" stroke="#FFE478" stroke-width="4" stroke-miterlimit="10" points="70.896,44.434 
					61.209,49.276 61.209,28.288 70.896,28.288 				"/>
			</g>
			<polygon id="XMLID_36_" fill="none" stroke="#FEEA99" stroke-width="4" stroke-miterlimit="10" points="29.303,44.434 
				38.991,49.276 38.991,28.288 29.303,28.288 			"/>
		</g>
		<polygon id="XMLID_334_" fill="#FEDA46" points="66.125,22.89 34.073,22.89 34.073,50.447 46.236,57.47 46.236,73.495 
			53.963,73.495 53.963,57.47 66.125,50.447 		"/>
		<polygon id="XMLID_337_" fill="#FFCE04" points="50.099,22.89 50.099,73.495 53.963,73.495 53.963,57.47 66.125,50.447 
			66.125,22.89 		"/>
		<polygon id="XMLID_338_" fill="#ECB61E" points="59.639,70.266 59.639,64.356 40.562,64.356 40.562,70.266 32.13,70.266 
			32.13,77.11 68.07,77.11 68.07,70.266 		"/>
		<polygon id="XMLID_340_" display="none" fill="#FBAF27" points="59.639,70.266 59.639,64.356 50.099,64.356 50.099,77.11 
			68.07,77.11 68.07,70.266 		"/>
	</g>
	<polygon fill="#FFFFFF" points="50.414,29.27 53.461,35.444 60.277,36.436 55.344,41.242 56.508,48.029 50.414,44.824 
		44.317,48.029 45.482,41.242 40.55,36.436 47.364,35.444 	"/>
</g>
</svg>
