<?xml version="1.0" encoding="utf-8"?>
<!-- Generator: Adobe Illustrator 16.0.0, SVG Export Plug-In . SVG Version: 6.00 Build 0)  -->
<!DOCTYPE svg PUBLIC "-//W3C//DTD SVG 1.1//EN" "http://www.w3.org/Graphics/SVG/1.1/DTD/svg11.dtd">
<svg version="1.1" id="Layer_1" xmlns="http://www.w3.org/2000/svg" xmlns:xlink="http://www.w3.org/1999/xlink" x="0px" y="0px"
	 width="47px" height="55px" viewBox="0 0 47 55" enable-background="new 0 0 47 55" xml:space="preserve">
<g id="Layer_5">
	<g id="XMLID_309_">
		<g id="XMLID_311_">
			<polygon id="XMLID_333_" fill="none" stroke="#ECB61E" stroke-width="4" stroke-miterlimit="10" points="44.594,22.324 
				34.906,27.166 34.906,6.179 44.594,6.179 			"/>
			<polygon id="XMLID_36_" fill="none" stroke="#ECB61E" stroke-width="4" stroke-miterlimit="10" points="3,22.324 12.688,27.166 
				12.688,6.179 3,6.179 			"/>
		</g>
		<polygon id="XMLID_334_" fill="#FEDA46" points="39.822,0.781 7.771,0.781 7.771,28.338 19.934,35.361 19.934,51.386 
			27.66,51.386 27.66,35.361 39.822,28.338 		"/>
		<polygon id="XMLID_337_" fill="#FFCE04" points="23.797,0.781 23.797,51.386 27.66,51.386 27.66,35.361 39.822,28.338 
			39.822,0.781 		"/>
		<polygon id="XMLID_338_" fill="#ECB61E" points="33.336,48.156 33.336,42.246 14.26,42.246 14.26,48.156 5.827,48.156 5.827,55 
			41.768,55 41.768,48.156 		"/>
	</g>
	<polygon fill="#FFFFFF" points="24.111,7.16 27.158,13.334 33.975,14.326 29.041,19.133 30.205,25.92 24.111,22.715 18.014,25.92 
		19.18,19.133 14.247,14.326 21.061,13.334 	"/>
</g>
</svg>
