<?xml version="1.0" encoding="utf-8"?>
<!-- Generator: Adobe Illustrator 16.0.0, SVG Export Plug-In . SVG Version: 6.00 Build 0)  -->
<!DOCTYPE svg PUBLIC "-//W3C//DTD SVG 1.1//EN" "http://www.w3.org/Graphics/SVG/1.1/DTD/svg11.dtd">
<svg version="1.1" id="Layer_1" xmlns="http://www.w3.org/2000/svg" xmlns:xlink="http://www.w3.org/1999/xlink" x="0px" y="0px"
	 width="100px" height="100px" viewBox="0 0 100 100" enable-background="new 0 0 100 100" xml:space="preserve">
<g id="Layer_10">
	<circle fill="#7A9397" cx="50.5" cy="51" r="47.5"/>
	<path fill="#627679" enable-background="new    " d="M97.104,60.186L75.159,27.259L43.368,48.447L54.15,64.625L34.317,77.843
		l13.726,20.595c0.814,0.041,1.633,0.063,2.458,0.063C73.59,98.5,92.825,82.021,97.104,60.186z"/>
</g>
<g id="Layer_5">
	<g id="XMLID_309_">
		<g id="XMLID_311_">
			<g id="XMLID_312_">
				<polygon id="XMLID_333_" fill="none" stroke="#FFE478" stroke-width="4" stroke-miterlimit="10" points="73.432,45.659 
					63.745,50.502 63.745,29.513 73.432,29.513 				"/>
			</g>
			<polygon id="XMLID_36_" fill="none" stroke="#FEEA99" stroke-width="4" stroke-miterlimit="10" points="31.839,45.659 
				41.527,50.502 41.527,29.513 31.839,29.513 			"/>
		</g>
		<polygon id="XMLID_334_" fill="#FEDA46" points="68.661,24.115 36.609,24.115 36.609,51.673 48.772,58.695 48.772,74.721 
			56.499,74.721 56.499,58.695 68.661,51.673 		"/>
		<polygon id="XMLID_337_" fill="#FFCE04" points="52.635,24.115 52.635,74.721 56.499,74.721 56.499,58.695 68.661,51.673 
			68.661,24.115 		"/>
		<polygon id="XMLID_338_" fill="#ECB61E" points="62.174,71.491 62.174,65.582 43.097,65.582 43.097,71.491 34.666,71.491 
			34.666,78.336 70.605,78.336 70.605,71.491 		"/>
		<polygon id="XMLID_340_" display="none" fill="#FBAF27" points="62.174,71.491 62.174,65.582 52.635,65.582 52.635,78.336 
			70.605,78.336 70.605,71.491 		"/>
	</g>
	<polygon fill="#FFFFFF" points="52.949,30.495 55.997,36.67 62.813,37.661 57.88,42.468 59.044,49.255 52.949,46.05 46.853,49.255 
		48.018,42.468 43.086,37.661 49.9,36.67 	"/>
</g>
</svg>
