<?xml version="1.0" encoding="utf-8"?>
<!-- Generator: Adobe Illustrator 16.0.0, SVG Export Plug-In . SVG Version: 6.00 Build 0)  -->
<!DOCTYPE svg PUBLIC "-//W3C//DTD SVG 1.1//EN" "http://www.w3.org/Graphics/SVG/1.1/DTD/svg11.dtd">
<svg version="1.1" id="Layer_1" xmlns="http://www.w3.org/2000/svg" xmlns:xlink="http://www.w3.org/1999/xlink" x="0px" y="0px"
	 width="550.356px" height="75px" viewBox="0 0 550.356 75" enable-background="new 0 0 550.356 75" xml:space="preserve">
<line fill="none" stroke="#C6C8D2" stroke-miterlimit="10" x1="327.809" y1="75.531" x2="405.162" y2="-1.821"/>
<line fill="none" stroke="#C6C8D2" stroke-miterlimit="10" x1="385.497" y1="75.531" x2="462.848" y2="-1.821"/>
<line fill="none" stroke="#C6C8D2" stroke-miterlimit="10" x1="356.652" y1="75.531" x2="434.005" y2="-1.821"/>
<line fill="none" stroke="#C6C8D2" stroke-miterlimit="10" x1="414.34" y1="75.531" x2="491.691" y2="-1.821"/>
<line fill="none" stroke="#C6C8D2" stroke-miterlimit="10" x1="212.436" y1="75.531" x2="289.789" y2="-1.821"/>
<line fill="none" stroke="#C6C8D2" stroke-miterlimit="10" x1="270.123" y1="75.531" x2="347.475" y2="-1.821"/>
<line fill="none" stroke="#C6C8D2" stroke-miterlimit="10" x1="241.279" y1="75.531" x2="318.632" y2="-1.821"/>
<line fill="none" stroke="#C6C8D2" stroke-miterlimit="10" x1="298.966" y1="75.531" x2="376.318" y2="-1.821"/>
<line fill="none" stroke="#C6C8D2" stroke-miterlimit="10" x1="443.184" y1="75.531" x2="520.534" y2="-1.821"/>
<path fill="none" stroke="#C6C8D2" stroke-miterlimit="10" d="M500.87,75.531C516,59,532,43,548.745,27.657"/>
<line fill="none" stroke="#C6C8D2" stroke-miterlimit="10" x1="472.026" y1="75.531" x2="549.379" y2="-1.821"/>
<path fill="none" stroke="#C6C8D2" stroke-miterlimit="10" d="M529.713,75.531c6.881-6.881,13.762-13.762,20.643-20.644"/>
<line fill="none" stroke="#C6C8D2" stroke-miterlimit="10" x1="-47.154" y1="75.531" x2="30.199" y2="-1.821"/>
<line fill="none" stroke="#C6C8D2" stroke-miterlimit="10" x1="97.063" y1="75.531" x2="174.415" y2="-1.821"/>
<line fill="none" stroke="#C6C8D2" stroke-miterlimit="10" x1="154.75" y1="75.531" x2="232.102" y2="-1.821"/>
<line fill="none" stroke="#C6C8D2" stroke-miterlimit="10" x1="125.906" y1="75.531" x2="203.258" y2="-1.821"/>
<line fill="none" stroke="#C6C8D2" stroke-miterlimit="10" x1="183.593" y1="75.531" x2="260.945" y2="-1.821"/>
<line fill="none" stroke="#C6C8D2" stroke-miterlimit="10" x1="-18.311" y1="75.531" x2="59.042" y2="-1.821"/>
<line fill="none" stroke="#C6C8D2" stroke-miterlimit="10" x1="39.376" y1="75.531" x2="116.729" y2="-1.821"/>
<line fill="none" stroke="#C6C8D2" stroke-miterlimit="10" x1="10.533" y1="75.531" x2="87.885" y2="-1.821"/>
<line fill="none" stroke="#C6C8D2" stroke-miterlimit="10" x1="68.22" y1="75.531" x2="145.572" y2="-1.821"/>
<g>
	<rect x="-25" y="26" fill="none" width="1100" height="79.87"/>
	<path fill="#535B5F" d="M58.819,31.55V48.26h-5.34V31.55h-6.27v-4.32h17.939v4.32H58.819z"/>
	<path fill="#535B5F" d="M87.679,37.73c0,6.12-4.86,10.77-11.37,10.77c-6.48,0-11.339-4.62-11.339-10.77
		c0-6.12,4.859-10.649,11.339-10.649C82.819,27.081,87.679,31.641,87.679,37.73z M70.429,37.76c0,3.54,2.73,6.269,5.94,6.269
		c3.24,0,5.82-2.729,5.82-6.269c0-3.54-2.58-6.21-5.82-6.21C73.129,31.55,70.429,34.22,70.429,37.76z"/>
	<path fill="#535B5F" d="M99.529,31.55V48.26h-5.34V31.55h-6.27v-4.32h17.939v4.32H99.529z"/>
	<path fill="#535B5F" d="M110.659,44.391l-1.53,3.869h-5.49l9.06-20.999h5.49l8.85,20.999h-5.7l-1.5-3.869H110.659z M115.279,32.57
		l-3.06,7.77h6.06L115.279,32.57z"/>
	<path fill="#535B5F" d="M143.238,43.79v4.47h-14.249V27.261h5.34V43.79H143.238z"/>
	<path fill="#535B5F" d="M162.138,29.36l-2.01,4.17c-2.22-1.29-5.01-2.19-6.72-2.19c-1.38,0-2.31,0.51-2.31,1.53
		c0,3.629,11.1,1.56,11.1,9.149c0,4.2-3.72,6.42-8.4,6.42c-3.51,0-7.109-1.32-9.6-3.359l2.07-4.109
		c2.16,1.889,5.399,3.149,7.589,3.149c1.68,0,2.73-0.63,2.73-1.83c0-3.72-11.1-1.5-11.1-8.939c0-3.87,3.33-6.33,8.37-6.33
		C156.889,27.021,159.979,27.951,162.138,29.36z"/>
</g>
<g>
</g>
<g>
</g>
<g>
</g>
<g>
</g>
<g>
</g>
<g>
</g>
</svg>
