<?xml version="1.0" encoding="utf-8"?>
<!-- Generator: Adobe Illustrator 16.0.0, SVG Export Plug-In . SVG Version: 6.00 Build 0)  -->
<!DOCTYPE svg PUBLIC "-//W3C//DTD SVG 1.1//EN" "http://www.w3.org/Graphics/SVG/1.1/DTD/svg11.dtd">
<svg version="1.1" id="Layer_1" xmlns="http://www.w3.org/2000/svg" xmlns:xlink="http://www.w3.org/1999/xlink" x="0px" y="0px"
	 width="70px" height="85px" viewBox="0 0 70 85" enable-background="new 0 0 70 85" xml:space="preserve">
<g id="Layer_2">
	
		<image display="none" overflow="visible" enable-background="new    " width="1920" height="2160" xlink:href="D49F03C.jpg"  transform="matrix(1 0 0 1 -913 -932.5)">
	</image>
	<circle fill="#222D32" cx="35.162" cy="43.241" r="32.521"/>
	<circle fill="#FFFFFF" cx="35.075" cy="43.241" r="27.444"/>
	<path fill="#E5E5E5" d="M62.385,40.525L35.143,19.849v22.77l0.238,0.252l-0.238,0.227v0.012H35.13L19.762,57.727l17.003,12.904
		C51.135,69.758,62.52,57.83,62.52,43.241C62.52,42.325,62.473,41.419,62.385,40.525z"/>
	<path fill="#B3B3B3" d="M37.395,33.271c0,4.4-0.453,8-1.006,8c-0.555,0-1.008-3.6-1.008-8v-3.696c0-4.4,0.453-8,1.008-8
		c0.553,0,1.006,3.6,1.006,8V33.271z"/>
	<path fill="#222D32" d="M36.082,31.346c0,4.4-0.453,8-1.006,8c-0.554,0-1.007-3.6-1.007-8V27.65c0-4.4,0.453-8,1.007-8
		c0.553,0,1.006,3.6,1.006,8V31.346z"/>
	<path fill="#BABABA" d="M60.154,44.116c0-0.554-3.6-1.007-8-1.007h-4.659c-4.399,0-8,0.453-8,1.007s3.601,1.007,8,1.007h4.659
		C56.555,45.123,60.154,44.67,60.154,44.116z"/>
	<circle fill="#B7B7B8" cx="35.557" cy="43.854" r="5.164"/>
	<path fill="#B7B7B8" d="M27.972,54.613c-3.164,3.058-6.256,5.039-6.871,4.402c-0.615-0.638,1.47-3.66,4.634-6.717l0.722-0.697
		c3.164-3.059,6.256-5.039,6.871-4.402c0.615,0.637-1.471,3.658-4.634,6.716L27.972,54.613z"/>
	<path fill="#222D32" d="M26.659,53.914c-3.164,3.059-6.256,5.039-6.871,4.402c-0.615-0.637,1.471-3.659,4.634-6.717l0.723-0.697
		c3.164-3.059,6.255-5.039,6.871-4.402c0.615,0.637-1.471,3.659-4.635,6.717L26.659,53.914z"/>
	<path fill="#0093B7" d="M59.805,43.154c0-0.554-3.6-1.007-8-1.007h-4.658c-4.4,0-8,0.453-8,1.007c0,0.554,3.6,1.007,8,1.007h4.658
		C56.205,44.161,59.805,43.708,59.805,43.154z"/>
	<circle fill="#FFFFFF" cx="34.943" cy="43.154" r="5.165"/>
	<circle fill="#0093B7" cx="35.142" cy="43.13" r="3.438"/>
</g>
</svg>
