<?xml version="1.0" encoding="utf-8"?>
<!-- Generator: Adobe Illustrator 16.0.0, SVG Export Plug-In . SVG Version: 6.00 Build 0)  -->
<!DOCTYPE svg PUBLIC "-//W3C//DTD SVG 1.1//EN" "http://www.w3.org/Graphics/SVG/1.1/DTD/svg11.dtd">
<svg version="1.1" id="Layer_1" xmlns="http://www.w3.org/2000/svg" xmlns:xlink="http://www.w3.org/1999/xlink" x="0px" y="0px"
	 width="70px" height="85px" viewBox="0 0 70 85" enable-background="new 0 0 70 85" xml:space="preserve">
<g id="Layer_4">
	<path fill="#A6A69E" d="M59.895,26.215h-7.203H21.005h-8.099v0.173l4.454,44.086v0.688c0,2.004,1.641,3.645,3.645,3.645h31.687
		c2.006,0,3.646-1.641,3.646-3.645v-0.696L59.895,26.215z"/>
	<g>
		<path fill="#74746D" d="M26.776,61.747c0,4.399-1.07,8-2.379,8s-2.379-3.601-2.379-8V39.074c0-4.4,1.07-8,2.379-8
			s2.379,3.6,2.379,8V61.747z"/>
	</g>
	<g>
		<path fill="#74746D" d="M38.924,61.747c0,4.399-1.07,8-2.379,8c-1.309,0-2.379-3.601-2.379-8V39.074c0-4.4,1.071-8,2.379-8
			c1.309,0,2.379,3.6,2.379,8V61.747z"/>
	</g>
	<g>
		<path fill="#74746D" d="M51.072,61.747c0,4.399-1.071,8-2.379,8c-1.31,0-2.379-3.601-2.379-8V39.074c0-4.4,1.07-8,2.379-8
			c1.308,0,2.379,3.6,2.379,8V61.747z"/>
	</g>
	<polygon opacity="0.2" fill="#74746D" enable-background="new    " points="21.005,26.215 12.939,26.215 57.834,51.838 
		59.895,26.215 52.691,26.215 	"/>
	<path fill="#A6A69E" d="M47.488,14.673c-0.248-1.767-1.771-3.138-3.604-3.138H29.206c-1.833,0-3.356,1.372-3.605,3.138h-0.04v0.507
		v0.911v3.645h3.645h1.214v-3.342h12.047v3.342h1.417h3.644v-3.645V15.18v-0.507H47.488z"/>
	<rect x="9.667" y="18.925" fill="#C0C1BB" width="53.655" height="7.29"/>
	<polygon fill="#A6A69E" points="60.506,26.215 63.322,26.215 63.322,18.925 47.813,18.925 	"/>
</g>
</svg>
