<?xml version="1.0" encoding="utf-8"?>
<!-- Generator: Adobe Illustrator 16.0.0, SVG Export Plug-In . SVG Version: 6.00 Build 0)  -->
<!DOCTYPE svg PUBLIC "-//W3C//DTD SVG 1.1//EN" "http://www.w3.org/Graphics/SVG/1.1/DTD/svg11.dtd">
<svg version="1.1" id="Layer_1" xmlns="http://www.w3.org/2000/svg" xmlns:xlink="http://www.w3.org/1999/xlink" x="0px" y="0px"
	 width="1100px" height="75px" viewBox="0 0 1100 75" enable-background="new 0 0 1100 75" xml:space="preserve">
<line fill="none" stroke="#C6C8D2" stroke-miterlimit="10" x1="327.809" y1="75.531" x2="405.162" y2="-1.821"/>
<line fill="none" stroke="#C6C8D2" stroke-miterlimit="10" x1="385.497" y1="75.531" x2="462.848" y2="-1.821"/>
<line fill="none" stroke="#C6C8D2" stroke-miterlimit="10" x1="356.652" y1="75.531" x2="434.005" y2="-1.821"/>
<line fill="none" stroke="#C6C8D2" stroke-miterlimit="10" x1="414.34" y1="75.531" x2="491.691" y2="-1.821"/>
<line fill="none" stroke="#C6C8D2" stroke-miterlimit="10" x1="212.436" y1="75.531" x2="289.789" y2="-1.821"/>
<line fill="none" stroke="#C6C8D2" stroke-miterlimit="10" x1="270.123" y1="75.531" x2="347.475" y2="-1.821"/>
<line fill="none" stroke="#C6C8D2" stroke-miterlimit="10" x1="241.279" y1="75.531" x2="318.632" y2="-1.821"/>
<line fill="none" stroke="#C6C8D2" stroke-miterlimit="10" x1="298.966" y1="75.531" x2="376.318" y2="-1.821"/>
<line fill="none" stroke="#C6C8D2" stroke-miterlimit="10" x1="558.557" y1="75.531" x2="635.909" y2="-1.821"/>
<line fill="none" stroke="#C6C8D2" stroke-miterlimit="10" x1="616.242" y1="75.531" x2="693.596" y2="-1.821"/>
<line fill="none" stroke="#C6C8D2" stroke-miterlimit="10" x1="587.399" y1="75.531" x2="664.752" y2="-1.821"/>
<line fill="none" stroke="#C6C8D2" stroke-miterlimit="10" x1="645.086" y1="75.531" x2="722.438" y2="-1.821"/>
<line fill="none" stroke="#C6C8D2" stroke-miterlimit="10" x1="443.184" y1="75.531" x2="520.534" y2="-1.821"/>
<line fill="none" stroke="#C6C8D2" stroke-miterlimit="10" x1="500.87" y1="75.531" x2="578.223" y2="-1.821"/>
<line fill="none" stroke="#C6C8D2" stroke-miterlimit="10" x1="472.026" y1="75.531" x2="549.379" y2="-1.821"/>
<line fill="none" stroke="#C6C8D2" stroke-miterlimit="10" x1="529.713" y1="75.531" x2="607.065" y2="-1.821"/>
<line fill="none" stroke="#C6C8D2" stroke-miterlimit="10" x1="-133.684" y1="75.531" x2="-56.332" y2="-1.821"/>
<line fill="none" stroke="#C6C8D2" stroke-miterlimit="10" x1="-75.997" y1="75.531" x2="1.354" y2="-1.821"/>
<line fill="none" stroke="#C6C8D2" stroke-miterlimit="10" x1="-104.84" y1="75.531" x2="-27.488" y2="-1.821"/>
<line fill="none" stroke="#C6C8D2" stroke-miterlimit="10" x1="-47.154" y1="75.531" x2="30.199" y2="-1.821"/>
<line fill="none" stroke="#C6C8D2" stroke-miterlimit="10" x1="-249.057" y1="75.531" x2="-171.705" y2="-1.821"/>
<line fill="none" stroke="#C6C8D2" stroke-miterlimit="10" x1="-191.371" y1="75.531" x2="-114.018" y2="-1.821"/>
<line fill="none" stroke="#C6C8D2" stroke-miterlimit="10" x1="-220.214" y1="75.531" x2="-142.861" y2="-1.821"/>
<line fill="none" stroke="#C6C8D2" stroke-miterlimit="10" x1="-162.527" y1="75.531" x2="-85.175" y2="-1.821"/>
<line fill="none" stroke="#C6C8D2" stroke-miterlimit="10" x1="97.063" y1="75.531" x2="174.415" y2="-1.821"/>
<line fill="none" stroke="#C6C8D2" stroke-miterlimit="10" x1="154.75" y1="75.531" x2="232.102" y2="-1.821"/>
<line fill="none" stroke="#C6C8D2" stroke-miterlimit="10" x1="125.906" y1="75.531" x2="203.258" y2="-1.821"/>
<line fill="none" stroke="#C6C8D2" stroke-miterlimit="10" x1="183.593" y1="75.531" x2="260.945" y2="-1.821"/>
<line fill="none" stroke="#C6C8D2" stroke-miterlimit="10" x1="-18.311" y1="75.531" x2="59.042" y2="-1.821"/>
<line fill="none" stroke="#C6C8D2" stroke-miterlimit="10" x1="39.376" y1="75.531" x2="116.729" y2="-1.821"/>
<line fill="none" stroke="#C6C8D2" stroke-miterlimit="10" x1="10.533" y1="75.531" x2="87.885" y2="-1.821"/>
<line fill="none" stroke="#C6C8D2" stroke-miterlimit="10" x1="68.22" y1="75.531" x2="145.572" y2="-1.821"/>
<line fill="none" stroke="#C6C8D2" stroke-miterlimit="10" x1="1252.106" y1="75.531" x2="1329.459" y2="-1.821"/>
<line fill="none" stroke="#C6C8D2" stroke-miterlimit="10" x1="1309.793" y1="75.531" x2="1387.146" y2="-1.821"/>
<line fill="none" stroke="#C6C8D2" stroke-miterlimit="10" x1="1280.948" y1="75.531" x2="1358.301" y2="-1.821"/>
<line fill="none" stroke="#C6C8D2" stroke-miterlimit="10" x1="1338.638" y1="75.531" x2="1415.99" y2="-1.821"/>
<line fill="none" stroke="#C6C8D2" stroke-miterlimit="10" x1="1136.733" y1="75.531" x2="1214.086" y2="-1.821"/>
<line fill="none" stroke="#C6C8D2" stroke-miterlimit="10" x1="1194.42" y1="75.531" x2="1271.772" y2="-1.821"/>
<line fill="none" stroke="#C6C8D2" stroke-miterlimit="10" x1="1165.575" y1="75.531" x2="1242.928" y2="-1.821"/>
<line fill="none" stroke="#C6C8D2" stroke-miterlimit="10" x1="1223.262" y1="75.531" x2="1300.614" y2="-1.821"/>
<line fill="none" stroke="#C6C8D2" stroke-miterlimit="10" x1="1482.852" y1="75.531" x2="1560.204" y2="-1.821"/>
<line fill="none" stroke="#C6C8D2" stroke-miterlimit="10" x1="1540.538" y1="75.531" x2="1617.891" y2="-1.821"/>
<line fill="none" stroke="#C6C8D2" stroke-miterlimit="10" x1="1511.697" y1="75.531" x2="1589.049" y2="-1.821"/>
<line fill="none" stroke="#C6C8D2" stroke-miterlimit="10" x1="1367.479" y1="75.531" x2="1444.832" y2="-1.821"/>
<line fill="none" stroke="#C6C8D2" stroke-miterlimit="10" x1="1425.166" y1="75.531" x2="1502.518" y2="-1.821"/>
<line fill="none" stroke="#C6C8D2" stroke-miterlimit="10" x1="1396.324" y1="75.531" x2="1473.677" y2="-1.821"/>
<line fill="none" stroke="#C6C8D2" stroke-miterlimit="10" x1="1454.01" y1="75.531" x2="1531.363" y2="-1.821"/>
<line fill="none" stroke="#C6C8D2" stroke-miterlimit="10" x1="790.612" y1="75.531" x2="867.967" y2="-1.821"/>
<line fill="none" stroke="#C6C8D2" stroke-miterlimit="10" x1="848.298" y1="75.531" x2="925.653" y2="-1.821"/>
<line fill="none" stroke="#C6C8D2" stroke-miterlimit="10" x1="819.456" y1="75.531" x2="896.809" y2="-1.821"/>
<line fill="none" stroke="#C6C8D2" stroke-miterlimit="10" x1="877.143" y1="75.531" x2="954.495" y2="-1.821"/>
<line fill="none" stroke="#C6C8D2" stroke-miterlimit="10" x1="675.239" y1="75.531" x2="752.594" y2="-1.821"/>
<line fill="none" stroke="#C6C8D2" stroke-miterlimit="10" x1="732.926" y1="75.531" x2="810.28" y2="-1.821"/>
<line fill="none" stroke="#C6C8D2" stroke-miterlimit="10" x1="704.082" y1="75.531" x2="781.437" y2="-1.821"/>
<line fill="none" stroke="#C6C8D2" stroke-miterlimit="10" x1="761.769" y1="75.531" x2="839.122" y2="-1.821"/>
<line fill="none" stroke="#C6C8D2" stroke-miterlimit="10" x1="1021.36" y1="75.531" x2="1098.713" y2="-1.821"/>
<line fill="none" stroke="#C6C8D2" stroke-miterlimit="10" x1="1079.047" y1="75.531" x2="1156.399" y2="-1.821"/>
<line fill="none" stroke="#C6C8D2" stroke-miterlimit="10" x1="1050.202" y1="75.531" x2="1127.555" y2="-1.821"/>
<line fill="none" stroke="#C6C8D2" stroke-miterlimit="10" x1="1107.889" y1="75.531" x2="1185.241" y2="-1.821"/>
<line fill="none" stroke="#C6C8D2" stroke-miterlimit="10" x1="905.987" y1="75.531" x2="983.337" y2="-1.821"/>
<line fill="none" stroke="#C6C8D2" stroke-miterlimit="10" x1="963.674" y1="75.531" x2="1041.026" y2="-1.821"/>
<line fill="none" stroke="#C6C8D2" stroke-miterlimit="10" x1="934.829" y1="75.531" x2="1012.182" y2="-1.821"/>
<line fill="none" stroke="#C6C8D2" stroke-miterlimit="10" x1="992.516" y1="75.531" x2="1069.868" y2="-1.821"/>
<line fill="none" stroke="#C6C8D2" stroke-miterlimit="10" x1="616.819" y1="75.531" x2="694.172" y2="-1.821"/>
<line fill="none" stroke="#C6C8D2" stroke-miterlimit="10" x1="1598.803" y1="75.531" x2="1676.155" y2="-1.821"/>
<line fill="none" stroke="#C6C8D2" stroke-miterlimit="10" x1="1569.958" y1="75.531" x2="1647.311" y2="-1.821"/>
<line fill="none" stroke="#C6C8D2" stroke-miterlimit="10" x1="1627.647" y1="75.531" x2="1705" y2="-1.821"/>
<g display="none">
	<g display="inline">
		<path fill="#686C6F" d="M87.729,20.12l-1.734,2.054c-0.774-0.943-1.918-1.532-2.962-1.532c-1.868,0-3.282,1.481-3.282,3.417
			c0,1.969,1.414,3.467,3.282,3.467c0.993,0,2.138-0.538,2.962-1.38l1.75,1.852c-1.262,1.296-3.13,2.154-4.864,2.154
			c-3.551,0-6.194-2.608-6.194-6.06c0-3.399,2.71-5.958,6.295-5.958C84.732,18.134,86.55,18.909,87.729,20.12z"/>
		<path fill="#686C6F" d="M91.665,27.846l-0.858,2.171h-3.08l5.083-11.781h3.08l4.965,11.781h-3.198l-0.841-2.171H91.665z
			 M94.257,21.214l-1.717,4.359h3.399L94.257,21.214z"/>
		<path fill="#686C6F" d="M107.298,26.701h-0.084h-2.272v3.315h-2.996V18.235h5.268c3.113,0,4.897,1.481,4.897,4.106
			c0,1.801-0.757,3.097-2.138,3.787l2.474,3.888h-3.399L107.298,26.701z M107.214,24.345c1.296,0,2.053-0.656,2.053-1.902
			c0-1.229-0.757-1.851-2.053-1.851h-2.272v3.753H107.214z"/>
		<path fill="#686C6F" d="M119.196,18.235c3.703,0,6.261,2.39,6.261,5.891c0,3.483-2.592,5.891-6.378,5.891h-4.948V18.235H119.196z
			 M117.125,27.627h2.138c1.834,0,3.147-1.414,3.147-3.484c0-2.087-1.38-3.518-3.282-3.518h-2.003V27.627z"/>
	</g>
</g>
<g display="none">
	<g display="inline">
		<path fill="#686C6F" d="M925.043,32.417v11.695h-3.736V32.417h-4.389v-3.023h12.557v3.023H925.043z"/>
		<path fill="#686C6F" d="M945.244,36.742c0,4.283-3.4,7.538-7.957,7.538c-4.535,0-7.938-3.233-7.938-7.538
			c0-4.283,3.402-7.453,7.938-7.453C941.844,29.289,945.244,32.48,945.244,36.742z M933.172,36.764c0,2.478,1.91,4.389,4.156,4.389
			c2.268,0,4.074-1.911,4.074-4.389s-1.807-4.346-4.074-4.346S933.172,34.286,933.172,36.764z"/>
		<path fill="#686C6F" d="M953.541,32.417v11.695h-3.738V32.417h-4.387v-3.023h12.555v3.023H953.541z"/>
		<path fill="#686C6F" d="M961.334,41.404l-1.072,2.708h-3.842l6.342-14.697h3.842l6.193,14.697h-3.988l-1.051-2.708H961.334z
			 M964.566,33.131l-2.141,5.438h4.24L964.566,33.131z"/>
		<path fill="#686C6F" d="M984.139,40.984v3.128h-9.975V29.415h3.738v11.569H984.139z"/>
	</g>
</g>
<g display="none">
	<g display="inline">
		<path fill="#686C6F" d="M731.123,30.415c3.758,0,5.922,1.848,5.922,5.123c0,3.443-2.164,5.438-5.922,5.438h-2.666v4.136h-3.738
			V30.415H731.123z M728.457,38.037h2.477c1.639,0,2.584-0.819,2.584-2.373c0-1.533-0.945-2.31-2.584-2.31h-2.477V38.037z"/>
		<path fill="#686C6F" d="M741.246,42.404l-1.07,2.708h-3.842l6.34-14.697h3.842l6.195,14.697h-3.99l-1.049-2.708H741.246z
			 M744.48,34.131l-2.143,5.438h4.242L744.48,34.131z"/>
		<path fill="#686C6F" d="M760.754,40.977h-0.104h-2.836v4.136h-3.736V30.415h6.572c3.883,0,6.109,1.848,6.109,5.123
			c0,2.247-0.945,3.863-2.666,4.724l3.086,4.851h-4.242L760.754,40.977z M760.65,38.037c1.615,0,2.561-0.819,2.561-2.373
			c0-1.533-0.945-2.31-2.561-2.31h-2.836v4.683H760.65z"/>
		<path fill="#686C6F" d="M776.084,33.417v11.695h-3.736V33.417h-4.389v-3.023h12.557v3.023H776.084z"/>
		<path fill="#686C6F" d="M793.557,31.885l-1.408,2.918c-1.553-0.903-3.506-1.533-4.703-1.533c-0.965,0-1.615,0.357-1.615,1.071
			c0,2.541,7.768,1.092,7.768,6.404c0,2.939-2.604,4.493-5.879,4.493c-2.457,0-4.977-0.924-6.719-2.352l1.449-2.877
			c1.512,1.323,3.779,2.205,5.313,2.205c1.176,0,1.91-0.441,1.91-1.281c0-2.604-7.77-1.049-7.77-6.256
			c0-2.708,2.332-4.43,5.859-4.43C789.881,30.247,792.045,30.898,793.557,31.885z"/>
	</g>
</g>
<g display="none">
	<g display="inline">
		<path fill="#686C6F" d="M565.055,27.509v2.508h-7.994V18.235h2.996v9.273H565.055z"/>
		<path fill="#686C6F" d="M569.211,27.846l-0.857,2.171h-3.08l5.082-11.781h3.08l4.965,11.781h-3.197l-0.842-2.171H569.211z
			 M571.803,21.214l-1.717,4.359h3.4L571.803,21.214z"/>
		<path fill="#686C6F" d="M585.063,18.235c2.643,0,4.326,1.145,4.326,2.945c0,1.246-0.775,2.238-2.02,2.592
			c1.48,0.286,2.424,1.447,2.424,2.979c0,2.002-1.752,3.265-4.527,3.265h-5.773V18.235H585.063z M582.471,22.948h2.424
			c0.875,0,1.432-0.471,1.432-1.229s-0.557-1.195-1.432-1.195h-2.424V22.948z M582.471,27.711h2.424c1.111,0,1.801-0.488,1.801-1.33
			c0-0.791-0.689-1.278-1.801-1.278h-2.424V27.711z"/>
		<path fill="#686C6F" d="M603.49,24.109c0,3.434-2.727,6.042-6.379,6.042c-3.635,0-6.361-2.592-6.361-6.042
			c0-3.434,2.727-5.975,6.361-5.975C600.764,18.134,603.49,20.692,603.49,24.109z M593.813,24.126c0,1.986,1.533,3.518,3.334,3.518
			c1.816,0,3.264-1.531,3.264-3.518c0-1.986-1.447-3.484-3.264-3.484C595.328,20.642,593.813,22.14,593.813,24.126z"/>
		<path fill="#686C6F" d="M610.424,26.701h-0.084h-2.273v3.315h-2.996V18.235h5.27c3.113,0,4.896,1.481,4.896,4.106
			c0,1.801-0.758,3.097-2.137,3.787l2.475,3.888h-3.4L610.424,26.701z M610.34,24.345c1.295,0,2.053-0.656,2.053-1.902
			c0-1.229-0.758-1.851-2.053-1.851h-2.273v3.753H610.34z"/>
	</g>
</g>
<g display="none">
	<g display="inline">
		<path fill="#686C6F" d="M281.486,20.642v9.375h-2.995v-9.375h-3.518v-2.424h10.064v2.424H281.486z"/>
		<path fill="#686C6F" d="M291.667,26.701h-0.084h-2.272v3.315h-2.996V18.235h5.269c3.113,0,4.897,1.481,4.897,4.106
			c0,1.801-0.758,3.097-2.138,3.787l2.475,3.888h-3.4L291.667,26.701z M291.583,24.345c1.296,0,2.053-0.656,2.053-1.902
			c0-1.229-0.757-1.851-2.053-1.851h-2.272v3.753H291.583z"/>
		<path fill="#686C6F" d="M301.175,27.846l-0.858,2.171h-3.08l5.083-11.781h3.08l4.965,11.781h-3.198l-0.842-2.171H301.175z
			 M303.767,21.214l-1.717,4.359h3.399L303.767,21.214z"/>
		<path fill="#686C6F" d="M319.686,30.017l-5.419-7.254v7.254h-2.812V18.235h2.643l5.437,7.271v-7.271h2.794v11.781H319.686z"/>
		<path fill="#686C6F" d="M333.855,19.414l-1.128,2.339c-1.245-0.724-2.811-1.229-3.77-1.229c-0.774,0-1.296,0.286-1.296,0.858
			c0,2.036,6.228,0.875,6.228,5.133c0,2.356-2.087,3.602-4.713,3.602c-1.969,0-3.989-0.74-5.386-1.885l1.161-2.306
			c1.212,1.061,3.029,1.768,4.258,1.768c0.943,0,1.532-0.354,1.532-1.027c0-2.087-6.228-0.841-6.228-5.015
			c0-2.171,1.868-3.551,4.695-3.551C330.91,18.101,332.643,18.623,333.855,19.414z"/>
		<path fill="#686C6F" d="M338.145,27.846l-0.858,2.171h-3.08l5.083-11.781h3.079l4.966,11.781h-3.198l-0.842-2.171H338.145z
			 M340.737,21.214l-1.717,4.359h3.399L340.737,21.214z"/>
		<path fill="#686C6F" d="M358.373,20.12l-1.733,2.054c-0.774-0.943-1.918-1.532-2.962-1.532c-1.868,0-3.282,1.481-3.282,3.417
			c0,1.969,1.414,3.467,3.282,3.467c0.993,0,2.138-0.538,2.962-1.38l1.751,1.852c-1.263,1.296-3.131,2.154-4.864,2.154
			c-3.552,0-6.193-2.608-6.193-6.06c0-3.399,2.709-5.958,6.294-5.958C355.377,18.134,357.195,18.909,358.373,20.12z"/>
		<path fill="#686C6F" d="M365.204,20.642v9.375h-2.995v-9.375h-3.518v-2.424h10.064v2.424H365.204z"/>
		<path fill="#686C6F" d="M370.033,30.017V18.235h2.996v11.781H370.033z"/>
		<path fill="#686C6F" d="M387.351,24.109c0,3.434-2.727,6.042-6.379,6.042c-3.635,0-6.361-2.592-6.361-6.042
			c0-3.434,2.727-5.975,6.361-5.975C384.625,18.134,387.351,20.692,387.351,24.109z M377.673,24.126
			c0,1.986,1.532,3.518,3.333,3.518c1.817,0,3.265-1.531,3.265-3.518c0-1.986-1.447-3.484-3.265-3.484
			C379.188,20.642,377.673,22.14,377.673,24.126z"/>
		<path fill="#686C6F" d="M397.162,30.017l-5.419-7.254v7.254h-2.812V18.235h2.643l5.437,7.271v-7.271h2.794v11.781H397.162z"/>
		<path fill="#686C6F" d="M411.331,19.414l-1.128,2.339c-1.245-0.724-2.811-1.229-3.77-1.229c-0.774,0-1.296,0.286-1.296,0.858
			c0,2.036,6.228,0.875,6.228,5.133c0,2.356-2.087,3.602-4.713,3.602c-1.969,0-3.989-0.74-5.386-1.885l1.161-2.306
			c1.212,1.061,3.029,1.768,4.258,1.768c0.943,0,1.532-0.354,1.532-1.027c0-2.087-6.228-0.841-6.228-5.015
			c0-2.171,1.868-3.551,4.695-3.551C408.385,18.101,410.119,18.623,411.331,19.414z"/>
	</g>
</g>
<g>
	<rect y="28" fill="none" width="1100" height="79.87"/>
	<path fill="#535B5F" d="M84.382,31.236l-2.163,2.562c-0.966-1.176-2.394-1.911-3.695-1.911c-2.331,0-4.094,1.848-4.094,4.262
		c0,2.457,1.764,4.326,4.094,4.326c1.239,0,2.667-0.672,3.695-1.723l2.184,2.311c-1.575,1.616-3.905,2.688-6.068,2.688
		c-4.43,0-7.727-3.255-7.727-7.559c0-4.241,3.38-7.433,7.853-7.433C80.645,28.758,82.912,29.724,84.382,31.236z"/>
	<path fill="#535B5F" d="M89.297,40.873l-1.071,2.709h-3.842l6.341-14.698h3.842l6.194,14.698h-3.989l-1.05-2.709H89.297z
		 M92.531,32.601l-2.142,5.438h4.241L92.531,32.601z"/>
	<path fill="#535B5F" d="M108.806,39.445h-0.105h-2.834v4.137h-3.737V28.884h6.572c3.884,0,6.11,1.848,6.11,5.123
		c0,2.247-0.945,3.863-2.667,4.724l3.086,4.851h-4.241L108.806,39.445z M108.701,36.506c1.617,0,2.562-0.819,2.562-2.373
		c0-1.533-0.945-2.31-2.562-2.31h-2.834v4.682H108.701z"/>
	<path fill="#535B5F" d="M123.653,28.884c4.619,0,7.811,2.981,7.811,7.349c0,4.346-3.233,7.349-7.958,7.349h-6.173V28.884H123.653z
		 M121.07,40.6h2.667c2.289,0,3.926-1.764,3.926-4.346c0-2.604-1.722-4.388-4.094-4.388h-2.499V40.6z"/>
	<path fill="#535B5F" d="M248.634,31.887v11.695h-3.737V31.887h-4.388v-3.023h12.556v3.023H248.634z"/>
	<path fill="#535B5F" d="M261.339,39.445h-0.105H258.4v4.137h-3.737V28.884h6.572c3.884,0,6.11,1.848,6.11,5.123
		c0,2.247-0.945,3.863-2.667,4.724l3.086,4.851h-4.241L261.339,39.445z M261.234,36.506c1.617,0,2.562-0.819,2.562-2.373
		c0-1.533-0.945-2.31-2.562-2.31H258.4v4.682H261.234z"/>
	<path fill="#535B5F" d="M273.205,40.873l-1.071,2.709h-3.842l6.341-14.698h3.842l6.194,14.698h-3.989l-1.05-2.709H273.205z
		 M276.438,32.601l-2.142,5.438h4.241L276.438,32.601z"/>
	<path fill="#535B5F" d="M296.304,43.582l-6.761-9.05v9.05h-3.506V28.884h3.296l6.782,9.07v-9.07h3.485v14.698H296.304z"/>
	<path fill="#535B5F" d="M313.985,30.354l-1.407,2.918c-1.554-0.903-3.506-1.533-4.703-1.533c-0.966,0-1.617,0.357-1.617,1.071
		c0,2.541,7.769,1.092,7.769,6.404c0,2.939-2.604,4.492-5.879,4.492c-2.457,0-4.976-0.924-6.719-2.352l1.449-2.876
		c1.512,1.323,3.779,2.204,5.312,2.204c1.176,0,1.911-0.44,1.911-1.28c0-2.604-7.769-1.05-7.769-6.257
		c0-2.708,2.331-4.43,5.858-4.43C310.311,28.716,312.474,29.367,313.985,30.354z"/>
	<path fill="#535B5F" d="M319.342,40.873l-1.071,2.709h-3.842l6.341-14.698h3.842l6.194,14.698h-3.989l-1.05-2.709H319.342z
		 M322.576,32.601l-2.142,5.438h4.241L322.576,32.601z"/>
	<path fill="#535B5F" d="M344.583,31.236l-2.163,2.562c-0.966-1.176-2.394-1.911-3.695-1.911c-2.331,0-4.094,1.848-4.094,4.262
		c0,2.457,1.764,4.326,4.094,4.326c1.239,0,2.667-0.672,3.695-1.723l2.184,2.311c-1.575,1.616-3.905,2.688-6.068,2.688
		c-4.43,0-7.727-3.255-7.727-7.559c0-4.241,3.38-7.433,7.853-7.433C340.845,28.758,343.113,29.724,344.583,31.236z"/>
	<path fill="#535B5F" d="M353.109,31.887v11.695h-3.737V31.887h-4.388v-3.023h12.556v3.023H353.109z"/>
	<path fill="#535B5F" d="M359.138,43.582V28.884h3.737v14.698H359.138z"/>
	<path fill="#535B5F" d="M380.744,36.212c0,4.283-3.401,7.538-7.958,7.538c-4.535,0-7.937-3.234-7.937-7.538
		c0-4.283,3.401-7.454,7.937-7.454C377.342,28.758,380.744,31.95,380.744,36.212z M368.671,36.233c0,2.478,1.911,4.388,4.157,4.388
		c2.268,0,4.073-1.91,4.073-4.388c0-2.478-1.806-4.346-4.073-4.346S368.671,33.755,368.671,36.233z"/>
	<path fill="#535B5F" d="M392.987,43.582l-6.761-9.05v9.05h-3.506V28.884h3.296l6.782,9.07v-9.07h3.485v14.698H392.987z"/>
	<path fill="#535B5F" d="M410.669,30.354l-1.407,2.918c-1.554-0.903-3.506-1.533-4.703-1.533c-0.966,0-1.617,0.357-1.617,1.071
		c0,2.541,7.769,1.092,7.769,6.404c0,2.939-2.604,4.492-5.879,4.492c-2.457,0-4.976-0.924-6.719-2.352l1.449-2.876
		c1.512,1.323,3.779,2.204,5.312,2.204c1.176,0,1.911-0.44,1.911-1.28c0-2.604-7.769-1.05-7.769-6.257
		c0-2.708,2.331-4.43,5.858-4.43C406.995,28.716,409.157,29.367,410.669,30.354z"/>
	<path fill="#535B5F" d="M525.19,40.453v3.129h-9.973V28.884h3.737v11.569H525.19z"/>
	<path fill="#535B5F" d="M530.377,40.873l-1.071,2.709h-3.842l6.341-14.698h3.842l6.194,14.698h-3.989l-1.05-2.709H530.377z
		 M533.611,32.601l-2.142,5.438h4.241L533.611,32.601z"/>
	<path fill="#535B5F" d="M550.159,28.884c3.296,0,5.396,1.428,5.396,3.674c0,1.554-0.966,2.792-2.52,3.233
		c1.848,0.357,3.023,1.806,3.023,3.716c0,2.499-2.184,4.074-5.648,4.074h-7.202V28.884H550.159z M546.925,34.763h3.023
		c1.092,0,1.785-0.588,1.785-1.533s-0.692-1.491-1.785-1.491h-3.023V34.763z M546.925,40.705h3.023c1.385,0,2.247-0.609,2.247-1.658
		c0-0.987-0.861-1.596-2.247-1.596h-3.023V40.705z"/>
	<path fill="#535B5F" d="M573.152,36.212c0,4.283-3.4,7.538-7.957,7.538c-4.535,0-7.937-3.234-7.937-7.538
		c0-4.283,3.401-7.454,7.937-7.454C569.752,28.758,573.152,31.95,573.152,36.212z M561.08,36.233c0,2.478,1.91,4.388,4.157,4.388
		c2.268,0,4.073-1.91,4.073-4.388c0-2.478-1.806-4.346-4.073-4.346S561.08,33.755,561.08,36.233z"/>
	<path fill="#535B5F" d="M581.806,39.445h-0.104h-2.835v4.137h-3.737V28.884h6.572c3.884,0,6.109,1.848,6.109,5.123
		c0,2.247-0.945,3.863-2.666,4.724l3.086,4.851h-4.241L581.806,39.445z M581.701,36.506c1.616,0,2.561-0.819,2.561-2.373
		c0-1.533-0.944-2.31-2.561-2.31h-2.835v4.682H581.701z"/>
	<path fill="#535B5F" d="M742.494,28.884c3.758,0,5.92,1.848,5.92,5.123c0,3.443-2.162,5.438-5.92,5.438h-2.667v4.137h-3.737V28.884
		H742.494z M739.827,36.506h2.478c1.638,0,2.582-0.819,2.582-2.373c0-1.533-0.944-2.31-2.582-2.31h-2.478V36.506z"/>
	<path fill="#535B5F" d="M752.617,40.873l-1.071,2.709h-3.843l6.342-14.698h3.842l6.193,14.698h-3.988l-1.051-2.709H752.617z
		 M755.85,32.601l-2.141,5.438h4.24L755.85,32.601z"/>
	<path fill="#535B5F" d="M772.125,39.445h-0.105h-2.834v4.137h-3.737V28.884h6.571c3.885,0,6.11,1.848,6.11,5.123
		c0,2.247-0.944,3.863-2.667,4.724l3.087,4.851h-4.241L772.125,39.445z M772.02,36.506c1.617,0,2.563-0.819,2.563-2.373
		c0-1.533-0.945-2.31-2.563-2.31h-2.834v4.682H772.02z"/>
	<path fill="#535B5F" d="M787.455,31.887v11.695h-3.737V31.887h-4.388v-3.023h12.555v3.023H787.455z"/>
	<path fill="#535B5F" d="M804.926,30.354l-1.406,2.918c-1.554-0.903-3.506-1.533-4.703-1.533c-0.966,0-1.617,0.357-1.617,1.071
		c0,2.541,7.77,1.092,7.77,6.404c0,2.939-2.604,4.492-5.879,4.492c-2.457,0-4.977-0.924-6.719-2.352l1.448-2.876
		c1.512,1.323,3.779,2.204,5.312,2.204c1.176,0,1.911-0.44,1.911-1.28c0-2.604-7.769-1.05-7.769-6.257c0-2.708,2.33-4.43,5.857-4.43
		C801.252,28.716,803.414,29.367,804.926,30.354z"/>
	<path fill="#535B5F" d="M968.637,31.887v11.695h-3.737V31.887h-4.388v-3.023h12.555v3.023H968.637z"/>
	<path fill="#535B5F" d="M988.838,36.212c0,4.283-3.402,7.538-7.958,7.538c-4.535,0-7.937-3.234-7.937-7.538
		c0-4.283,3.401-7.454,7.937-7.454C985.436,28.758,988.838,31.95,988.838,36.212z M976.765,36.233c0,2.478,1.911,4.388,4.157,4.388
		c2.268,0,4.073-1.91,4.073-4.388c0-2.478-1.806-4.346-4.073-4.346S976.765,33.755,976.765,36.233z"/>
	<path fill="#535B5F" d="M997.135,31.887v11.695h-3.737V31.887h-4.388v-3.023h12.555v3.023H997.135z"/>
	<path fill="#535B5F" d="M1004.926,40.873l-1.07,2.709h-3.842l6.34-14.698h3.843l6.194,14.698h-3.99l-1.049-2.709H1004.926z
		 M1008.16,32.601l-2.143,5.438h4.242L1008.16,32.601z"/>
	<path fill="#535B5F" d="M1027.73,40.453v3.129h-9.973V28.884h3.737v11.569H1027.73z"/>
</g>
<g>
</g>
<g>
</g>
<g>
</g>
<g>
</g>
<g>
</g>
<g>
</g>
</svg>
