<?xml version="1.0" encoding="utf-8"?>
<!-- Generator: Adobe Illustrator 16.0.0, SVG Export Plug-In . SVG Version: 6.00 Build 0)  -->
<!DOCTYPE svg PUBLIC "-//W3C//DTD SVG 1.1//EN" "http://www.w3.org/Graphics/SVG/1.1/DTD/svg11.dtd">
<svg version="1.1" id="Layer_8" xmlns="http://www.w3.org/2000/svg" xmlns:xlink="http://www.w3.org/1999/xlink" x="0px" y="0px"
	 width="70px" height="85px" viewBox="0 0 70 85" enable-background="new 0 0 70 85" xml:space="preserve">
<image display="none" overflow="visible" opacity="0.5" width="91" height="91" xlink:href="E8640314.jpg"  transform="matrix(1.0494 0 0 1.0494 -11 -5)">
</image>
<g>
	<path fill="#F9F9FA" d="M48.044,29.244c-1.65,0-3-1.35-3-3v-7.375c0-1.65-1.35-3-3-3H17.369c-1.65,0-3,1.35-3,3v48.75
		c0,1.65,1.35,3,3,3h37.25c1.65,0,3-1.35,3-3V32.244c0-1.65-1.35-3-3-3H48.044z"/>
</g>
<g display="none" opacity="0.5">
	<path display="inline" fill="#FFFFFF" d="M57.494,65.994c0,2.2-1.8,4-4,4h-36c-2.2,0-4-1.8-4-4v-46.5c0-2.2,1.8-4,4-4h36
		c2.2,0,4,1.8,4,4V65.994z"/>
</g>
<g display="none">
	<path display="inline" fill="#FFFFFF" d="M50.535,17.587c-1.397-1.7-2.541-1.29-2.541,0.91v3.747c0,2.2,1.8,4,4,4h1.658
		c2.2,0,2.857-1.39,1.459-3.09L50.535,17.587z"/>
</g>
<rect x="41.037" y="15.869" fill="#F8FAFA" width="4.007" height="5.067"/>
<rect x="52.382" y="29.244" fill="#F8FAFA" width="5.225" height="3.5"/>
<g>
	<path fill="#F8FAFA" d="M49.396,17.589c-0.743-0.811-1.352-0.574-1.352,0.526v6.129c0,1.1,0.9,2,2,2h5.288
		c1.1,0,1.392-0.664,0.648-1.474L49.396,17.589z"/>
</g>
<polygon fill="#F8FAFA" points="57.332,26.244 48.044,16.115 48.044,23.244 50.938,23.244 50.938,26.244 "/>
<path fill="#DD4D38" d="M23.626,20.588c-0.091-0.006-0.183-0.011-0.275-0.011c-2.13,0-3.857,1.727-3.857,3.857
	c0,0.063,0.001,0.124,0.005,0.185h4.127V20.588z"/>
<g>
	<path fill="#3C8DBC" d="M24.321,25.417h-4.098c0.135,1.957,1.765,3.503,3.757,3.503c1.028,0,1.959-0.412,2.638-1.08L24.321,25.417z
		"/>
</g>
<g>
	<path fill="#F29C1F" d="M27.747,25.153c0-1.965-1.504-3.578-3.424-3.751v4.015h-0.002l2.297,2.423
		C27.314,27.157,27.747,26.206,27.747,25.153z"/>
	<path display="none" fill="#3C8DBC" d="M24.41,25.507h-4.098c0.136,1.958,1.766,3.503,3.757,3.503c1.027,0,1.959-0.412,2.638-1.08
		L24.41,25.507z"/>
</g>
<line fill="none" stroke="#808285" stroke-width="0.25" stroke-miterlimit="10" x1="25.348" y1="34.455" x2="21.004" y2="38.799"/>
<path display="none" fill="none" stroke="#808285" stroke-width="0.25" stroke-miterlimit="10" d="M18.574,37.989
	c-0.043,0.044-0.087,0.087-0.131,0.131"/>
<path fill="none" stroke="#808285" stroke-width="0.25" stroke-miterlimit="10" d="M18.709,37.854
	c-0.045,0.045-0.09,0.09-0.135,0.135"/>
<path fill="none" stroke="#808285" stroke-width="0.25" stroke-miterlimit="10" d="M22.108,34.455
	c-1.134,1.133-2.267,2.267-3.399,3.399"/>
<line fill="none" stroke="#808285" stroke-width="0.25" stroke-miterlimit="10" x1="31.827" y1="34.455" x2="27.483" y2="38.799"/>
<line fill="none" stroke="#808285" stroke-width="0.25" stroke-miterlimit="10" x1="28.588" y1="34.455" x2="24.243" y2="38.799"/>
<line fill="none" stroke="#808285" stroke-width="0.25" stroke-miterlimit="10" x1="51.559" y1="34.455" x2="47.215" y2="38.799"/>
<line fill="none" stroke="#808285" stroke-width="0.25" stroke-miterlimit="10" x1="48.025" y1="34.455" x2="43.681" y2="38.799"/>
<line fill="none" stroke="#808285" stroke-width="0.25" stroke-miterlimit="10" x1="38.307" y1="34.455" x2="33.962" y2="38.799"/>
<line fill="none" stroke="#808285" stroke-width="0.25" stroke-miterlimit="10" x1="35.066" y1="34.455" x2="30.723" y2="38.799"/>
<line fill="none" stroke="#808285" stroke-width="0.25" stroke-miterlimit="10" x1="44.785" y1="34.455" x2="40.441" y2="38.799"/>
<line fill="none" stroke="#808285" stroke-width="0.25" stroke-miterlimit="10" x1="41.546" y1="34.455" x2="37.202" y2="38.799"/>
<line fill="none" stroke="#808285" stroke-width="0.25" stroke-miterlimit="10" x1="53.782" y1="35.475" x2="50.458" y2="38.799"/>
<line fill="none" stroke="#808285" stroke-width="0.25" stroke-miterlimit="10" x1="18.487" y1="65.894" x2="53.945" y2="65.894"/>
<line fill="none" stroke="#808285" stroke-width="0.25" stroke-miterlimit="10" x1="18.487" y1="38.78" x2="53.945" y2="38.78"/>
<line fill="none" stroke="#808285" stroke-width="0.25" stroke-miterlimit="10" x1="18.487" y1="34.496" x2="53.945" y2="34.496"/>
<line fill="none" stroke="#808285" stroke-width="0.25" stroke-miterlimit="10" x1="18.603" y1="34.496" x2="18.603" y2="65.959"/>
<line fill="none" stroke="#808285" stroke-width="0.25" stroke-miterlimit="10" x1="53.894" y1="34.496" x2="53.894" y2="65.959"/>
</svg>
