<?xml version="1.0" encoding="utf-8"?>
<!-- Generator: Adobe Illustrator 16.0.0, SVG Export Plug-In . SVG Version: 6.00 Build 0)  -->
<!DOCTYPE svg PUBLIC "-//W3C//DTD SVG 1.1//EN" "http://www.w3.org/Graphics/SVG/1.1/DTD/svg11.dtd">
<svg version="1.1" xmlns="http://www.w3.org/2000/svg" xmlns:xlink="http://www.w3.org/1999/xlink" x="0px" y="0px" width="100px"
	 height="100px" viewBox="0 0 100 100" enable-background="new 0 0 100 100" xml:space="preserve">
<g id="Layer_10">
	<circle fill="#7A9397" cx="50.5" cy="51" r="47.5"/>
	<path display="none" opacity="0.1" d="M4.769,63.834C10.37,83.83,28.716,98.5,50.5,98.5c4.07,0,8.02-0.514,11.79-1.477
		l8.278-14.927V51.966L25.28,26.85L4.769,63.834z"/>
	<path opacity="0.2" fill="#222D32" d="M33.661,78.395L54.4,98.328c23.172-1.885,41.63-20.392,43.439-43.586L76.295,34.035
		L33.661,78.395z"/>
</g>
<g id="Layer_2">
	
		<image display="none" overflow="visible" width="1920" height="2160" xlink:href="36CAA13C.jpg"  transform="matrix(1 0 0 1 -898 -924)">
	</image>
	<circle fill="#222D32" cx="50.162" cy="51.741" r="32.521"/>
	<circle fill="#222D32" cx="50.162" cy="51.741" r="32.521"/>
	<circle fill="#FFFFFF" cx="50.075" cy="51.741" r="27.444"/>
	<path fill="#E5E5E5" d="M77.385,49.025L50.143,28.349v22.77l0.238,0.252l-0.238,0.227v0.012H50.13L34.762,66.226l17.004,12.905
		c14.369-0.873,25.753-12.801,25.753-27.39C77.519,50.825,77.472,49.919,77.385,49.025z"/>
	<g opacity="0.5">
		<path fill="#B3B3B3" d="M52.395,41.771c0,4.4-0.453,8-1.007,8c-0.554,0-1.007-3.6-1.007-8v-3.696c0-4.4,0.453-8,1.007-8
			c0.554,0,1.007,3.6,1.007,8V41.771z"/>
	</g>
	<g>
		<path fill="#222D32" d="M51.082,39.846c0,4.4-0.453,8-1.006,8c-0.554,0-1.007-3.6-1.007-8v-3.696c0-4.4,0.453-8,1.007-8
			c0.553,0,1.006,3.6,1.006,8V39.846z"/>
	</g>
	<g opacity="0.5">
		<path fill="#BABABA" d="M75.155,52.616c0-0.553-3.6-1.006-8-1.006h-4.66c-4.4,0-8,0.453-8,1.006c0,0.554,3.6,1.007,8,1.007h4.66
			C71.555,53.623,75.155,53.17,75.155,52.616z"/>
	</g>
	<circle fill="#B7B7B8" cx="50.556" cy="52.354" r="5.164"/>
	<g opacity="0.5">
		<path fill="#B7B7B8" d="M42.972,63.113c-3.164,3.058-6.256,5.039-6.871,4.402c-0.615-0.637,1.47-3.659,4.634-6.716l0.722-0.698
			c3.164-3.058,6.256-5.039,6.871-4.402s-1.471,3.659-4.634,6.716L42.972,63.113z"/>
	</g>
	<g>
		<path fill="#222D32" d="M41.659,62.414c-3.164,3.058-6.256,5.039-6.871,4.402c-0.615-0.636,1.471-3.659,4.634-6.716l0.723-0.698
			c3.164-3.058,6.255-5.039,6.871-4.402c0.615,0.637-1.471,3.659-4.635,6.717L41.659,62.414z"/>
	</g>
	<g>
		<path fill="#DD4B38" d="M74.805,51.654c0-0.554-3.6-1.007-8-1.007h-4.659c-4.4,0-8,0.453-8,1.007s3.6,1.007,8,1.007h4.659
			C71.205,52.661,74.805,52.208,74.805,51.654z"/>
	</g>
	<circle fill="#FFFFFF" cx="49.943" cy="51.654" r="5.165"/>
	<circle fill="#DD4B38" cx="50.142" cy="51.63" r="3.438"/>
</g>
</svg>
