<?xml version="1.0" encoding="utf-8"?>
<!-- Generator: Adobe Illustrator 16.0.0, SVG Export Plug-In . SVG Version: 6.00 Build 0)  -->
<!DOCTYPE svg PUBLIC "-//W3C//DTD SVG 1.1//EN" "http://www.w3.org/Graphics/SVG/1.1/DTD/svg11.dtd">
<svg version="1.1" id="Layer_1" xmlns="http://www.w3.org/2000/svg" xmlns:xlink="http://www.w3.org/1999/xlink" x="0px" y="0px"
	 width="100px" height="100px" viewBox="0 0 100 100" enable-background="new 0 0 100 100" xml:space="preserve">
<g id="Layer_10">
	<circle fill="#7A9397" cx="50.5" cy="51" r="47.5"/>
	<path opacity="0.2" enable-background="new    " d="M63.893,25.025v0.06H32v53.04h-0.606l20.534,20.339
		c22.268-0.659,40.668-16.639,45.057-37.762L63.893,25.025z"/>
</g>
<g id="Layer_3">
	<g>
		<path fill="#F9F9FA" d="M62.55,36.75c-1.649,0-3-1.35-3-3v-7.375c0-1.65-1.35-3-3-3H31.875c-1.65,0-3,1.35-3,3v48.75
			c0,1.65,1.35,3,3,3h37.25c1.65,0,3-1.35,3-3V39.75c0-1.65-1.35-3-3-3H62.55z"/>
	</g>
	<rect x="55.542" y="23.375" fill="#F8FAFA" width="4.007" height="5.067"/>
	<rect x="66.889" y="36.75" fill="#F8FAFA" width="5.225" height="3.5"/>
</g>
<g id="Layer_7">
	<g>
		<path fill="#F8FAFA" d="M63.9,25.095c-0.742-0.811-1.352-0.574-1.352,0.526v6.129c0,1.1,0.9,2,2,2h5.288
			c1.101,0,1.392-0.664,0.647-1.474L63.9,25.095z"/>
	</g>
</g>
<g id="Layer_8">
	<polygon fill="#F8FAFA" points="71.838,33.75 62.55,23.621 62.55,30.75 65.443,30.75 65.443,33.75 	"/>
</g>
<g id="Layer_4">
	<path fill="#DD4D38" d="M38.132,28.094c-0.091-0.006-0.183-0.011-0.275-0.011c-2.13,0-3.857,1.727-3.857,3.857
		c0,0.063,0.001,0.124,0.005,0.185h4.127V28.094z"/>
	<g>
		<path fill="#3C8DBC" d="M38.827,32.923h-4.098c0.135,1.957,1.765,3.503,3.757,3.503c1.028,0,1.959-0.412,2.638-1.08L38.827,32.923
			z"/>
	</g>
	<g>
		<path fill="#F29C1F" d="M42.253,32.659c0-1.965-1.504-3.578-3.424-3.751v4.015h-0.002l2.297,2.423
			C41.82,34.663,42.253,33.712,42.253,32.659z"/>
	</g>
</g>
<g id="Layer_5">
	<line fill="none" stroke="#808285" stroke-width="0.25" stroke-miterlimit="10" x1="39.854" y1="41.961" x2="35.51" y2="46.305"/>
	<path fill="none" stroke="#808285" stroke-width="0.25" stroke-miterlimit="10" d="M33.215,45.36
		c-0.045,0.045-0.09,0.09-0.135,0.135"/>
	<path fill="none" stroke="#808285" stroke-width="0.25" stroke-miterlimit="10" d="M36.614,41.961
		c-1.134,1.133-2.267,2.267-3.399,3.399"/>
	<line fill="none" stroke="#808285" stroke-width="0.25" stroke-miterlimit="10" x1="46.333" y1="41.961" x2="41.989" y2="46.305"/>
	<line fill="none" stroke="#808285" stroke-width="0.25" stroke-miterlimit="10" x1="43.094" y1="41.961" x2="38.749" y2="46.305"/>
	<line fill="none" stroke="#808285" stroke-width="0.25" stroke-miterlimit="10" x1="66.064" y1="41.961" x2="61.721" y2="46.305"/>
	<line fill="none" stroke="#808285" stroke-width="0.25" stroke-miterlimit="10" x1="62.531" y1="41.961" x2="58.188" y2="46.305"/>
	<line fill="none" stroke="#808285" stroke-width="0.25" stroke-miterlimit="10" x1="52.813" y1="41.961" x2="48.468" y2="46.305"/>
	<line fill="none" stroke="#808285" stroke-width="0.25" stroke-miterlimit="10" x1="49.572" y1="41.961" x2="45.229" y2="46.305"/>
	<line fill="none" stroke="#808285" stroke-width="0.25" stroke-miterlimit="10" x1="59.291" y1="41.961" x2="54.947" y2="46.305"/>
	<line fill="none" stroke="#808285" stroke-width="0.25" stroke-miterlimit="10" x1="56.052" y1="41.961" x2="51.708" y2="46.305"/>
	<line fill="none" stroke="#808285" stroke-width="0.25" stroke-miterlimit="10" x1="68.288" y1="42.98" x2="64.964" y2="46.305"/>
	<line fill="none" stroke="#808285" stroke-width="0.25" stroke-miterlimit="10" x1="32.993" y1="73.4" x2="68.451" y2="73.4"/>
	<line fill="none" stroke="#808285" stroke-width="0.25" stroke-miterlimit="10" x1="32.993" y1="46.286" x2="68.451" y2="46.286"/>
	<line fill="none" stroke="#808285" stroke-width="0.25" stroke-miterlimit="10" x1="32.993" y1="42.002" x2="68.451" y2="42.002"/>
	<line fill="none" stroke="#808285" stroke-width="0.25" stroke-miterlimit="10" x1="33.108" y1="42.002" x2="33.108" y2="73.465"/>
	<line fill="none" stroke="#808285" stroke-width="0.25" stroke-miterlimit="10" x1="68.4" y1="42.002" x2="68.4" y2="73.465"/>
</g>
</svg>
