<?xml version="1.0" encoding="utf-8"?>
<!-- Generator: Adobe Illustrator 16.0.0, SVG Export Plug-In . SVG Version: 6.00 Build 0)  -->
<!DOCTYPE svg PUBLIC "-//W3C//DTD SVG 1.1//EN" "http://www.w3.org/Graphics/SVG/1.1/DTD/svg11.dtd">
<svg version="1.1" id="Layer_1" xmlns="http://www.w3.org/2000/svg" xmlns:xlink="http://www.w3.org/1999/xlink" x="0px" y="0px"
	 width="129px" height="33px" viewBox="0 0 129 33" enable-background="new 0 0 129 33" xml:space="preserve">
<path fill="none" stroke="#C5C8D1" stroke-miterlimit="10" d="M0.009,8.521c2.777-2.777,5.555-5.555,8.333-8.333"/>
<line fill="none" stroke="#C5C8D1" stroke-miterlimit="10" x1="36.706" y1="33" x2="69.517" y2="0.188"/>
<line fill="none" stroke="#C5C8D1" stroke-miterlimit="10" x1="61.175" y1="33" x2="93.986" y2="0.188"/>
<line fill="none" stroke="#C5C8D1" stroke-miterlimit="10" x1="48.939" y1="33" x2="81.752" y2="0.188"/>
<line fill="none" stroke="#C5C8D1" stroke-miterlimit="10" x1="73.409" y1="33" x2="106.223" y2="0.188"/>
<path fill="none" stroke="#C5C8D1" stroke-miterlimit="10" d="M0.128,20.638C6.944,13.821,13.761,7.005,20.577,0.188"/>
<line fill="none" stroke="#C5C8D1" stroke-miterlimit="10" x1="12.235" y1="33" x2="45.048" y2="0.188"/>
<line fill="none" stroke="#C5C8D1" stroke-miterlimit="10" x1="0" y1="33" x2="32.813" y2="0.188"/>
<line fill="none" stroke="#C5C8D1" stroke-miterlimit="10" x1="24.471" y1="33" x2="57.282" y2="0.188"/>
<path fill="none" stroke="#C5C8D1" stroke-miterlimit="10" d="M87.2,32c9.292-9.291,18.583-18.582,27.875-27.873"/>
<path fill="none" stroke="#C5C8D1" stroke-miterlimit="10" d="M86.2,33c9.455-9.454,18.909-18.908,28.364-28.362"/>
<path fill="none" stroke="#C5C8D1" stroke-miterlimit="10" d="M110.671,33c5.51-5.51,11.02-11.02,16.53-16.529"/>
<path fill="none" stroke="#C5C8D1" stroke-miterlimit="10" d="M99.437,32c7.286-7.286,14.571-14.571,21.857-21.857"/>
<path fill="none" stroke="#C5C8D1" stroke-miterlimit="10" d="M98.437,33c7.447-7.447,14.896-14.896,22.343-22.343"/>
<g>
	<g>
		<path fill="#696D70" d="M15.943,21.948V10.05h3.026v11.898H15.943z"/>
		<path fill="#696D70" d="M29.662,21.948l-5.474-7.326v7.326H21.35V10.05h2.669l5.49,7.343V10.05h2.822v11.898H29.662z"/>
		<path fill="#696D70" d="M38.129,21.948L33.506,10.05h3.229l3.043,8.754l3.042-8.754h3.111l-4.675,11.898H38.129z"/>
		<path fill="#696D70" d="M59.156,15.981c0,3.468-2.754,6.103-6.442,6.103c-3.671,0-6.425-2.617-6.425-6.103
			c0-3.467,2.754-6.034,6.425-6.034C56.402,9.947,59.156,12.531,59.156,15.981z M49.383,15.999c0,2.006,1.547,3.553,3.365,3.553
			c1.836,0,3.298-1.547,3.298-3.553s-1.462-3.519-3.298-3.519S49.383,13.993,49.383,15.999z"/>
		<path fill="#696D70" d="M60.755,21.948V10.05h3.026v11.898H60.755z"/>
		<path fill="#696D70" d="M76.53,11.953l-1.751,2.074c-0.781-0.952-1.938-1.547-2.991-1.547c-1.887,0-3.314,1.495-3.314,3.45
			c0,1.989,1.428,3.502,3.314,3.502c1.003,0,2.158-0.544,2.991-1.394l1.769,1.869c-1.275,1.31-3.162,2.176-4.913,2.176
			c-3.586,0-6.255-2.635-6.255-6.119c0-3.434,2.736-6.018,6.357-6.018C73.505,9.947,75.341,10.729,76.53,11.953z"/>
		<path fill="#696D70" d="M80.951,12.43v2.362h5.677v2.38h-5.677v2.396h6.477v2.38h-9.503V10.05h9.315v2.38H80.951z"/>
		<path fill="#696D70" d="M101.521,17.273h2.295l-0.238,2.023h-2.312l-0.323,2.651h-2.107l0.323-2.651h-2.363l-0.322,2.651h-2.108
			l0.323-2.651h-2.295l0.238-2.023h2.312l0.289-2.431h-2.261l0.221-2.022h2.295l0.34-2.771h2.108l-0.341,2.771h2.38l0.34-2.771
			h2.108l-0.34,2.771h2.294l-0.221,2.022h-2.328L101.521,17.273z M97.356,14.843l-0.307,2.431h2.363l0.306-2.431H97.356z"/>
	</g>
</g>
<line fill="none" stroke="#C5C8D1" stroke-miterlimit="10" x1="127.798" y1="16.594" x2="110.671" y2="-0.166"/>
<g>
</g>
<g>
</g>
<g>
</g>
<g>
</g>
<g>
</g>
<g>
</g>
</svg>
