<?xml version="1.0" encoding="utf-8"?>
<!-- Generator: Adobe Illustrator 16.0.0, SVG Export Plug-In . SVG Version: 6.00 Build 0)  -->
<!DOCTYPE svg PUBLIC "-//W3C//DTD SVG 1.1//EN" "http://www.w3.org/Graphics/SVG/1.1/DTD/svg11.dtd">
<svg version="1.1" id="Layer_4" xmlns="http://www.w3.org/2000/svg" xmlns:xlink="http://www.w3.org/1999/xlink" x="0px" y="0px"
	 width="60px" height="55px" viewBox="20 22.5 60 55" enable-background="new 20 22.5 60 55" xml:space="preserve">
<path fill="#BDC3C7" d="M38.458,36.35l-5.532-3.176l-0.071,0.072l-0.999,1.024l-0.26,0.267l3.885,3.788
	c0.587,1.768,0.193,3.793-1.197,5.219c-1.397,1.433-3.425,1.875-5.213,1.32l-3.868-3.772l-0.25,0.257l-0.264,0.271l-0.811,0.831
	l3.575,6.058l0.362,0.372l0.518,0.415l0.954,0.535l1.048,0.427l6.268,0.041l1.819,1.773l4.409-4.521l-1.897-1.85l-0.061-6.03
	l-0.19-0.591l-0.622-1.395l-0.856-0.925L38.458,36.35z"/>
<path fill="#BDC3C7" d="M38.158,47.407c-1.218,1.248-1.192,3.248,0.056,4.463l19.218,18.741c1.248,1.217,3.247,1.192,4.465-0.057
	c1.217-1.248,1.192-3.247-0.057-4.465L42.623,47.35C41.374,46.132,39.375,46.158,38.158,47.407z M60.606,69.314
	c-0.533,0.545-1.405,0.556-1.951,0.024c-0.545-0.532-0.556-1.405-0.023-1.951c0.531-0.545,1.404-0.556,1.949-0.024
	S61.138,68.769,60.606,69.314z"/>
<path fill="#95A5A6" d="M38.47,47.726c-0.84,0.861-0.823,2.24,0.039,3.081l6.374,6.216l6.883,6.711l6.373,6.217
	c0.861,0.839,2.241,0.821,3.08-0.04c0.84-0.86,0.822-2.24-0.039-3.079l-6.373-6.216l-6.883-6.712l-6.375-6.216
	C40.688,46.848,39.31,46.865,38.47,47.726z M60.606,69.314c-0.533,0.545-1.405,0.556-1.951,0.024
	c-0.545-0.532-0.556-1.405-0.023-1.951c0.531-0.545,1.404-0.556,1.949-0.024S61.138,68.769,60.606,69.314z"/>
<path fill="#95A5A6" d="M27.101,44.875l0.857,0.836c2.034,1.984,5.537,1.692,7.822-0.651c2.286-2.344,2.489-5.853,0.455-7.836
	l-1.178-1.149c-0.001-0.002-0.003-0.003-0.004-0.004l-2.538-2.475l-0.658,0.675l-0.26,0.267l3.885,3.788
	c0.587,1.768,0.193,3.793-1.197,5.219c-1.397,1.433-3.425,1.875-5.213,1.32l-3.868-3.772l-0.25,0.257l-0.264,0.271l-0.451,0.462
	l2.542,2.479L27.101,44.875z"/>
<polygon fill="#ECF0F1" points="53.531,38.931 53.418,40.878 50.459,43.824 43.946,50.305 42.542,51.701 44.506,53.674 
	45.909,52.277 52.422,45.797 55.383,42.852 57.22,42.769 61.015,37.899 60.688,37.571 58.726,35.598 58.397,35.268 "/>
<polygon fill="#BDC3C7" points="51.396,44.767 44.884,51.248 43.48,52.644 43.502,52.666 44.484,53.652 44.506,53.674 
	45.909,52.277 52.422,45.797 55.383,42.852 57.22,42.769 61.015,37.899 60.993,37.877 60.688,37.571 60.667,37.548 59.685,36.562 
	59.663,36.54 "/>
<path fill="#E66612" d="M40.641,50.801L25.577,65.79c-0.581,0.579-0.583,1.52-0.005,2.1l2.88,2.896
	c0.579,0.581,1.519,0.583,2.1,0.005l15.064-14.991L40.641,50.801z"/>
<path fill="#D35400" d="M39.485,49.638c-0.339,0.337-0.34,0.885-0.002,1.225l0.545,0.547L25.577,65.79
	c-0.581,0.579-0.583,1.52-0.005,2.1l0.131,0.133l1.178,1.184l0.131,0.131L42.515,53.91l2.771,2.785
	c0.337,0.339,0.886,0.341,1.225,0.003s0.34-0.886,0.003-1.225l-5.805-5.833C40.373,49.302,39.824,49.3,39.485,49.638z"/>
<g id="Layer_7_2_">
	<path fill="#0093B7" d="M74.678,72.67V55.675V54.94c-5.036-2.588-11.728-4.165-19.071-4.165c-7.316,0-13.984,1.566-19.014,4.138
		v0.762V72.67H74.678z"/>
	<path fill="#C74433" d="M70.71,74.951V62.235H40.287v12.718L70.71,74.951L70.71,74.951z M65.998,62.861h3.392v0.706h-3.392V62.861z
		 M41.805,62.908h3.392v0.707h-3.392V62.908z"/>
	<path fill="#D6BCA1" d="M73.473,54.415c-4.936-2.277-11.15-3.64-17.907-3.64c-6.757,0-12.971,1.362-17.906,3.64H73.473z"/>
	<rect x="40.287" y="64.436" fill="#C74433" width="30.423" height="9.43"/>
	<path fill="#C5E5D5" d="M59.437,63.428l-2.276-2.18l2.417-2.523c-0.305-0.091-0.621-0.155-0.957-0.155
		c-1.868,0-3.382,1.515-3.382,3.382c0,1.868,1.514,3.383,3.382,3.383s3.384-1.515,3.384-3.383c0-0.359-0.071-0.697-0.176-1.021
		L59.437,63.428z"/>
	<polygon fill="#C5E5D5" points="53.342,69.896 58.186,64.84 55.908,62.659 48.979,69.896 	"/>
	<rect x="47.74" y="67.372" fill="#DD4B38" width="16.223" height="3.342"/>
	<path fill="#0093B7" d="M62.941,51.334v1.82H48.843v-1.906c-4.139,0.577-7.94,1.67-11.184,3.166h35.813
		C70.398,52.996,66.828,51.933,62.941,51.334z"/>
	<path fill="#DD4B38" d="M41.169,51.735v9.158h4.577V50.457C44.155,50.805,42.626,51.234,41.169,51.735z M45.197,60.214h-3.392
		v-0.706h3.392V60.214z"/>
	<path fill="#DD4B38" d="M65.386,50.439v10.454h4.617v-9.172C68.534,51.219,66.99,50.787,65.386,50.439z M69.39,60.302h-3.392
		v-0.706h3.392V60.302z"/>
	<rect x="50.168" y="46.455" fill="#D6BCA1" width="11.659" height="6.7"/>
	<path fill="#D6BCA1" d="M62.045,51.504V52.8h-12.55v-1.096c-0.415,0.372-0.652,0.784-0.652,1.22c0,1.61,3.155,2.917,7.048,2.917
		c3.895,0,7.05-1.307,7.05-2.917C62.941,52.407,62.613,51.924,62.045,51.504z"/>
	<path opacity="0.1" enable-background="new    " d="M50.168,46.046v4.729v0.297c-1.523,0.166-2.996,0.41-4.421,0.709v-1.324
		c-1.592,0.348-3.12,0.777-4.577,1.278v1.271c-1.64,0.549-3.173,1.188-4.577,1.908v9.521l25.234-16.336v-2.054L50.168,46.046
		L50.168,46.046z"/>
	<path fill="#E7C5A9" d="M59.79,26.735v0.625h-7.66v-1.048c-3.725,1.756-6.383,6.269-6.383,11.576c0,6.832,4.396,12.371,9.82,12.371
		c5.423,0,9.819-5.539,9.819-12.371C65.386,32.965,63.097,28.725,59.79,26.735z"/>
	<path fill="#D6BCA1" d="M52.13,27.577v-1.265c-3.725,1.756-6.383,6.269-6.383,11.576c0,6.832,4.396,12.371,9.82,12.371
		c0.11,0,0.218-0.017,0.325-0.021V27.577H52.13z"/>
	<path fill="#DD4B38" d="M65.274,31.316c-0.002-0.015-0.009-0.029-0.01-0.044h-19.37c-0.008,0.027-0.02,0.053-0.028,0.081
		c0.005,0.341-0.035,0.683-0.121,1.011v4.368h19.64V32.26C65.308,31.953,65.271,31.635,65.274,31.316z"/>
	<ellipse fill="#DD4B38" cx="55.565" cy="31.618" rx="9.82" ry="5.928"/>
	<rect x="51.189" y="38.224" opacity="0.3" fill="#A72422" enable-background="new    " width="0.654" height="0.635"/>
	<rect x="50.537" y="38.224" opacity="0.5" fill="#A72422" enable-background="new    " width="0.656" height="0.635"/>
	<rect x="60.235" y="38.224" opacity="0.3" fill="#A72422" enable-background="new    " width="0.654" height="0.635"/>
	<rect x="60.888" y="38.224" opacity="0.5" fill="#A72422" enable-background="new    " width="0.653" height="0.635"/>
	<path fill="#BD3F30" d="M62.207,36.5v-0.733H49.74V36.5h-2c0.205,0.874,0.712,1.674,1.434,2.364h1.363v-0.641h2.258v0.005h7.232
		v-0.005h1.514v0.641h0.986c0.723-0.69,1.229-1.49,1.435-2.364H62.207z"/>
</g>
</svg>
