<?xml version="1.0" encoding="utf-8"?>
<!-- Generator: Adobe Illustrator 16.0.0, SVG Export Plug-In . SVG Version: 6.00 Build 0)  -->
<!DOCTYPE svg PUBLIC "-//W3C//DTD SVG 1.1//EN" "http://www.w3.org/Graphics/SVG/1.1/DTD/svg11.dtd">
<svg version="1.1" id="Layer_1" xmlns="http://www.w3.org/2000/svg" xmlns:xlink="http://www.w3.org/1999/xlink" x="0px" y="0px"
	 width="365px" height="100px" viewBox="0 0 365 100" enable-background="new 0 0 365 100" xml:space="preserve">
<g>
	<rect x="113.321" y="64.055" fill="none" width="251.725" height="106.945"/>
	<path fill="#FFFFFF" d="M134.329,74.312l-1.665,3.367c-1.863-1.148-4.202-1.861-6.065-1.861c-1.784,0-3.092,0.594-3.092,2.099
		c0,3.883,11.219,1.783,11.179,9.428c0,4.318-3.845,6.259-8.087,6.259c-3.092,0-6.382-1.029-8.483-2.931l1.625-3.248
		c1.823,1.624,4.757,2.614,7.056,2.614c1.942,0,3.449-0.674,3.449-2.258c0-4.318-11.1-1.901-11.06-9.507
		c0-4.278,3.727-6.101,7.77-6.101C129.611,72.173,132.426,72.965,134.329,74.312z"/>
	<path fill="#FFFFFF" d="M159.149,92.098c-1.665,0.99-3.409,1.545-5.193,1.545c-3.171,0-5.907-1.822-5.907-6.14V76.569h-2.973
		v-3.406h2.973V67.38h4.519v5.783h6.224v3.406h-6.224v10.102c0,2.179,0.833,2.852,2.26,2.852c0.951,0,1.942-0.316,3.171-0.911
		L159.149,92.098z"/>
	<path fill="#FFFFFF" d="M183.93,90.869c-1.506,1.862-3.924,2.773-6.977,2.773c-4.559,0-7.413-2.813-7.413-6.536
		c0-3.843,2.894-6.298,7.968-6.338h6.383v-0.634c0-2.654-1.705-4.238-5.035-4.238c-2.022,0-4.123,0.713-6.224,2.139l-1.863-3.169
		c2.933-1.743,5.074-2.653,9.078-2.653c5.431,0,8.483,2.772,8.522,7.407l0.041,13.824h-4.48V90.869z M183.891,86.037v-1.941h-5.708
		c-2.974,0-4.361,0.793-4.361,2.813c0,1.901,1.546,3.13,4.083,3.13C181.155,90.038,183.652,88.334,183.891,86.037z"/>
	<path fill="#FFFFFF" d="M214.381,92.098c-1.666,0.99-3.41,1.545-5.193,1.545c-3.172,0-5.906-1.822-5.906-6.14V76.569h-2.975v-3.406
		h2.975V67.38h4.52v5.783h6.223v3.406h-6.223v10.102c0,2.179,0.832,2.852,2.258,2.852c0.953,0,1.943-0.316,3.172-0.911
		L214.381,92.098z"/>
	<path fill="#FFFFFF" d="M231.432,66.35c0,1.585-1.15,2.733-2.656,2.733s-2.656-1.148-2.656-2.733c0-1.624,1.15-2.772,2.656-2.772
		S231.432,64.726,231.432,66.35z M226.516,93.444V72.371h4.52v21.073H226.516z"/>
	<path fill="#FFFFFF" d="M259.383,74.312l-1.666,3.367c-1.863-1.148-4.201-1.861-6.064-1.861c-1.783,0-3.092,0.594-3.092,2.099
		c0,3.883,11.219,1.783,11.18,9.428c0,4.318-3.846,6.259-8.088,6.259c-3.092,0-6.383-1.029-8.484-2.931l1.627-3.248
		c1.822,1.624,4.756,2.614,7.055,2.614c1.943,0,3.449-0.674,3.449-2.258c0-4.318-11.1-1.901-11.061-9.507
		c0-4.278,3.727-6.101,7.771-6.101C254.666,72.173,257.48,72.965,259.383,74.312z"/>
	<path fill="#FFFFFF" d="M284.203,92.098c-1.666,0.99-3.41,1.545-5.193,1.545c-3.172,0-5.906-1.822-5.906-6.14V76.569h-2.975v-3.406
		h2.975V67.38h4.52v5.783h6.223v3.406h-6.223v10.102c0,2.179,0.832,2.852,2.258,2.852c0.953,0,1.943-0.316,3.172-0.911
		L284.203,92.098z"/>
	<path fill="#FFFFFF" d="M301.252,66.35c0,1.585-1.148,2.733-2.656,2.733c-1.506,0-2.654-1.148-2.654-2.733
		c0-1.624,1.148-2.772,2.654-2.772C300.104,63.577,301.252,64.726,301.252,66.35z M296.336,93.444V72.371h4.52v21.073H296.336z"/>
	<path fill="#FFFFFF" d="M332.891,75.658l-2.498,2.932c-1.467-1.505-3.488-2.416-6.025-2.377c-3.646,0-6.264,2.733-6.264,6.734
		s2.617,6.734,6.264,6.734c2.656,0,4.797-0.872,6.225-2.535l2.537,2.535c-1.902,2.495-4.955,3.921-8.959,3.921
		c-6.264,0-10.625-4.317-10.625-10.655c0-6.378,4.361-10.734,10.625-10.734C327.975,72.213,330.947,73.44,332.891,75.658z"/>
	<path fill="#FFFFFF" d="M359.496,74.312l-1.666,3.367c-1.863-1.148-4.201-1.861-6.064-1.861c-1.783,0-3.092,0.594-3.092,2.099
		c0,3.883,11.219,1.783,11.18,9.428c0,4.318-3.846,6.259-8.088,6.259c-3.092,0-6.383-1.029-8.484-2.931l1.627-3.248
		c1.822,1.624,4.756,2.614,7.055,2.614c1.943,0,3.449-0.674,3.449-2.258c0-4.318-11.1-1.901-11.061-9.507
		c0-4.278,3.727-6.101,7.771-6.101C354.779,72.173,357.594,72.965,359.496,74.312z"/>
</g>
<g>
	<rect x="112" y="2" fill="none" width="754" height="106.945"/>
	<path fill="#FFFFFF" d="M173.289,28.428v20.595h-4.949V29.759c0-5.957-3.489-9.442-9.263-9.442
		c-6.916,0.19-10.913,5.133-10.913,12.294v16.413h-5.012V29.759c0-5.957-3.426-9.442-9.263-9.442
		c-6.852,0.19-10.976,5.133-10.976,12.294v16.413h-4.885V15.627h4.885v7.541c2.221-5.196,6.726-7.667,12.753-7.731
		c6.281,0,10.595,3.232,11.991,8.745c2.094-5.894,6.789-8.682,13.197-8.745C168.657,15.438,173.289,20.38,173.289,28.428z"/>
	<path fill="#FFFFFF" d="M193.521,53.775c-2.094,5.133-5.583,7.795-10.025,7.795c-2.791,0-5.012-0.824-7.042-2.471l2.094-4.119
		c1.523,1.076,3.045,1.584,4.695,1.584c2.602,0,4.759-1.584,6.091-4.689l1.396-3.105l-13.831-33.143h5.203l11.103,27.566
		L203.8,15.627h5.075L193.521,53.775z"/>
	<path fill="#F29D1F" d="M235.964,18.416l-2.665,5.386c-2.982-1.838-6.726-2.979-9.707-2.979c-2.855,0-4.949,0.951-4.949,3.359
		c0,6.21,17.955,2.852,17.892,15.082c0,6.907-6.154,10.012-12.942,10.012c-4.949,0-10.215-1.647-13.578-4.689l2.602-5.196
		c2.919,2.598,7.613,4.183,11.293,4.183c3.109,0,5.521-1.077,5.521-3.612c0-6.907-17.765-3.042-17.702-15.208
		c0-6.844,5.965-9.759,12.436-9.759C228.413,14.994,232.918,16.261,235.964,18.416z"/>
	<path fill="#F29D1F" d="M276.564,28.048v20.976h-7.296V30.076c0-5.069-3.046-8.174-8.121-8.174
		c-6.027,0.063-9.644,4.563-9.644,10.519v16.603h-7.297V2.003h7.297v19.898c2.41-4.753,6.725-6.844,12.498-6.844
		C271.87,15.057,276.564,20,276.564,28.048z"/>
	<path fill="#F29D1F" d="M318.371,32.167c0,10.139-7.17,17.11-17.575,17.11c-10.469,0-17.638-6.971-17.638-17.11
		c0-10.203,7.169-17.11,17.638-17.11C311.201,15.057,318.371,21.964,318.371,32.167z M290.454,32.23
		c0,6.527,4.251,10.963,10.342,10.963c6.027,0,10.278-4.436,10.278-10.963c0-6.464-4.251-10.899-10.278-10.899
		C294.705,21.331,290.454,25.767,290.454,32.23z"/>
	<path fill="#F29D1F" d="M361.51,32.294c0,10.076-6.345,16.983-15.988,16.983c-5.394,0-9.454-2.154-11.928-6.083v18.123h-7.297
		V15.311h7.297v5.83c2.474-3.929,6.534-6.083,11.801-6.083C354.975,15.057,361.51,22.028,361.51,32.294z M354.149,32.041
		c0-6.274-4.25-10.9-10.277-10.9c-6.028,0-10.278,4.563-10.278,10.9c0,6.527,4.25,11.026,10.278,11.026
		C349.899,43.067,354.149,38.504,354.149,32.041z"/>
</g>
<path fill="#DD4D38" d="M48,4.121C46.987,4.049,45.968,4,44.938,4C21.224,4,2,23.224,2,46.938C2,47.629,2.02,48.316,2.052,49H48
	V4.121z"/>
<path fill="#00A659" d="M55.731,57.875H10.114c1.509,21.789,19.651,39,41.824,39c11.44,0,21.806-4.587,29.372-12.015L55.731,57.875z
	"/>
<path fill="#F29C1F" d="M93.875,54.938c0-21.875-16.751-39.83-38.125-41.757v44.695h-0.019L81.299,84.85
	C89.052,77.241,93.875,66.658,93.875,54.938z"/>
<g>
</g>
<g>
</g>
<g>
</g>
<g>
</g>
<g>
</g>
<g>
</g>
</svg>
