<?xml version="1.0" encoding="utf-8"?>
<!-- Generator: Adobe Illustrator 16.0.0, SVG Export Plug-In . SVG Version: 6.00 Build 0)  -->
<!DOCTYPE svg PUBLIC "-//W3C//DTD SVG 1.1//EN" "http://www.w3.org/Graphics/SVG/1.1/DTD/svg11.dtd">
<svg version="1.1" xmlns="http://www.w3.org/2000/svg" xmlns:xlink="http://www.w3.org/1999/xlink" x="0px" y="0px" width="95px"
	 height="95px" viewBox="135 99 95 95" enable-background="new 135 99 95 95" xml:space="preserve">
<g id="Layer_1">
	<path fill="#D44A36" d="M182.563,100.121c-1.013-0.072-2.032-0.121-3.062-0.121c-23.714,0-42.938,19.225-42.938,42.938
		c0,0.691,0.02,1.379,0.052,2.063h45.948V100.121z"/>
	<g>
		<path fill="#008DB0" d="M190.293,153.875h-45.617c1.509,21.789,19.651,39,41.824,39c11.44,0,21.807-4.587,29.373-12.016
			L190.293,153.875z"/>
	</g>
	<g>
		<path fill="#E89F32" d="M228.438,150.938c0-21.875-16.751-39.83-38.125-41.754v44.694h-0.02l25.568,26.972
			C223.614,173.241,228.438,162.658,228.438,150.938z"/>
	</g>
</g>
<g id="Layer_2">
</g>
</svg>
