<?xml version="1.0" encoding="utf-8"?>
<!-- Generator: Adobe Illustrator 16.0.0, SVG Export Plug-In . SVG Version: 6.00 Build 0)  -->
<!DOCTYPE svg PUBLIC "-//W3C//DTD SVG 1.1//EN" "http://www.w3.org/Graphics/SVG/1.1/DTD/svg11.dtd">
<svg version="1.1" id="Layer_1" xmlns:sketch="http://www.bohemiancoding.com/sketch/ns"
	 xmlns="http://www.w3.org/2000/svg" xmlns:xlink="http://www.w3.org/1999/xlink" x="0px" y="0px" width="750px" height="471px"
	 viewBox="0 0 750 471" enable-background="new 0 0 750 471" xml:space="preserve">
<title>Slice 1</title>
<desc>Created with Sketch.</desc>
<g id="Page-1" sketch:type="MSPage">
	<g id="mastercard" sketch:type="MSLayerGroup">
		<path id="Rectangle-1" sketch:type="MSShapeGroup" fill="#34495E" d="M40,0h670c22.092,0,40,17.909,40,40v391
			c0,22.092-17.908,40-40,40H40c-22.091,0-40-17.908-40-40V40C0,17.909,17.909,0,40,0z"/>
		<path id="Fill-1" sketch:type="MSShapeGroup" fill="#E74C3C" d="M424.064,237.504c0,79.903-64.773,144.671-144.673,144.671
			s-144.667-64.768-144.667-144.671c0-79.894,64.767-144.669,144.667-144.669S424.064,157.61,424.064,237.504"/>
		<path id="Fill-2" sketch:type="MSShapeGroup" fill="#F1C40F" d="M473.615,92.835c-37.376,0-71.439,14.181-97.115,37.45
			c-5.229,4.742-10.11,9.862-14.608,15.31h29.229c3.996,4.858,7.678,9.969,11.029,15.322h-51.285
			c-3.072,4.919-5.863,10.03-8.334,15.319h67.951c2.321,4.964,4.368,10.072,6.124,15.317h-80.201
			c-1.672,4.99-3.08,10.097-4.205,15.319h88.607c2.125,9.873,3.257,20.122,3.257,30.631c0,16.065-2.623,31.522-7.459,45.958h-80.201
			c1.753,5.247,3.801,10.358,6.122,15.319h67.955c-2.479,5.289-5.263,10.4-8.34,15.321h-51.277
			c3.349,5.343,7.035,10.462,11.027,15.31h29.223c-4.49,5.459-9.374,10.585-14.61,15.323c25.676,23.266,59.735,37.439,97.111,37.439
			c79.9,0,144.675-64.768,144.675-144.671C618.29,157.613,553.516,92.835,473.615,92.835"/>
		<path id="Fill-12" sketch:type="MSShapeGroup" fill="#FFFFFF" d="M160.015,283.948h-20.94l12.001-75.189l-26.777,75.189h-14.271
			l-1.763-74.759L95.66,283.948H76.063l16.37-97.807h30.103l0.846,60.55l20.309-60.55h32.516L160.015,283.948"/>
		<path id="Fill-13" sketch:type="MSShapeGroup" fill="#FFFFFF" d="M211.564,248.513c-2.194-0.254-3.165-0.32-4.669-0.32
			c-11.867,0-17.87,4.068-17.87,12.103c0,4.946,2.933,8.107,7.499,8.107C205.06,268.402,211.206,260.282,211.564,248.513
			L211.564,248.513L211.564,248.513z M226.796,283.948h-17.345l0.394-8.232c-5.287,6.504-12.354,9.615-21.938,9.615
			c-11.352,0-19.127-8.863-19.127-21.732c0-19.373,13.527-30.663,36.759-30.663c2.372,0,5.416,0.215,8.527,0.613
			c0.648-2.623,0.818-3.747,0.818-5.166c0-5.273-3.644-7.229-13.424-7.229c-10.246-0.116-18.688,2.44-22.162,3.567
			c0.219-1.315,2.901-17.873,2.901-17.873c10.43-3.071,17.318-4.221,25.053-4.221c17.981,0,27.507,8.075,27.489,23.317
			c0.032,4.104-0.649,9.146-1.701,15.765C231.228,253.232,227.325,277.941,226.796,283.948L226.796,283.948L226.796,283.948z"/>
		<path id="Fill-14" sketch:type="MSShapeGroup" fill="#FFFFFF" d="M507.594,188.773l-3.43,21.235
			c-7.466-3.755-12.892-5.286-18.702-5.286c-15.631,0-26.589,15.103-26.589,36.642c0,14.849,7.368,23.828,19.535,23.828
			c5.156,0,10.846-1.604,17.784-5.022l-3.675,22.292c-7.718,2.104-12.695,2.869-18.506,2.869c-22.533,0-36.58-16.205-36.58-42.229
			c0-34.968,19.4-59.409,47.149-59.409C493.721,183.693,504.522,187.569,507.594,188.773"/>
		<path id="Fill-15" sketch:type="MSShapeGroup" fill="#FFFFFF" d="M541.371,248.513c-2.193-0.254-3.16-0.32-4.669-0.32
			c-11.862,0-17.869,4.068-17.869,12.103c0,4.946,2.932,8.107,7.502,8.107C534.862,268.402,541.014,260.282,541.371,248.513
			L541.371,248.513L541.371,248.513z M556.604,283.948h-17.35l0.398-8.232c-5.292,6.504-12.354,9.615-21.938,9.615
			c-11.347,0-19.127-8.863-19.127-21.732c0-19.373,13.531-30.663,36.755-30.663c2.376,0,5.415,0.215,8.531,0.613
			c0.645-2.623,0.819-3.747,0.819-5.166c0-5.273-3.644-7.229-13.425-7.229c-10.241-0.116-18.688,2.44-22.161,3.567
			c0.219-1.315,2.905-17.873,2.905-17.873c10.429-3.071,17.313-4.221,25.049-4.221c17.986,0,27.507,8.075,27.484,23.317
			c0.036,4.104-0.641,9.146-1.697,15.765C561.04,253.232,557.128,277.941,556.604,283.948L556.604,283.948L556.604,283.948z"/>
		<path id="Fill-16" sketch:type="MSShapeGroup" fill="#FFFFFF" d="M319.835,282.744c-5.733,1.803-10.201,2.587-15.04,2.587
			c-10.703,0-16.544-6.15-16.544-17.476c-0.148-3.522,1.544-12.763,2.874-21.204c1.204-7.44,9.073-54.288,9.073-54.288h20.806
			l-2.426,12.045h10.681l-2.843,19.109H315.7c-2.417,15.139-5.869,33.97-5.904,36.472c0,4.115,2.193,5.891,7.167,5.891
			c2.386,0,4.23-0.231,5.644-0.742L319.835,282.744"/>
		<path id="Fill-17" sketch:type="MSShapeGroup" fill="#FFFFFF" d="M383.641,282.108c-7.144,2.184-14.052,3.235-21.356,3.223
			c-23.295-0.023-35.438-12.188-35.438-35.487c0-27.203,15.447-47.216,36.419-47.216c17.158,0,28.116,11.204,28.116,28.791
			c0,5.837-0.753,11.531-2.562,19.566h-41.441c-1.4,11.54,5.985,16.352,18.089,16.352c7.444,0,14.168-1.54,21.635-5.022
			L383.641,282.108L383.641,282.108z M371.939,234.933c0.126-1.652,2.211-14.199-9.682-14.199c-6.625,0-11.365,5.067-13.294,14.199
			H371.939L371.939,234.933z"/>
		<path id="Fill-18" sketch:type="MSShapeGroup" fill="#FFFFFF" d="M239.348,229.556c0,10.063,4.879,16.993,15.944,22.211
			c8.478,3.984,9.79,5.17,9.79,8.779c0,4.959-3.742,7.196-12.019,7.196c-6.249,0-12.06-0.976-18.765-3.138
			c0,0-2.744,17.534-2.869,18.371c4.75,1.039,8.998,1.987,21.782,2.354c22.095,0,32.292-8.411,32.292-26.585
			c0-10.937-4.266-17.351-14.758-22.17c-8.774-4.038-9.79-4.925-9.79-8.645c0-4.297,3.487-6.509,10.251-6.509
			c4.105,0,9.718,0.452,15.045,1.208l2.977-18.456c-5.416-0.859-13.635-1.548-18.42-1.548
			C247.383,202.627,239.281,214.852,239.348,229.556"/>
		<path id="Fill-19" sketch:type="MSShapeGroup" fill="#FFFFFF" d="M667.41,283.948h-19.808l0.984-7.404
			c-5.743,6.142-11.63,8.787-19.302,8.787c-15.219,0-25.278-13.12-25.278-33.008c0-26.46,15.601-48.765,34.065-48.765
			c8.12,0,14.266,3.316,19.985,10.846l4.647-28.263h20.648L667.41,283.948L667.41,283.948z M636.527,265.567
			c9.75,0,16.599-11.047,16.599-26.808c0-10.103-3.899-15.586-11.093-15.586c-9.494,0-16.24,11.083-16.24,26.723
			C625.793,260.304,629.401,265.567,636.527,265.567L636.527,265.567L636.527,265.567z"/>
		<path id="Fill-20" sketch:type="MSShapeGroup" fill="#FFFFFF" d="M575.463,204.409c-2.623,24.62-7.279,49.558-10.918,74.194
			l-0.959,5.346h20.941c7.488-48.64,9.301-58.138,21.043-56.948c1.87-9.955,5.353-18.675,7.949-23.075
			c-8.769-1.826-13.666,3.129-20.076,12.542c0.506-4.069,1.432-8.021,1.25-12.059H575.463"/>
		<path id="Fill-21" sketch:type="MSShapeGroup" fill="#FFFFFF" d="M403.121,204.409c-2.628,24.62-7.283,49.558-10.922,74.194
			l-0.953,5.346h20.949c7.479-48.64,9.288-58.138,21.024-56.948c1.88-9.955,5.363-18.675,7.95-23.075
			c-8.76-1.826-13.662,3.129-20.067,12.542c0.506-4.069,1.424-8.021,1.249-12.059H403.121"/>
	</g>
</g>
</svg>
