<?xml version="1.0" encoding="utf-8"?>
<!-- Generator: Adobe Illustrator 16.0.0, SVG Export Plug-In . SVG Version: 6.00 Build 0)  -->
<!DOCTYPE svg PUBLIC "-//W3C//DTD SVG 1.1//EN" "http://www.w3.org/Graphics/SVG/1.1/DTD/svg11.dtd">
<svg version="1.1" id="Layer_1" xmlns="http://www.w3.org/2000/svg" xmlns:xlink="http://www.w3.org/1999/xlink" x="0px" y="0px"
	 width="100px" height="100px" viewBox="0 0 100 100" enable-background="new 0 0 100 100" xml:space="preserve">
<g id="Layer_10">
	<circle fill="#7A9397" cx="50.5" cy="51" r="47.5"/>
	<path fill="#627679" enable-background="new    " d="M66.419,27.126l-47.65,44.636l24.538,26.196
		c2.346,0.356,4.748,0.542,7.193,0.542c23.18,0,42.469-16.605,46.648-38.568L66.419,27.126z"/>
</g>
<g id="Layer_3">
	<g>
		<path fill="#353C42" d="M28.454,70.5c0,1.1-0.9,2-2,2h-5.36c-1.1,0-2-0.9-2-2v-5.835c0-1.101,0.9-2,2-2h5.36c1.1,0,2,0.899,2,2
			V70.5z"/>
	</g>
	<g>
		<path fill="#353C42" d="M82.454,70.5c0,1.1-0.899,2-2,2h-5.36c-1.1,0-2-0.9-2-2v-5.835c0-1.101,0.9-2,2-2h5.36
			c1.101,0,2,0.899,2,2V70.5z"/>
	</g>
	<path fill="#F29C1F" d="M84.246,51.836c0-4.44-3.4-8.479-8.954-11.499l0.722-0.981l-0.101-0.073
		c0.646,0.342,1.467,0.547,2.364,0.547c2.065,0,3.742-1.089,3.742-2.433c0-1.343-1.674-2.432-3.742-2.432
		c-2.067,0-3.743,1.089-3.743,2.432c0,0.524,0.258,1.009,0.69,1.406l-0.498,0.679c-1.668-3.484-3.602-6.618-5.752-9.306
		c0.002,0,0.002,0,0.002,0c-0.014-0.017-0.026-0.034-0.041-0.05c-0.099-0.122-0.195-0.24-0.295-0.359
		c-0.108-0.134-0.221-0.267-0.33-0.398c-0.104-0.124-0.209-0.246-0.314-0.368c-0.109-0.125-0.219-0.25-0.329-0.374
		c-0.104-0.118-0.21-0.236-0.315-0.352c-0.119-0.129-0.235-0.255-0.354-0.382c-0.078-0.083-0.155-0.168-0.232-0.25h-0.002
		c-0.033-0.033-0.063-0.066-0.095-0.099c-4.188-0.261-9.563-0.418-15.433-0.418c-6.566,0-12.519,0.198-16.875,0.517h-0.678
		c-0.017,0.018-0.033,0.037-0.049,0.055h-0.001c-0.033,0.036-0.064,0.076-0.096,0.111c-0.243,0.272-0.482,0.551-0.719,0.835
		c-0.104,0.124-0.206,0.249-0.309,0.375c-0.184,0.227-0.365,0.458-0.545,0.691c-0.079,0.103-0.162,0.2-0.24,0.304
		c0.001,0,0.002,0,0.003,0c-2.084,2.764-3.906,6.006-5.423,9.611l-0.604-0.822c0.434-0.397,0.691-0.881,0.691-1.406
		c0-1.343-1.676-2.432-3.743-2.432s-3.743,1.089-3.743,2.432c0,1.344,1.676,2.433,3.743,2.433c0.897,0,1.719-0.206,2.364-0.547
		l-0.099,0.073l0.812,1.105C20.31,43.468,17,47.456,17,51.836c0,0.201,0.009,0.4,0.022,0.6C17.01,52.583,17,52.732,17,52.883v7.637
		c0,2.847,2.328,5.172,5.173,5.172h56.9c2.845,0,5.173-2.326,5.173-5.172v-7.637c0-0.15-0.01-0.299-0.023-0.447
		C84.236,52.236,84.246,52.037,84.246,51.836z"/>
	<path fill="#414042" d="M72.523,38.906c-2.131-3.668-4.328-6.837-6.543-9.422H52.738h-9.417h-8.859
		c-1.787,2.567-3.559,5.715-5.276,9.358h10.978c-0.004,0.021-0.01,0.042-0.015,0.063h32.375V38.906z"/>
	<path fill="#414042" d="M34.477,50.049v0.555c0,3.047,2.494,5.541,5.542,5.541h21.247c3.047,0,5.541-2.494,5.541-5.541v-0.555
		H34.477z"/>
	<circle fill="#E6E7E8" cx="24.525" cy="51.219" r="3.633"/>
	<circle fill="#E6E7E8" cx="76.622" cy="51.219" r="3.634"/>
	<path fill="#CD852A" d="M84.232,51.564c-2.994,4.429-8.063,7.354-13.78,7.354H30.917c-5.793,0-10.917-3.005-13.896-7.532
		c-0.007,0.151-0.021,0.3-0.021,0.45c0,0.201,0.009,0.4,0.022,0.6C17.01,52.583,17,52.732,17,52.883v7.637
		c0,2.847,2.328,5.172,5.173,5.172h56.9c2.845,0,5.173-2.326,5.173-5.172v-7.637c0-0.15-0.01-0.299-0.023-0.447
		c0.014-0.199,0.023-0.397,0.023-0.6C84.246,51.746,84.236,51.656,84.232,51.564z"/>
	<path opacity="0.1" fill="#D1D3D4" enable-background="new    " d="M84.246,51.836c0-4.44-3.4-8.479-8.954-11.499l0.722-0.981
		l-0.101-0.073c0.646,0.342,1.467,0.547,2.364,0.547c2.065,0,3.742-1.089,3.742-2.433c0-1.343-1.674-2.432-3.742-2.432
		c-2.067,0-3.743,1.089-3.743,2.432c0,0.524,0.258,1.009,0.69,1.406l-0.498,0.679c-1.668-3.484-3.602-6.618-5.752-9.306
		c0.002,0,0.002,0,0.002,0c-0.014-0.017-0.026-0.034-0.041-0.05c-0.099-0.122-0.195-0.24-0.295-0.359
		c-0.108-0.134-0.221-0.267-0.33-0.398c-0.104-0.124-0.209-0.246-0.314-0.368c-0.109-0.125-0.219-0.25-0.329-0.374
		c-0.104-0.118-0.21-0.236-0.315-0.352c-0.119-0.129-0.235-0.255-0.354-0.382c-0.078-0.083-0.155-0.168-0.232-0.25h-0.002
		c-0.033-0.033-0.063-0.066-0.095-0.099c-4.188-0.261-9.563-0.418-15.433-0.418c-0.79,0-1.568,0.003-2.338,0.009L60.98,65.691h18.09
		c2.846,0,5.174-2.326,5.174-5.172v-7.637c0-0.15-0.01-0.299-0.023-0.447C84.236,52.236,84.246,52.037,84.246,51.836z"/>
</g>
</svg>
