<?xml version="1.0" encoding="utf-8"?>
<!-- Generator: Adobe Illustrator 16.0.0, SVG Export Plug-In . SVG Version: 6.00 Build 0)  -->
<!DOCTYPE svg PUBLIC "-//W3C//DTD SVG 1.1//EN" "http://www.w3.org/Graphics/SVG/1.1/DTD/svg11.dtd">
<svg version="1.1" xmlns="http://www.w3.org/2000/svg" xmlns:xlink="http://www.w3.org/1999/xlink" x="0px" y="0px" width="100px"
	 height="100px" viewBox="0 0 100 100" enable-background="new 0 0 100 100" xml:space="preserve">
<g id="Layer_10">
	<circle fill="#7A9397" cx="50.5" cy="51" r="47.5"/>
	<path fill="#63777A" d="M97.878,47.764L79.125,27.023v0.02h-1.757l-53.84,48.679l20.147,22.283
		c2.229,0.321,4.506,0.495,6.824,0.495C76.733,98.5,98,77.233,98,51C98,49.911,97.95,48.834,97.878,47.764z"/>
</g>
<g id="Layer_5">
	<path fill="#FFFFFF" d="M22.667,74c0,1.657,1.343,3,3,3H77c1.657,0,3-1.343,3-3V29.16c0-1.657-1.343-3-3-3H25.667
		c-1.657,0-3,1.343-3,3V74z"/>
	<path fill="#CCD1D9" d="M80,30.75v-1.59c0-1.657-1.343-3-3-3H25.667c-1.657,0-3,1.343-3,3v1.59H80z"/>
</g>
<g id="Layer_8">
	<path fill="#0293B8" d="M73.667,47.708V47.66l-0.003,0.003l-11.25-11.605L51.16,49.091l0,0.002l-0.003,0.001l-0.034,0.04
		l-0.021-0.018l-11.137,4.337l-0.051,0.081l-0.061-0.038l-0.022,0.009l-0.011-0.029l-11.136-6.92l-0.105,0.03l0.002,0.009
		L27.9,46.78l-0.185,0.053l0-0.002l-5.048,1.375v25.713c0,1.702,1.343,3.081,3,3.081H77c1.657,0,3-1.379,3-3.081V47.708H73.667z"/>
</g>
<g id="Layer_9">
	<line opacity="0.2" stroke="#000000" stroke-width="0.25" stroke-miterlimit="10" x1="22.667" y1="35.35" x2="80" y2="35.35"/>
	<line opacity="0.2" stroke="#000000" stroke-width="0.25" stroke-miterlimit="10" x1="22.667" y1="44" x2="80" y2="44"/>
	<line opacity="0.4" stroke="#026A84" stroke-width="0.25" stroke-miterlimit="10" x1="22.667" y1="53" x2="80" y2="53"/>
	
		<line opacity="0.4" fill="#026A84" stroke="#026A84" stroke-width="0.25" stroke-miterlimit="10" x1="22.667" y1="62.5" x2="80" y2="62.5"/>
	
		<line opacity="0.4" fill="#026A84" stroke="#026A84" stroke-width="0.25" stroke-miterlimit="10" x1="22.667" y1="72.058" x2="80" y2="72.058"/>
	<line fill="#F7941E" stroke="#F7941E" stroke-width="0.25" stroke-miterlimit="10" x1="22.667" y1="39.5" x2="80" y2="39.5"/>
	<path fill="#F7941E" d="M24.083,38.497c0,0.276,0.224,0.5,0.5,0.5h6.583c0.276,0,0.5-0.224,0.5-0.5v-2.189
		c0-0.276-0.224-0.5-0.5-0.5h-6.583c-0.276,0-0.5,0.224-0.5,0.5V38.497z"/>
</g>
<g id="Layer_7">
	<circle fill="#FFFFFF" stroke="#7A9397" stroke-width="2" stroke-miterlimit="10" cx="68.047" cy="66.29" r="15.21"/>
</g>
<g id="Layer_4">
	<g>
		<path fill="#353C42" d="M62.262,71.368c0,0.726-0.565,1.32-1.256,1.32c-0.691,0-1.256-0.594-1.256-1.32s0.565-1.32,1.256-1.32
			C61.696,70.048,62.262,70.642,62.262,71.368z"/>
	</g>
	<g>
		<path fill="#353C42" d="M76.756,71.368c0,0.726-0.565,1.32-1.256,1.32c-0.691,0-1.256-0.594-1.256-1.32s0.565-1.32,1.256-1.32
			C76.19,70.048,76.756,70.642,76.756,71.368z"/>
	</g>
	<path fill="#F29C1F" d="M77.237,67.141c0-1.191-0.914-2.275-2.404-3.086l0.194-0.263L75,63.772
		c0.173,0.092,0.394,0.146,0.635,0.146c0.555,0,1.004-0.292,1.004-0.652c0-0.361-0.449-0.653-1.004-0.653
		c-0.555,0-1.005,0.292-1.005,0.653c0,0.14,0.069,0.271,0.186,0.377l-0.134,0.182c-0.447-0.936-0.966-1.776-1.543-2.498h0
		c-0.004-0.004-0.007-0.009-0.011-0.013c-0.026-0.033-0.053-0.064-0.079-0.096c-0.03-0.036-0.06-0.072-0.089-0.107
		c-0.028-0.033-0.057-0.066-0.085-0.099c-0.029-0.033-0.058-0.067-0.088-0.101c-0.028-0.032-0.056-0.063-0.084-0.094
		c-0.032-0.035-0.063-0.069-0.095-0.103c-0.021-0.022-0.042-0.045-0.062-0.067h-0.001c-0.008-0.009-0.017-0.018-0.025-0.026
		c-1.124-0.07-2.567-0.113-4.142-0.113c-1.763,0-3.36,0.053-4.529,0.139h-0.182c-0.004,0.005-0.009,0.01-0.013,0.015h0
		c-0.009,0.01-0.018,0.021-0.026,0.03c-0.065,0.073-0.13,0.148-0.193,0.224c-0.028,0.033-0.056,0.067-0.083,0.1
		c-0.05,0.061-0.099,0.123-0.146,0.186c-0.021,0.027-0.043,0.053-0.064,0.082h0.001c-0.559,0.742-1.049,1.612-1.456,2.58
		l-0.162-0.221c0.116-0.106,0.186-0.237,0.186-0.377c0-0.361-0.45-0.653-1.004-0.653c-0.555,0-1.004,0.292-1.004,0.653
		c0,0.361,0.45,0.652,1.004,0.652c0.24,0,0.461-0.055,0.634-0.146l-0.027,0.02l0.218,0.296c-1.455,0.807-2.343,1.877-2.343,3.053
		c0,0.055,0.003,0.108,0.006,0.161c-0.003,0.04-0.006,0.08-0.006,0.121v2.05c0,0.763,0.625,1.388,1.389,1.388h15.272
		c0.763,0,1.389-0.625,1.389-1.388v-2.05c0-0.041-0.003-0.081-0.007-0.121C77.234,67.249,77.237,67.195,77.237,67.141z"/>
	<path fill="#414042" d="M74.091,63.67c-0.572-0.984-1.162-1.835-1.756-2.528H68.78h-2.527h-2.377
		c-0.48,0.689-0.956,1.534-1.416,2.511h2.947c-0.002,0.006-0.003,0.011-0.005,0.017H74.091z"/>
	<path fill="#414042" d="M63.878,66.661v0.149c0,0.818,0.669,1.487,1.488,1.487h5.702c0.818,0,1.487-0.669,1.487-1.487v-0.149
		H63.878z"/>
	<circle fill="#E6E7E8" cx="61.208" cy="66.976" r="0.975"/>
	<circle fill="#E6E7E8" cx="75.191" cy="66.976" r="0.975"/>
	<path fill="#CD852A" d="M77.233,67.068c-0.805,1.188-2.164,1.974-3.699,1.974H62.923c-1.555,0-2.93-0.807-3.73-2.021
		c-0.001,0.041-0.005,0.081-0.005,0.12c0,0.055,0.003,0.108,0.006,0.161c-0.003,0.04-0.006,0.08-0.006,0.121v2.05
		c0,0.763,0.625,1.388,1.389,1.388h15.272c0.763,0,1.389-0.625,1.389-1.388v-2.05c0-0.041-0.003-0.081-0.007-0.121
		c0.004-0.053,0.007-0.106,0.007-0.161C77.237,67.116,77.234,67.093,77.233,67.068z"/>
	<path opacity="0.1" fill="#D1D3D4" d="M77.237,67.141c0-1.191-0.914-2.275-2.404-3.086l0.194-0.263L75,63.772
		c0.173,0.092,0.394,0.146,0.635,0.146c0.555,0,1.004-0.292,1.004-0.652c0-0.361-0.449-0.653-1.004-0.653
		c-0.555,0-1.005,0.292-1.005,0.653c0,0.14,0.069,0.271,0.186,0.377l-0.134,0.182c-0.447-0.936-0.966-1.776-1.543-2.498h0
		c-0.004-0.004-0.007-0.009-0.011-0.013c-0.026-0.033-0.053-0.064-0.079-0.096c-0.03-0.036-0.06-0.072-0.089-0.107
		c-0.028-0.033-0.057-0.066-0.085-0.099c-0.029-0.033-0.058-0.067-0.088-0.101c-0.028-0.032-0.056-0.063-0.084-0.094
		c-0.032-0.035-0.063-0.069-0.095-0.103c-0.021-0.022-0.042-0.045-0.062-0.067h-0.001c-0.008-0.009-0.017-0.018-0.025-0.026
		c-1.124-0.07-2.567-0.113-4.142-0.113c-0.212,0-0.422,0-0.628,0.002l3.243,10.349h4.856c0.763,0,1.389-0.625,1.389-1.388v-2.05
		c0-0.041-0.003-0.081-0.007-0.121C77.234,67.249,77.237,67.195,77.237,67.141z"/>
	<line display="none" fill="#CD852A" stroke="#CD852A" stroke-miterlimit="10" x1="64.052" y1="66.38" x2="65.529" y2="64.031"/>
</g>
</svg>
