<?xml version="1.0" encoding="utf-8"?>
<!-- Generator: Adobe Illustrator 16.0.0, SVG Export Plug-In . SVG Version: 6.00 Build 0)  -->
<!DOCTYPE svg PUBLIC "-//W3C//DTD SVG 1.1//EN" "http://www.w3.org/Graphics/SVG/1.1/DTD/svg11.dtd">
<svg version="1.1" id="Layer_1" xmlns="http://www.w3.org/2000/svg" xmlns:xlink="http://www.w3.org/1999/xlink" x="0px" y="0px"
	 width="70px" height="85px" viewBox="0 0 70 85" enable-background="new 0 0 70 85" xml:space="preserve">
<g id="Layer_8">
	<g id="Layer_7_6_">
		<path fill="#0293B8" d="M64.753,76.502V50.434v-1.127c-7.726-3.97-17.989-6.39-29.253-6.39c-11.223,0-21.451,2.403-29.167,6.347
			v1.17v26.068H64.753z"/>
		<path fill="#00A659" d="M58.666,80.002V60.496H12v19.507L58.666,80.002L58.666,80.002z M51.439,61.456h5.203v1.083h-5.203V61.456z
			 M14.328,61.529h5.203v1.084h-5.203V61.529z"/>
		<path fill="#0293B8" d="M62.904,48.5c-7.57-3.494-17.103-5.583-27.467-5.583c-10.366,0-19.897,2.089-27.467,5.583H62.904z"/>
		<rect x="12" y="63.87" fill="#00A659" width="46.667" height="14.466"/>
		<path fill="#C6E5D6" d="M41.375,62.325l-3.491-3.345l3.708-3.871c-0.469-0.139-0.955-0.237-1.469-0.237
			c-2.866,0-5.189,2.323-5.189,5.188s2.323,5.188,5.189,5.188c2.865,0,5.189-2.323,5.189-5.188c0-0.551-0.109-1.069-0.27-1.567
			L41.375,62.325z"/>
		<polygon fill="#C6E5D6" points="32.027,72.246 39.455,64.491 35.964,61.146 25.333,72.246 		"/>
		<rect x="23.432" y="68.375" fill="#0BB25A" width="24.886" height="5.125"/>
		<path fill="#0293B8" d="M46.75,43.773v2.793H25.125v-2.924c-6.349,0.887-12.18,2.561-17.155,4.855h54.934
			C58.189,46.324,52.713,44.693,46.75,43.773z"/>
		<path fill="#00A659" d="M13.354,44.391v14.047h7.021V42.429C17.933,42.961,15.588,43.621,13.354,44.391z M19.531,57.395h-5.203
			v-1.082h5.203V57.395z"/>
		<path fill="#00A659" d="M50.5,42.402v16.036h7.083V44.369C55.329,43.596,52.963,42.934,50.5,42.402z M56.643,57.529h-5.203v-1.082
			h5.203V57.529z"/>
		<rect x="27.157" y="36.29" fill="#D6BDA2" width="17.885" height="10.276"/>
		<path fill="#D6BDA2" d="M45.375,44.035v1.986h-19.25v-1.679c-0.636,0.57-1,1.202-1,1.87c0,2.471,4.841,4.475,10.813,4.475
			c5.974,0,10.813-2.004,10.813-4.475C46.75,45.422,46.247,44.68,45.375,44.035z"/>
		<path opacity="0.1" fill="#010101" enable-background="new    " d="M27.157,35.663v7.254v0.454
			c-2.336,0.257-4.596,0.631-6.782,1.09v-2.032c-2.442,0.532-4.786,1.192-7.021,1.961v1.948c-2.514,0.843-4.866,1.823-7.021,2.927
			V63.87l38.708-25.059v-3.149L27.157,35.663L27.157,35.663z"/>
		<path fill="#E7C5A9" d="M41.917,6.041V7h-11.75V5.393c-5.715,2.694-9.792,9.617-9.792,17.757c0,10.479,6.744,18.975,15.063,18.975
			S50.5,33.63,50.5,23.15C50.5,15.597,46.988,9.094,41.917,6.041z"/>
		<path fill="#D6BDA2" d="M30.167,7.333v-1.94c-5.715,2.694-9.792,9.617-9.792,17.757c0,10.479,6.744,18.975,15.063,18.975
			c0.169,0,0.333-0.025,0.5-0.032V7.333H30.167z"/>
		<path fill="#00A659" d="M50.33,13.069c-0.004-0.023-0.014-0.045-0.016-0.069H20.602c-0.012,0.042-0.029,0.082-0.043,0.124
			c0.009,0.523-0.052,1.048-0.185,1.551v6.7H50.5v-6.859C50.381,14.045,50.325,13.557,50.33,13.069z"/>
		<ellipse fill="#00A659" cx="35.437" cy="13.531" rx="15.063" ry="9.094"/>
		<rect x="28.724" y="23.663" opacity="0.3" fill="#008B4C" enable-background="new    " width="1.005" height="0.974"/>
		<rect x="27.724" y="23.663" opacity="0.5" fill="#008B4C" enable-background="new    " width="1.005" height="0.974"/>
		<rect x="42.6" y="23.663" opacity="0.3" fill="#008B4C" enable-background="new    " width="1.004" height="0.974"/>
		<rect x="43.6" y="23.663" opacity="0.5" fill="#008B4C" enable-background="new    " width="1.004" height="0.974"/>
		<path fill="#008C4D" d="M45.625,21.021v-1.125H26.5v1.125h-3.068c0.314,1.34,1.093,2.567,2.201,3.625h2.091v-0.983h3.463v0.008
			h11.094v-0.008h2.322v0.983h1.513c1.108-1.058,1.887-2.285,2.2-3.625H45.625z"/>
	</g>
</g>
</svg>
