<?xml version="1.0" encoding="utf-8"?>
<!-- Generator: Adobe Illustrator 16.0.0, SVG Export Plug-In . SVG Version: 6.00 Build 0)  -->
<!DOCTYPE svg PUBLIC "-//W3C//DTD SVG 1.1//EN" "http://www.w3.org/Graphics/SVG/1.1/DTD/svg11.dtd">
<svg version="1.1" xmlns="http://www.w3.org/2000/svg" xmlns:xlink="http://www.w3.org/1999/xlink" x="0px" y="0px" width="100px"
	 height="100px" viewBox="0 0 100 100" enable-background="new 0 0 100 100" xml:space="preserve">
<g id="Layer_10">
	<circle fill="#7A9397" cx="50.5" cy="51" r="47.5"/>
	<path fill="#63777A" d="M97.878,47.764L79.125,27.023v0.02h-1.757l-53.84,48.679l20.147,22.283
		c2.229,0.321,4.506,0.495,6.824,0.495C76.733,98.5,98,77.233,98,51C98,49.911,97.95,48.834,97.878,47.764z"/>
</g>
<g id="Layer_5">
	<path fill="#FFFFFF" d="M22.667,74c0,1.657,1.343,3,3,3H77c1.657,0,3-1.343,3-3V29.16c0-1.657-1.343-3-3-3H25.667
		c-1.657,0-3,1.343-3,3V74z"/>
	<path fill="#CCD1D9" d="M80,30.75v-1.59c0-1.657-1.343-3-3-3H25.667c-1.657,0-3,1.343-3,3v1.59H80z"/>
</g>
<g id="Layer_8">
	<path fill="#0293B8" d="M73.667,47.708V47.66l-0.003,0.003l-11.25-11.605L51.16,49.091l0,0.002l-0.003,0.001l-0.034,0.04
		l-0.021-0.018l-11.137,4.337l-0.051,0.081l-0.061-0.038l-0.022,0.009l-0.011-0.029l-11.136-6.92l-0.105,0.03l0.002,0.009
		L27.9,46.78l-0.185,0.053l0-0.002l-5.048,1.375v25.713c0,1.702,1.343,3.081,3,3.081H77c1.657,0,3-1.379,3-3.081V47.708H73.667z"/>
</g>
<g id="Layer_9">
	<line opacity="0.2" stroke="#000000" stroke-width="0.25" stroke-miterlimit="10" x1="22.667" y1="35.35" x2="80" y2="35.35"/>
	<line opacity="0.2" stroke="#000000" stroke-width="0.25" stroke-miterlimit="10" x1="22.667" y1="44" x2="80" y2="44"/>
	<line opacity="0.4" stroke="#026A84" stroke-width="0.25" stroke-miterlimit="10" x1="22.667" y1="53" x2="80" y2="53"/>
	
		<line opacity="0.4" fill="#026A84" stroke="#026A84" stroke-width="0.25" stroke-miterlimit="10" x1="22.667" y1="62.5" x2="80" y2="62.5"/>
	
		<line opacity="0.4" fill="#026A84" stroke="#026A84" stroke-width="0.25" stroke-miterlimit="10" x1="22.667" y1="72.058" x2="80" y2="72.058"/>
	<line fill="#F7941E" stroke="#F7941E" stroke-width="0.25" stroke-miterlimit="10" x1="22.667" y1="39.5" x2="80" y2="39.5"/>
	<path fill="#F7941E" d="M24.083,38.497c0,0.276,0.224,0.5,0.5,0.5h6.583c0.276,0,0.5-0.224,0.5-0.5v-2.189
		c0-0.276-0.224-0.5-0.5-0.5h-6.583c-0.276,0-0.5,0.224-0.5,0.5V38.497z"/>
</g>
<g id="Layer_7">
	<circle fill="#FFFFFF" stroke="#7A9397" stroke-width="2" stroke-miterlimit="10" cx="68.047" cy="66.29" r="15.21"/>
</g>
<g id="Layer_11">
	<path fill="#F29C1F" d="M59.188,68.756v0.364v8.283c2.424,1.934,5.49,3.097,8.831,3.097c3.607,0,6.889-1.357,9.392-3.575v-7.805
		v-0.352c-2.41-1.238-5.611-1.993-9.124-1.993C64.785,66.776,61.595,67.526,59.188,68.756z"/>
	<path fill="#C74433" d="M60.956,73.312v5.292c2.082,1.199,4.489,1.896,7.063,1.896c2.755,0,5.317-0.798,7.493-2.157v-5.031v-1.053
		H60.956V73.312z M73.259,72.559h1.623v0.337h-1.623V72.559z M61.683,72.582h1.623v0.338h-1.623V72.582z"/>
	<path fill="#D6BCA1" d="M76.834,68.518c-2.361-1.09-5.334-1.742-8.567-1.742c-3.232,0-6.206,0.652-8.567,1.742H76.834z"/>
	<path fill="#C5E5D5" d="M70.119,72.83l-1.089-1.043l1.157-1.208c-0.147-0.043-0.298-0.073-0.459-0.073
		c-0.894,0-1.618,0.725-1.618,1.618c0,0.895,0.725,1.619,1.618,1.619c0.895,0,1.619-0.725,1.619-1.619
		c0-0.172-0.034-0.334-0.084-0.489L70.119,72.83z"/>
	<polygon fill="#C5E5D5" points="67.203,75.924 69.521,73.505 68.432,72.462 65.115,75.924 	"/>
	<rect x="64.521" y="74.717" fill="#DD4B38" width="7.763" height="1.599"/>
	<path fill="#F29C1F" d="M71.795,67.043v0.871H65.05v-0.912c-1.979,0.277-3.8,0.799-5.351,1.516h17.135
		C75.363,67.838,73.655,67.331,71.795,67.043z"/>
	<g>
		<path fill="#DD4B38" d="M61.378,67.236v4.382h2.19v-4.994C62.807,66.79,62.075,66.996,61.378,67.236z M63.306,71.292h-1.623
			v-0.338h1.623V71.292z"/>
	</g>
	<g>
		<path fill="#DD4B38" d="M72.965,66.616v5.002h2.21v-4.389C74.472,66.988,73.733,66.781,72.965,66.616z M74.882,71.333h-1.623
			v-0.337h1.623V71.333z"/>
	</g>
	<rect x="65.684" y="64.708" fill="#D6BCA1" width="5.579" height="3.206"/>
	<path fill="#D6BCA1" d="M71.366,67.125v0.62h-6.004v-0.523c-0.199,0.178-0.313,0.375-0.313,0.583c0,0.771,1.511,1.396,3.373,1.396
		c1.863,0,3.372-0.625,3.372-1.396C71.795,67.557,71.639,67.326,71.366,67.125z"/>
	<path opacity="0.1" d="M65.684,64.513v2.263v0.142c-0.728,0.08-1.433,0.197-2.115,0.34v-0.634c-0.762,0.166-1.493,0.372-2.19,0.612
		v0.607c-0.784,0.263-1.518,0.569-2.189,0.913v4.556l12.074-7.816v-0.982H65.684z"/>
	<path fill="#E7C5A9" d="M70.288,55.273v0.3h-3.665v-0.501c-1.783,0.84-3.055,2.999-3.055,5.538c0,3.27,2.104,5.919,4.698,5.919
		c2.596,0,4.698-2.649,4.698-5.919C72.965,58.254,71.87,56.226,70.288,55.273z"/>
	<path fill="#D6BCA1" d="M66.623,55.676v-0.604c-1.783,0.84-3.055,2.999-3.055,5.538c0,3.27,2.104,5.919,4.698,5.919
		c0.053,0,0.104-0.008,0.156-0.01V55.676H66.623z"/>
	<path fill="#DD4B38" d="M72.912,57.465c-0.001-0.007-0.004-0.014-0.005-0.021h-9.269c-0.003,0.013-0.009,0.025-0.013,0.038
		c0.003,0.163-0.017,0.326-0.058,0.483v2.091h9.396v-2.14C72.928,57.77,72.911,57.618,72.912,57.465z"/>
	<ellipse fill="#DD4B38" cx="68.267" cy="57.61" rx="4.698" ry="2.836"/>
	<rect x="66.173" y="60.77" opacity="0.3" fill="#A72422" width="0.313" height="0.304"/>
	<rect x="65.86" y="60.77" opacity="0.5" fill="#A72422" width="0.314" height="0.304"/>
	<rect x="70.501" y="60.77" opacity="0.3" fill="#A72422" width="0.313" height="0.304"/>
	<rect x="70.813" y="60.77" opacity="0.5" fill="#A72422" width="0.313" height="0.304"/>
	<path fill="#BD3F30" d="M71.444,59.946v-0.351h-5.965v0.351h-0.958c0.099,0.418,0.342,0.801,0.687,1.131h0.652V60.77h1.08v0.003
		h3.461V60.77h0.725v0.307h0.473c0.345-0.33,0.588-0.713,0.686-1.131H71.444z"/>
</g>
</svg>
