<?xml version="1.0" encoding="utf-8"?>
<!-- Generator: Adobe Illustrator 16.0.0, SVG Export Plug-In . SVG Version: 6.00 Build 0)  -->
<!DOCTYPE svg PUBLIC "-//W3C//DTD SVG 1.1//EN" "http://www.w3.org/Graphics/SVG/1.1/DTD/svg11.dtd">
<svg version="1.1" xmlns="http://www.w3.org/2000/svg" xmlns:xlink="http://www.w3.org/1999/xlink" x="0px" y="0px" width="100px"
	 height="100px" viewBox="0 0 100 100" enable-background="new 0 0 100 100" xml:space="preserve">
<g id="Layer_1" display="none">
	<image overflow="visible" width="450" height="470" xlink:href="D7FBCEA8.jpg"  transform="matrix(1 0 0 1 75 65)">
	</image>
	
		<image display="inline" overflow="visible" width="420" height="411" xlink:href="D7FBCEA9.jpg"  transform="matrix(1 0 0 1 154 62.333)">
	</image>
	
		<image overflow="visible" width="1500" height="1600" xlink:href="D7FBCEAF.jpg"  transform="matrix(1 0 0 1 -630.9971 -992.9937)">
	</image>
	<image overflow="visible" width="414" height="414" xlink:href="D7FBCEAA.jpg"  transform="matrix(1 0 0 1 93 94)">
	</image>
	
		<image display="inline" overflow="visible" width="1920" height="2160" xlink:href="D7FBCEAB.jpg"  transform="matrix(1 0 0 1 -1211.0205 -1494.25)">
	</image>
</g>
<g id="Layer_10">
	<circle display="none" fill="#77C3C9" cx="50.5" cy="51" r="47.5"/>
	<circle fill="#7A9397" cx="50.5" cy="51" r="47.5"/>
	<path opacity="0.1" d="M54.956,69.938V39.854l-10.7-20.188L4.072,40.962C3.376,44.199,3,47.555,3,51
		c0,26.233,21.267,47.5,47.5,47.5c4.188,0,8.246-0.547,12.114-1.564l17.639-9.349l-9.354-17.649H54.956z"/>
</g>
<g id="Layer_6" display="none">
	<g id="Layer_4" display="inline">
		<ellipse display="none" fill="#37AECE" cx="51" cy="79.005" rx="43.5" ry="24.588"/>
		<path display="none" fill="#37AECE" d="M63.623,55.535h-1.287v2.65H40.711v-2.65h-2.16C32.38,56.627,26.735,58.5,21.92,60.981
			v29.632h58.333V60.98C75.438,58.5,69.794,56.627,63.623,55.535z"/>
		<path fill="#37AECE" d="M80.253,90.613V60.807c-7.726-3.97-17.989-6.39-29.253-6.39c-11.223,0-21.451,2.403-29.167,6.347v29.849
			H80.253z"/>
		<path fill="#D6BCA1" d="M78.405,60c-7.57-3.494-17.101-5.583-27.467-5.583S31.041,56.506,23.47,60H78.405z"/>
		<path fill="#A72422" d="M27.5,71.996v23.5h46.667v-23.5H27.5z M35.031,74.113h-5.203V73.03h5.203V74.113z M72.143,74.039H66.94
			v-1.083h5.203V74.039z"/>
		<path display="none" fill="#C5E5D5" d="M57.044,74.065l-3.494-3.486l3.492-3.499c-0.454-0.12-0.923-0.205-1.417-0.205
			c-2.899,0-5.25,2.21-5.25,4.938s2.351,4.938,5.25,4.938s5.25-2.21,5.25-4.938c0-0.475-0.094-0.925-0.227-1.359L57.044,74.065z"/>
		
			<rect x="48.842" y="73.472" transform="matrix(0.7158 0.6984 -0.6984 0.7158 67.9417 -13.933)" display="none" fill="#C5E5D5" width="4.489" height="6.047"/>
		
			<rect x="45.842" y="76.472" transform="matrix(0.7158 0.6984 -0.6984 0.7158 69.184 -10.9853)" display="none" fill="#C5E5D5" width="4.489" height="6.047"/>
		<path fill="#C5E5D5" d="M56.876,73.825l-3.491-3.344l3.708-3.872c-0.469-0.139-0.955-0.237-1.469-0.237
			c-2.866,0-5.189,2.323-5.189,5.189s2.323,5.189,5.189,5.189s5.189-2.323,5.189-5.189c0-0.55-0.109-1.07-0.268-1.568L56.876,73.825
			z"/>
		<polygon fill="#C5E5D5" points="47.527,83.746 54.956,75.991 51.465,72.647 40.833,83.746 		"/>
		<rect x="38.932" y="79.875" fill="#D43427" width="24.886" height="5.125"/>
		<path fill="#37AECE" d="M62.25,55.273v2.793H40.625v-2.924C34.276,56.031,28.445,57.704,23.47,60h54.935
			C73.69,57.824,68.214,56.194,62.25,55.273z"/>
		<path fill="#D43427" d="M28.854,55.891v14.047h7.021V53.929C33.433,54.461,31.089,55.121,28.854,55.891z M35.031,68.895h-5.203
			v-1.083h5.203V68.895z"/>
		<path fill="#D43427" d="M66,53.902v16.036h7.083V55.869C70.83,55.096,68.464,54.434,66,53.902z M72.143,69.03H66.94v-1.083h5.203
			V69.03z"/>
	</g>
	<g id="Layer_5" display="inline">
		<rect x="42.657" y="47.79" fill="#D6BCA1" width="17.885" height="10.277"/>
		<path fill="#D6BCA1" d="M60.875,55.535v1.986h-19.25v-1.677c-0.636,0.57-1,1.202-1,1.87c0,2.47,4.841,4.473,10.813,4.473
			s10.813-2.003,10.813-4.473C62.25,56.922,61.748,56.18,60.875,55.535z"/>
		<polygon display="none" opacity="0.1" points="42.657,47.163 42.657,54.417 21.833,54.417 21.833,75.37 60.542,50.312 
			60.542,47.163 		"/>
		<path opacity="0.1" d="M42.657,47.163v7.254v0.454c-2.336,0.257-4.596,0.631-6.782,1.09v-2.032
			c-2.442,0.532-4.786,1.192-7.021,1.962v1.949c-2.514,0.842-4.866,1.823-7.021,2.925V75.37l38.708-25.059v-3.149H42.657z"/>
	</g>
	<g id="Layer_2" display="inline">
		<ellipse display="none" fill="#F8C394" cx="51.75" cy="39.875" rx="13.75" ry="16.375"/>
		<path display="none" opacity="0.5" fill="#D43427" d="M56.048,15.375h-9.596c-6.421,1.739-11.077,6.872-11.077,12.938
			c0,1.509,0.3,2.957,0.833,4.313h30.085c0.532-1.356,0.833-2.803,0.833-4.313C67.125,22.247,62.469,17.114,56.048,15.375z"/>
		<ellipse fill="#E7C5A9" cx="50.938" cy="34.65" rx="15.063" ry="18.975"/>
		<path fill="#D6BCA1" d="M51.438,15.707c-0.167-0.007-0.331-0.032-0.5-0.032c-8.319,0-15.063,8.495-15.063,18.975
			c0,10.479,6.744,18.975,15.063,18.975c0.169,0,0.333-0.025,0.5-0.032V15.707z"/>
		<path fill="#D43427" d="M65.83,24.569c-0.004-0.023-0.013-0.045-0.016-0.069H36.103c-0.012,0.042-0.029,0.082-0.043,0.124
			c0.009,0.523-0.052,1.048-0.185,1.551v6.7H66v-6.859C65.881,25.545,65.826,25.057,65.83,24.569z"/>
		<rect x="35.875" y="31.875" display="none" fill="#F8C394" width="30.125" height="7.5"/>
		<ellipse fill="#D43427" cx="50.938" cy="25.031" rx="15.063" ry="9.094"/>
		<rect x="44.224" y="35.163" opacity="0.3" fill="#A72422" width="1.005" height="0.974"/>
		<rect x="43.224" y="35.163" opacity="0.5" fill="#A72422" width="1.005" height="0.974"/>
		<rect x="58.099" y="35.163" opacity="0.3" fill="#A72422" width="1.005" height="0.974"/>
		<rect x="59.099" y="35.163" opacity="0.5" fill="#A72422" width="1.005" height="0.974"/>
		<path fill="#A72422" d="M61.125,32.521v-1.125H42v1.125h-3.068c0.314,1.34,1.093,2.567,2.201,3.625h2.091v-0.983h3.463v0.008
			h11.094v-0.008h2.323v0.983h1.512c1.108-1.058,1.887-2.285,2.201-3.625H61.125z"/>
	</g>
</g>
<g id="Layer_7" display="none">
	<path display="inline" fill="#F29C1F" d="M80.253,90.613V60.807c-7.726-3.97-17.989-6.39-29.253-6.39
		c-11.223,0-21.451,2.403-29.167,6.347v29.849H80.253z"/>
	<path display="inline" fill="#D6BCA1" d="M78.405,60c-7.57-3.494-17.101-5.583-27.467-5.583S31.041,56.506,23.47,60H78.405z"/>
	<path display="inline" fill="#00ADD8" d="M27.5,71.996v23.5h46.667v-23.5H27.5z M35.031,74.113h-5.203V73.03h5.203V74.113z
		 M72.143,74.039H66.94v-1.083h5.203V74.039z"/>
	<path display="inline" fill="#C5E5D5" d="M57.044,74.065l-3.494-3.486l3.492-3.499c-0.454-0.12-0.923-0.205-1.417-0.205
		c-2.899,0-5.25,2.21-5.25,4.938s2.351,4.938,5.25,4.938s5.25-2.21,5.25-4.938c0-0.475-0.094-0.925-0.227-1.359L57.044,74.065z"/>
	
		<rect x="48.842" y="73.472" transform="matrix(0.7158 0.6984 -0.6984 0.7158 67.9417 -13.933)" display="inline" fill="#C5E5D5" width="4.489" height="6.047"/>
	<path display="inline" fill="#C5E5D5" d="M56.876,73.825l-3.491-3.344l3.708-3.872c-0.469-0.139-0.955-0.237-1.469-0.237
		c-2.866,0-5.189,2.323-5.189,5.189s2.323,5.189,5.189,5.189s5.189-2.323,5.189-5.189c0-0.55-0.109-1.07-0.268-1.568L56.876,73.825z
		"/>
	<polygon display="inline" fill="#C5E5D5" points="47.527,83.746 54.956,75.991 51.465,72.647 40.833,83.746 	"/>
	<rect x="38.932" y="79.875" display="inline" fill="#02C1EF" width="24.886" height="5.125"/>
	<path display="inline" fill="#F29C1F" d="M62.25,55.273v2.793H40.625v-2.924C34.276,56.031,28.445,57.704,23.47,60h54.935
		C73.69,57.824,68.214,56.194,62.25,55.273z"/>
	<path display="inline" fill="#00ADD8" d="M28.854,55.891v14.047h7.021V53.929C33.433,54.461,31.089,55.121,28.854,55.891z
		 M35.031,68.895h-5.203v-1.083h5.203V68.895z"/>
	<path display="inline" fill="#00ADD8" d="M66,53.902v16.036h7.083V55.869C70.83,55.096,68.464,54.434,66,53.902z M72.143,69.03
		H66.94v-1.083h5.203V69.03z"/>
	<rect x="42.657" y="47.79" display="inline" fill="#D6BCA1" width="17.885" height="10.277"/>
	<path display="inline" fill="#D6BCA1" d="M60.875,55.535v1.986h-19.25v-1.677c-0.636,0.57-1,1.202-1,1.87
		c0,2.47,4.841,4.473,10.813,4.473s10.813-2.003,10.813-4.473C62.25,56.922,61.748,56.18,60.875,55.535z"/>
	<path display="inline" opacity="0.1" d="M42.657,47.163v7.254v0.454c-2.336,0.257-4.596,0.631-6.782,1.09v-2.032
		c-2.442,0.532-4.786,1.192-7.021,1.962v1.949c-2.514,0.842-4.866,1.823-7.021,2.925V75.37l38.708-25.059v-3.149H42.657z"/>
	<ellipse display="inline" fill="#E7C5A9" cx="50.938" cy="34.65" rx="15.063" ry="18.975"/>
	<path display="inline" fill="#D6BCA1" d="M51.438,15.707c-0.167-0.007-0.331-0.032-0.5-0.032c-8.319,0-15.063,8.495-15.063,18.975
		c0,10.479,6.744,18.975,15.063,18.975c0.169,0,0.333-0.025,0.5-0.032V15.707z"/>
	<path display="inline" fill="#00ADD8" d="M65.83,24.569c-0.004-0.023-0.013-0.045-0.016-0.069H36.103
		c-0.012,0.042-0.029,0.082-0.043,0.124c0.009,0.523-0.052,1.048-0.185,1.551v6.7H66v-6.859
		C65.881,25.545,65.826,25.057,65.83,24.569z"/>
	<ellipse display="inline" fill="#00ADD8" cx="50.938" cy="25.031" rx="15.063" ry="9.094"/>
	<rect x="44.224" y="35.163" display="inline" opacity="0.3" fill="#5098C3" width="1.005" height="0.974"/>
	<rect x="43.224" y="35.163" display="inline" opacity="0.5" fill="#5098C3" width="1.005" height="0.974"/>
	<rect x="58.099" y="35.163" display="inline" opacity="0.3" fill="#5098C3" width="1.005" height="0.974"/>
	<rect x="59.099" y="35.163" display="inline" opacity="0.5" fill="#5098C3" width="1.005" height="0.974"/>
	<path display="inline" fill="#5098C3" d="M61.125,32.521v-1.125H42v1.125h-3.068c0.314,1.34,1.093,2.567,2.201,3.625h2.091v-0.983
		h3.463v0.008h11.094v-0.008h2.323v0.983h1.512c1.108-1.058,1.887-2.285,2.201-3.625H61.125z"/>
</g>
<g id="Layer_3" display="none">
	<path display="inline" fill="#37AECE" d="M149.537,136.417h-25.071c-6.172,1.092-11.816,2.966-16.632,5.446v29.632h58.333v-29.633
		C161.352,139.383,155.708,137.509,149.537,136.417z"/>
	<rect x="113.5" y="150.996" display="inline" fill="#A72422" width="46.667" height="23.5"/>
	<path display="inline" fill="#D43427" d="M159.083,137.869c-2.254-0.773-4.62-1.435-7.083-1.967v20.927h7.083V137.869z"/>
	<path display="inline" fill="#D43427" d="M114.854,137.891v18.938h7.021v-20.9C119.433,136.461,117.089,137.121,114.854,137.891z"
		/>
</g>
<g id="Layer_8" display="none">
	<ellipse fill="#37AECE" cx="51" cy="79.005" rx="43.5" ry="24.588"/>
	<path fill="#37AECE" d="M63.623,55.535h-1.287v2.65H40.711v-2.65h-2.16C32.38,56.627,26.735,58.5,21.92,60.981v29.632h58.333V60.98
		C75.438,58.5,69.794,56.627,63.623,55.535z"/>
	<path display="inline" fill="#F29C1F" d="M80.253,90.613V60.807c-7.726-3.97-17.989-6.39-29.253-6.39
		c-11.223,0-21.451,2.403-29.167,6.347v29.849H80.253z"/>
	<path display="inline" fill="#D6BCA1" d="M78.405,60c-7.57-3.494-17.101-5.583-27.467-5.583S31.041,56.506,23.47,60H78.405z"/>
	<path display="inline" fill="#C74433" d="M27.5,71.996v23.5h46.667v-23.5H27.5z M35.031,74.113h-5.203V73.03h5.203V74.113z
		 M72.143,74.039H66.94v-1.083h5.203V74.039z"/>
	<path fill="#C5E5D5" d="M57.044,74.065l-3.494-3.486l3.492-3.499c-0.454-0.12-0.923-0.205-1.417-0.205
		c-2.899,0-5.25,2.21-5.25,4.938s2.351,4.938,5.25,4.938s5.25-2.21,5.25-4.938c0-0.475-0.094-0.925-0.227-1.359L57.044,74.065z"/>
	
		<rect x="48.842" y="73.472" transform="matrix(0.7158 0.6984 -0.6984 0.7158 67.9417 -13.933)" fill="#C5E5D5" width="4.489" height="6.047"/>
	
		<rect x="45.842" y="76.472" transform="matrix(0.7158 0.6984 -0.6984 0.7158 69.184 -10.9853)" fill="#C5E5D5" width="4.489" height="6.047"/>
	<path fill="#C5E5D5" d="M56.876,73.825l-3.491-3.344l3.708-3.872c-0.469-0.139-0.955-0.237-1.469-0.237
		c-2.866,0-5.189,2.323-5.189,5.189s2.323,5.189,5.189,5.189s5.189-2.323,5.189-5.189c0-0.55-0.109-1.07-0.268-1.568L56.876,73.825z
		"/>
	<polygon fill="#C5E5D5" points="47.527,83.746 54.956,75.991 51.465,72.647 40.833,83.746 	"/>
	<rect x="38.932" y="79.875" display="inline" fill="#DD4B38" width="24.886" height="5.125"/>
	<path display="inline" fill="#F29C1F" d="M62.25,55.273v2.793H40.625v-2.924C34.276,56.031,28.445,57.704,23.47,60h54.935
		C73.69,57.824,68.214,56.194,62.25,55.273z"/>
	<path display="inline" fill="#DD4B38" d="M28.854,55.891v14.047h7.021V53.929C33.433,54.461,31.089,55.121,28.854,55.891z
		 M35.031,68.895h-5.203v-1.083h5.203V68.895z"/>
	<path display="inline" fill="#DD4B38" d="M66,53.902v16.036h7.083V55.869C70.83,55.096,68.464,54.434,66,53.902z M72.143,69.03
		H66.94v-1.083h5.203V69.03z"/>
	<rect x="42.657" y="47.79" display="inline" fill="#D6BCA1" width="17.885" height="10.277"/>
	<path display="inline" fill="#D6BCA1" d="M60.875,55.535v1.986h-19.25v-1.677c-0.636,0.57-1,1.202-1,1.87
		c0,2.47,4.841,4.473,10.813,4.473s10.813-2.003,10.813-4.473C62.25,56.922,61.748,56.18,60.875,55.535z"/>
	<polygon opacity="0.1" points="42.657,47.163 42.657,54.417 21.833,54.417 21.833,75.37 60.542,50.312 60.542,47.163 	"/>
	<path display="inline" opacity="0.1" d="M42.657,47.163v7.254v0.454c-2.336,0.257-4.596,0.631-6.782,1.09v-2.032
		c-2.442,0.532-4.786,1.192-7.021,1.962v1.949c-2.514,0.842-4.866,1.823-7.021,2.925V75.37l38.708-25.059v-3.149H42.657z"/>
	<ellipse fill="#F8C394" cx="51.75" cy="39.875" rx="13.75" ry="16.375"/>
	<path opacity="0.5" fill="#D43427" d="M56.048,15.375h-9.596c-6.421,1.739-11.077,6.872-11.077,12.938
		c0,1.509,0.3,2.957,0.833,4.313h30.085c0.532-1.356,0.833-2.803,0.833-4.313C67.125,22.247,62.469,17.114,56.048,15.375z"/>
	<ellipse display="inline" fill="#E7C5A9" cx="50.938" cy="34.65" rx="15.063" ry="18.975"/>
	<path display="inline" fill="#D6BCA1" d="M51.438,15.707c-0.167-0.007-0.331-0.032-0.5-0.032c-8.319,0-15.063,8.495-15.063,18.975
		c0,10.479,6.744,18.975,15.063,18.975c0.169,0,0.333-0.025,0.5-0.032V15.707z"/>
	<path display="inline" fill="#DD4B38" d="M65.83,24.569c-0.004-0.023-0.013-0.045-0.016-0.069H36.103
		c-0.012,0.042-0.029,0.082-0.043,0.124c0.009,0.523-0.052,1.048-0.185,1.551v6.7H66v-6.859
		C65.881,25.545,65.826,25.057,65.83,24.569z"/>
	<rect x="35.875" y="31.875" fill="#F8C394" width="30.125" height="7.5"/>
	<ellipse display="inline" fill="#DD4B38" cx="50.938" cy="25.031" rx="15.063" ry="9.094"/>
	<rect x="44.224" y="35.163" display="inline" opacity="0.3" fill="#A72422" width="1.005" height="0.974"/>
	<rect x="43.224" y="35.163" display="inline" opacity="0.5" fill="#A72422" width="1.005" height="0.974"/>
	<rect x="58.099" y="35.163" display="inline" opacity="0.3" fill="#A72422" width="1.005" height="0.974"/>
	<rect x="59.099" y="35.163" display="inline" opacity="0.5" fill="#A72422" width="1.005" height="0.974"/>
	<path display="inline" fill="#BD3F30" d="M61.125,32.521v-1.125H42v1.125h-3.068c0.314,1.34,1.093,2.567,2.201,3.625h2.091v-0.983
		h3.463v0.008h11.094v-0.008h2.323v0.983h1.512c1.108-1.058,1.887-2.285,2.201-3.625H61.125z"/>
</g>
<g id="Layer_9" display="none">
	<ellipse fill="#37AECE" cx="51" cy="79.005" rx="43.5" ry="24.588"/>
	<path fill="#37AECE" d="M63.623,55.535h-1.287v2.65H40.711v-2.65h-2.16C32.38,56.627,26.735,58.5,21.92,60.981v29.632h58.333V60.98
		C75.438,58.5,69.794,56.627,63.623,55.535z"/>
	<path display="inline" fill="#00ADD8" d="M80.253,90.613V60.807c-7.726-3.97-17.989-6.39-29.253-6.39
		c-11.223,0-21.451,2.403-29.167,6.347v29.849H80.253z"/>
	<path display="inline" fill="#D6BCA1" d="M78.405,60c-7.57-3.494-17.101-5.583-27.467-5.583S31.041,56.506,23.47,60H78.405z"/>
	<path display="inline" fill="#C74433" d="M27.5,71.996v23.5h46.667v-23.5H27.5z M35.031,74.113h-5.203V73.03h5.203V74.113z
		 M72.143,74.039H66.94v-1.083h5.203V74.039z"/>
	<path fill="#C5E5D5" d="M57.044,74.065l-3.494-3.486l3.492-3.499c-0.454-0.12-0.923-0.205-1.417-0.205
		c-2.899,0-5.25,2.21-5.25,4.938s2.351,4.938,5.25,4.938s5.25-2.21,5.25-4.938c0-0.475-0.094-0.925-0.227-1.359L57.044,74.065z"/>
	
		<rect x="48.842" y="73.472" transform="matrix(0.7158 0.6984 -0.6984 0.7158 67.9417 -13.933)" fill="#C5E5D5" width="4.489" height="6.047"/>
	
		<rect x="45.842" y="76.472" transform="matrix(0.7158 0.6984 -0.6984 0.7158 69.184 -10.9853)" fill="#C5E5D5" width="4.489" height="6.047"/>
	<path display="inline" fill="#C5E5D5" d="M56.876,73.825l-3.491-3.344l3.708-3.872c-0.469-0.139-0.955-0.237-1.469-0.237
		c-2.866,0-5.189,2.323-5.189,5.189s2.323,5.189,5.189,5.189s5.189-2.323,5.189-5.189c0-0.55-0.109-1.07-0.268-1.568L56.876,73.825z
		"/>
	<polygon display="inline" fill="#C5E5D5" points="47.527,83.746 54.956,75.991 51.465,72.647 40.833,83.746 	"/>
	<rect x="38.932" y="79.875" display="inline" fill="#DD4B38" width="24.886" height="5.125"/>
	<path display="inline" fill="#00ADD8" d="M62.25,55.273v2.793H40.625v-2.924C34.276,56.031,28.445,57.704,23.47,60h54.935
		C73.69,57.824,68.214,56.194,62.25,55.273z"/>
	<path display="inline" fill="#DD4B38" d="M28.854,55.891v14.047h7.021V53.929C33.433,54.461,31.089,55.121,28.854,55.891z
		 M35.031,68.895h-5.203v-1.083h5.203V68.895z"/>
	<path display="inline" fill="#DD4B38" d="M66,53.902v16.036h7.083V55.869C70.83,55.096,68.464,54.434,66,53.902z M72.143,69.03
		H66.94v-1.083h5.203V69.03z"/>
	<rect x="42.657" y="47.79" display="inline" fill="#D6BCA1" width="17.885" height="10.277"/>
	<path display="inline" fill="#D6BCA1" d="M60.875,55.535v1.986h-19.25v-1.677c-0.636,0.57-1,1.202-1,1.87
		c0,2.47,4.841,4.473,10.813,4.473s10.813-2.003,10.813-4.473C62.25,56.922,61.748,56.18,60.875,55.535z"/>
	<polygon opacity="0.1" points="42.657,47.163 42.657,54.417 21.833,54.417 21.833,75.37 60.542,50.312 60.542,47.163 	"/>
	<path display="inline" opacity="0.1" d="M42.657,47.163v7.254v0.454c-2.336,0.257-4.596,0.631-6.782,1.09v-2.032
		c-2.442,0.532-4.786,1.192-7.021,1.962v1.949c-2.514,0.842-4.866,1.823-7.021,2.925V75.37l38.708-25.059v-3.149H42.657z"/>
	<ellipse fill="#F8C394" cx="51.75" cy="39.875" rx="13.75" ry="16.375"/>
	<path opacity="0.5" fill="#D43427" d="M56.048,15.375h-9.596c-6.421,1.739-11.077,6.872-11.077,12.938
		c0,1.509,0.3,2.957,0.833,4.313h30.085c0.532-1.356,0.833-2.803,0.833-4.313C67.125,22.247,62.469,17.114,56.048,15.375z"/>
	<path display="inline" fill="#E7C5A9" d="M57.417,17.541V18.5h-11.75v-1.607c-5.715,2.694-9.792,9.617-9.792,17.757
		c0,10.479,6.744,18.975,15.063,18.975S66,45.13,66,34.65C66,27.097,62.488,20.594,57.417,17.541z"/>
	<path display="inline" fill="#D6BCA1" d="M45.667,18.833v-1.94c-5.715,2.694-9.792,9.617-9.792,17.757
		c0,10.479,6.744,18.975,15.063,18.975c0.169,0,0.333-0.025,0.5-0.032v-34.76H45.667z"/>
	<path display="inline" fill="#DD4B38" d="M65.83,24.569c-0.004-0.023-0.013-0.045-0.016-0.069H36.103
		c-0.012,0.042-0.029,0.082-0.043,0.124c0.009,0.523-0.052,1.048-0.185,1.551v6.7H66v-6.859
		C65.881,25.545,65.826,25.057,65.83,24.569z"/>
	<rect x="35.875" y="31.875" fill="#F8C394" width="30.125" height="7.5"/>
	<ellipse display="inline" fill="#DD4B38" cx="50.938" cy="25.031" rx="15.063" ry="9.094"/>
	<rect x="44.224" y="35.163" display="inline" opacity="0.3" fill="#A72422" width="1.005" height="0.974"/>
	<rect x="43.224" y="35.163" display="inline" opacity="0.5" fill="#A72422" width="1.005" height="0.974"/>
	<rect x="58.099" y="35.163" display="inline" opacity="0.3" fill="#A72422" width="1.005" height="0.974"/>
	<rect x="59.099" y="35.163" display="inline" opacity="0.5" fill="#A72422" width="1.005" height="0.974"/>
	<path display="inline" fill="#BD3F30" d="M61.125,32.521v-1.125H42v1.125h-3.068c0.314,1.34,1.093,2.567,2.201,3.625h2.091v-0.983
		h3.463v0.008h11.094v-0.008h2.323v0.983h1.512c1.108-1.058,1.887-2.285,2.201-3.625H61.125z"/>
</g>
<g id="Layer_11">
	<path fill="#F29C1F" d="M21.833,61.933V88.87C29.801,94.911,39.73,98.5,50.5,98.5c11.267,0,21.61-3.931,29.753-10.484V61.933
		H21.833z"/>
	<path fill="#F29C1F" d="M21.833,60.764V88.87c0.801,0.607,1.622,1.188,2.461,1.744h52.411c1.224-0.812,2.407-1.68,3.548-2.598
		V60.807c-7.726-3.97-17.989-6.39-29.253-6.39C39.777,54.417,29.549,56.82,21.833,60.764z"/>
	<path fill="#C74433" d="M27.5,92.561c2.033,1.128,4.156,2.111,6.358,2.935h33.283c2.445-0.915,4.79-2.031,7.025-3.318V71.996H27.5
		V92.561z M66.94,72.956h5.203v1.083H66.94V72.956z M29.828,73.03h5.203v1.083h-5.203V73.03z"/>
	<path fill="#D6BCA1" d="M78.405,60c-7.57-3.494-17.101-5.583-27.467-5.583S31.041,56.506,23.47,60H78.405z"/>
	<path fill="#C74433" d="M74.167,75.37H27.5v17.19c6.815,3.78,14.654,5.939,23,5.939c8.625,0,16.7-2.316,23.667-6.341V75.37z"/>
	<path fill="#C5E5D5" d="M56.876,73.825l-3.491-3.344l3.708-3.872c-0.469-0.139-0.955-0.237-1.469-0.237
		c-2.866,0-5.189,2.323-5.189,5.189s2.323,5.189,5.189,5.189s5.189-2.323,5.189-5.189c0-0.55-0.109-1.07-0.268-1.568L56.876,73.825z
		"/>
	<polygon fill="#C5E5D5" points="47.527,83.746 54.956,75.991 51.465,72.647 40.833,83.746 	"/>
	<rect x="38.932" y="79.875" fill="#DD4B38" width="24.886" height="5.125"/>
	<path fill="#F29C1F" d="M62.25,55.273v2.793H40.625v-2.924C34.276,56.031,28.445,57.704,23.47,60h54.935
		C73.69,57.824,68.214,56.194,62.25,55.273z"/>
	<path fill="#DD4B38" d="M28.854,55.891v14.047h7.021V53.929C33.433,54.461,31.089,55.121,28.854,55.891z M35.031,68.895h-5.203
		v-1.083h5.203V68.895z"/>
	<path fill="#DD4B38" d="M66,53.902v16.036h7.083V55.869C70.83,55.096,68.464,54.434,66,53.902z M72.143,69.03H66.94v-1.083h5.203
		V69.03z"/>
	<rect x="42.657" y="47.79" fill="#D6BCA1" width="17.885" height="10.277"/>
	<path fill="#D6BCA1" d="M60.875,55.535v1.986h-19.25v-1.677c-0.636,0.57-1,1.202-1,1.87c0,2.47,4.841,4.473,10.813,4.473
		s10.813-2.003,10.813-4.473C62.25,56.922,61.748,56.18,60.875,55.535z"/>
	<path opacity="0.1" d="M42.657,47.163v7.254v0.454c-2.336,0.257-4.596,0.631-6.782,1.09v-2.032
		c-2.442,0.532-4.786,1.192-7.021,1.962v1.949c-2.514,0.842-4.866,1.823-7.021,2.925V75.37l38.708-25.059v-3.149H42.657z"/>
	<path fill="#E7C5A9" d="M57.417,17.541V18.5h-11.75v-1.607c-5.715,2.694-9.792,9.617-9.792,17.757
		c0,10.479,6.744,18.975,15.063,18.975S66,45.13,66,34.65C66,27.097,62.488,20.594,57.417,17.541z"/>
	<path fill="#D6BCA1" d="M45.667,18.833v-1.94c-5.715,2.694-9.792,9.617-9.792,17.757c0,10.479,6.744,18.975,15.063,18.975
		c0.169,0,0.333-0.025,0.5-0.032v-34.76H45.667z"/>
	<path fill="#DD4B38" d="M65.83,24.569c-0.004-0.023-0.013-0.045-0.016-0.069H36.103c-0.012,0.042-0.029,0.082-0.043,0.124
		c0.009,0.523-0.052,1.048-0.185,1.551v6.7H66v-6.859C65.881,25.545,65.826,25.057,65.83,24.569z"/>
	<ellipse fill="#DD4B38" cx="50.938" cy="25.031" rx="15.063" ry="9.094"/>
	<rect x="44.224" y="35.163" opacity="0.3" fill="#A72422" width="1.005" height="0.974"/>
	<rect x="43.224" y="35.163" opacity="0.5" fill="#A72422" width="1.005" height="0.974"/>
	<rect x="58.099" y="35.163" opacity="0.3" fill="#A72422" width="1.005" height="0.974"/>
	<rect x="59.099" y="35.163" opacity="0.5" fill="#A72422" width="1.005" height="0.974"/>
	<path fill="#BD3F30" d="M61.125,32.521v-1.125H42v1.125h-3.068c0.314,1.34,1.093,2.567,2.201,3.625h2.091v-0.983h3.463v0.008
		h11.094v-0.008h2.323v0.983h1.512c1.108-1.058,1.887-2.285,2.201-3.625H61.125z"/>
</g>
<g id="Layer_12" display="none">
	<path display="inline" fill="#00ADD8" d="M21.833,61.933V88.87C29.801,94.911,39.73,98.5,50.5,98.5
		c11.267,0,21.61-3.931,29.753-10.484V61.933H21.833z"/>
	<path display="inline" fill="#00ADD8" d="M21.833,60.764V88.87c0.801,0.607,1.622,1.188,2.461,1.744h52.411
		c1.224-0.812,2.407-1.68,3.548-2.598V60.807c-7.726-3.97-17.989-6.39-29.253-6.39C39.777,54.417,29.549,56.82,21.833,60.764z"/>
	<path display="inline" fill="#C74433" d="M27.5,92.561c2.033,1.128,4.156,2.111,6.358,2.935h33.283
		c2.445-0.915,4.79-2.031,7.025-3.318V71.996H27.5V92.561z M66.94,72.956h5.203v1.083H66.94V72.956z M29.828,73.03h5.203v1.083
		h-5.203V73.03z"/>
	<path display="inline" fill="#00ADD8" d="M78.405,60c-7.57-3.494-17.101-5.583-27.467-5.583S31.041,56.506,23.47,60H78.405z"/>
	<path display="inline" fill="#C74433" d="M74.167,75.37H27.5v17.19c6.815,3.78,14.654,5.939,23,5.939
		c8.625,0,16.7-2.316,23.667-6.341V75.37z"/>
	<path display="inline" fill="#C5E5D5" d="M56.876,73.825l-3.491-3.344l3.708-3.872c-0.469-0.139-0.955-0.237-1.469-0.237
		c-2.866,0-5.189,2.323-5.189,5.189s2.323,5.189,5.189,5.189s5.189-2.323,5.189-5.189c0-0.55-0.109-1.07-0.268-1.568L56.876,73.825z
		"/>
	<polygon display="inline" fill="#C5E5D5" points="47.527,83.746 54.956,75.991 51.465,72.647 40.833,83.746 	"/>
	<rect x="38.932" y="79.875" display="inline" fill="#DD4B38" width="24.886" height="5.125"/>
	<path display="inline" fill="#00ADD8" d="M62.25,55.273v2.793H40.625v-2.924C34.276,56.031,28.445,57.704,23.47,60h54.935
		C73.69,57.824,68.214,56.194,62.25,55.273z"/>
	<path display="inline" fill="#DD4B38" d="M28.854,55.891v14.047h7.021V53.929C33.433,54.461,31.089,55.121,28.854,55.891z
		 M35.031,68.895h-5.203v-1.083h5.203V68.895z"/>
	<path display="inline" fill="#DD4B38" d="M66,53.902v16.036h7.083V55.869C70.83,55.096,68.464,54.434,66,53.902z M72.143,69.03
		H66.94v-1.083h5.203V69.03z"/>
	<rect x="42.657" y="47.79" display="inline" fill="#D6BCA1" width="17.885" height="10.277"/>
	<path display="inline" fill="#D6BCA1" d="M60.875,55.535v1.986h-19.25v-1.677c-0.636,0.57-1,1.202-1,1.87
		c0,2.47,4.841,4.473,10.813,4.473s10.813-2.003,10.813-4.473C62.25,56.922,61.748,56.18,60.875,55.535z"/>
	<path display="inline" opacity="0.1" d="M42.657,47.163v7.254v0.454c-2.336,0.257-4.596,0.631-6.782,1.09v-2.032
		c-2.442,0.532-4.786,1.192-7.021,1.962v1.949c-2.514,0.842-4.866,1.823-7.021,2.925V75.37l38.708-25.059v-3.149H42.657z"/>
	<path display="inline" fill="#E7C5A9" d="M57.417,17.541V18.5h-11.75v-1.607c-5.715,2.694-9.792,9.617-9.792,17.757
		c0,10.479,6.744,18.975,15.063,18.975S66,45.13,66,34.65C66,27.097,62.488,20.594,57.417,17.541z"/>
	<path display="inline" fill="#D6BCA1" d="M45.667,18.833v-1.94c-5.715,2.694-9.792,9.617-9.792,17.757
		c0,10.479,6.744,18.975,15.063,18.975c0.169,0,0.333-0.025,0.5-0.032v-34.76H45.667z"/>
	<path display="inline" fill="#DD4B38" d="M65.83,24.569c-0.004-0.023-0.013-0.045-0.016-0.069H36.103
		c-0.012,0.042-0.029,0.082-0.043,0.124c0.009,0.523-0.052,1.048-0.185,1.551v6.7H66v-6.859
		C65.881,25.545,65.826,25.057,65.83,24.569z"/>
	<ellipse display="inline" fill="#DD4B38" cx="50.938" cy="25.031" rx="15.063" ry="9.094"/>
	<rect x="44.224" y="35.163" display="inline" opacity="0.3" fill="#A72422" width="1.005" height="0.974"/>
	<rect x="43.224" y="35.163" display="inline" opacity="0.5" fill="#A72422" width="1.005" height="0.974"/>
	<rect x="58.099" y="35.163" display="inline" opacity="0.3" fill="#A72422" width="1.005" height="0.974"/>
	<rect x="59.099" y="35.163" display="inline" opacity="0.5" fill="#A72422" width="1.005" height="0.974"/>
	<path display="inline" fill="#BD3F30" d="M61.125,32.521v-1.125H42v1.125h-3.068c0.314,1.34,1.093,2.567,2.201,3.625h2.091v-0.983
		h3.463v0.008h11.094v-0.008h2.323v0.983h1.512c1.108-1.058,1.887-2.285,2.201-3.625H61.125z"/>
</g>
</svg>
