<?xml version="1.0" encoding="utf-8"?>
<!-- Generator: Adobe Illustrator 16.0.0, SVG Export Plug-In . SVG Version: 6.00 Build 0)  -->
<!DOCTYPE svg PUBLIC "-//W3C//DTD SVG 1.1//EN" "http://www.w3.org/Graphics/SVG/1.1/DTD/svg11.dtd">
<svg version="1.1" id="Layer_1" xmlns:sketch="http://www.bohemiancoding.com/sketch/ns"
	 xmlns="http://www.w3.org/2000/svg" xmlns:xlink="http://www.w3.org/1999/xlink" x="0px" y="0px" width="750px" height="471px"
	 viewBox="0 0 750 471" enable-background="new 0 0 750 471" xml:space="preserve">
<title>Slice 1</title>
<desc>Created with Sketch.</desc>
<g id="Page-1" sketch:type="MSPage">
	<g id="visa" sketch:type="MSLayerGroup">
		<path id="Rectangle-1" sketch:type="MSShapeGroup" fill="#0054A4" d="M40,0h670c22.092,0,40,17.909,40,40v391
			c0,22.092-17.908,40-40,40H40c-22.091,0-40-17.908-40-40V40C0,17.909,17.909,0,40,0z"/>
		<path id="Shape" sketch:type="MSShapeGroup" fill="#FFFFFF" d="M282.726,320.506l29.332-172.116h46.914L329.62,320.506H282.726
			L282.726,320.506z"/>
		<path id="path13" sketch:type="MSShapeGroup" fill="#FFFFFF" d="M499.109,152.102c-9.295-3.487-23.858-7.229-42.047-7.229
			c-46.355,0-79.01,23.344-79.287,56.8c-0.261,24.731,23.312,38.528,41.106,46.76c18.26,8.438,24.4,13.818,24.313,21.351
			c-0.117,11.538-14.584,16.809-28.068,16.809c-18.776,0-28.752-2.609-44.158-9.034l-6.046-2.737l-6.584,38.53
			c10.957,4.805,31.219,8.968,52.258,9.184c49.314,0,81.328-23.078,81.693-58.804c0.176-19.58-12.323-34.48-39.389-46.764
			c-16.398-7.961-26.44-13.275-26.334-21.337c0-7.154,8.5-14.804,26.865-14.804c15.343-0.238,26.454,3.107,35.113,6.594l4.204,1.986
			L499.109,152.102"/>
		<path id="Path" sketch:type="MSShapeGroup" fill="#FFFFFF" d="M619.831,148.39H583.58c-11.23,0-19.634,3.065-24.565,14.273
			l-69.674,157.734h49.263c0,0,8.056-21.208,9.879-25.865c5.383,0,53.239,0.074,60.081,0.074c1.403,6.025,5.708,25.791,5.708,25.791
			h43.531L619.831,148.39L619.831,148.39z M562.315,259.528c3.88-9.916,18.69-48.113,18.69-48.113
			c-0.276,0.458,3.853-9.965,6.222-16.427l3.171,14.839c0,0,8.983,41.084,10.86,49.7L562.315,259.528L562.315,259.528
			L562.315,259.528z"/>
		<path id="path16" sketch:type="MSShapeGroup" fill="#FFFFFF" d="M242.902,148.39l-45.93,117.37l-4.894-23.851
			c-8.55-27.497-35.191-57.287-64.973-72.201l41.997,150.524l49.636-0.058l73.858-171.785H242.902"/>
		<path id="path18" sketch:type="MSShapeGroup" fill="#F2AE14" d="M154.116,148.39H78.468l-0.599,3.582
			c58.854,14.247,97.796,48.675,113.961,90.043l-16.449-79.094C172.542,152.022,164.306,148.77,154.116,148.39"/>
	</g>
</g>
</svg>
